<svg width="151" height="49" viewBox="0 0 151 49" fill="none" xmlns="http://www.w3.org/2000/svg">
<mask id="mask0_5814_10456" style="mask-type:luminance" maskUnits="userSpaceOnUse" x="0" y="0" width="48" height="49">
<path d="M48 0.19873H0V48.1987H48V0.19873Z" fill="white"/>
</mask>
<g mask="url(#mask0_5814_10456)">
<path d="M48 0.19873H0V48.1988H48V44.0249V41.1727H43.9652V44.0249H4.17391V4.37264H43.8957V6.39003H48V4.37264V0.19873Z" fill="white"/>
<path d="M37.7306 17.2529C37.6176 16.0296 37.1517 15.0818 36.3328 14.4097C35.5138 13.729 34.483 13.3887 33.2404 13.3887C32.351 13.3887 31.5815 13.561 30.9319 13.9057C30.2824 14.2417 29.7776 14.707 29.4176 15.3015C29.0646 15.8874 28.888 16.555 28.888 17.3047C28.888 17.9337 29.0081 18.4764 29.2481 18.9331C29.4952 19.3897 29.8164 19.7731 30.2117 20.0833C30.6142 20.3849 31.0448 20.6391 31.5037 20.8458C31.9627 21.044 32.4039 21.2077 32.8275 21.337L34.9455 22.009C35.6374 22.2157 36.347 22.4958 37.074 22.849C37.8013 23.2023 38.4755 23.6675 39.0967 24.2448C39.7181 24.822 40.2192 25.5372 40.6006 26.3902C40.9889 27.2432 41.183 28.2641 41.183 29.4531C41.183 30.9524 40.8654 32.2836 40.2299 33.4467C39.6015 34.6099 38.6873 35.5274 37.4871 36.1994C36.2939 36.8716 34.8502 37.2076 33.1557 37.2076C31.5319 37.2076 30.127 36.8931 28.9409 36.2641C27.755 35.6351 26.8265 34.7434 26.1558 33.5889C25.485 32.4257 25.1144 31.0472 25.0439 29.4531H28.3268C28.3902 30.4095 28.6444 31.2066 29.0892 31.8441C29.5411 32.4731 30.1164 32.9427 30.8154 33.2528C31.5214 33.5544 32.2945 33.7052 33.1346 33.7052C34.0595 33.7052 34.8819 33.5285 35.602 33.1753C36.3293 32.8134 36.9011 32.3137 37.3177 31.6762C37.7342 31.0299 37.9425 30.276 37.9425 29.4145C37.9425 28.6303 37.7588 27.9885 37.3918 27.4888C37.0318 26.989 36.541 26.5755 35.9198 26.248C35.3056 25.9206 34.6102 25.6321 33.8336 25.3822L31.2708 24.5292C29.534 23.9519 28.1573 23.1032 27.1407 21.9831C26.1312 20.8631 25.6263 19.3811 25.6263 17.5373C25.6263 16.0123 25.9652 14.6811 26.6429 13.5438C27.3207 12.4065 28.2386 11.5233 29.3963 10.8944C30.5541 10.2568 31.8603 9.93799 33.3146 9.93799C34.7831 9.93799 36.0786 10.2525 37.2012 10.8814C38.3308 11.5104 39.2203 12.3763 39.8699 13.4792C40.5193 14.5734 40.8583 15.8313 40.8865 17.2529H37.7306Z" fill="white"/>
<path d="M43.9648 10.9116H47.9996V36.7899H43.9648V10.9116Z" fill="white"/>
</g>
<path d="M63.4718 3.76137C63.4188 3.26516 63.1953 2.87879 62.8013 2.60228C62.4112 2.32576 61.9036 2.1875 61.2786 2.1875C60.8392 2.1875 60.4623 2.25379 60.1479 2.38637C59.8335 2.51894 59.593 2.69887 59.4263 2.92614C59.2597 3.15341 59.1744 3.41288 59.1707 3.70455C59.1707 3.94697 59.2256 4.1572 59.3354 4.33523C59.4491 4.51326 59.6025 4.66478 59.7957 4.78978C59.9888 4.91099 60.2029 5.01326 60.4377 5.09659C60.6725 5.17993 60.9093 5.25 61.1479 5.30682L62.2388 5.57955C62.6782 5.68182 63.1006 5.82008 63.5059 5.99432C63.915 6.16856 64.2805 6.38826 64.6025 6.65341C64.9282 6.91856 65.1858 7.23864 65.3752 7.61364C65.5646 7.98864 65.6593 8.42803 65.6593 8.93182C65.6593 9.61364 65.485 10.214 65.1366 10.733C64.7881 11.2481 64.2843 11.6515 63.6252 11.9432C62.9699 12.2311 62.1763 12.375 61.2445 12.375C60.3392 12.375 59.5532 12.2349 58.8866 11.9545C58.2237 11.6742 57.7047 11.2652 57.3297 10.7273C56.9585 10.1894 56.7578 9.53409 56.7275 8.76137H58.8013C58.8316 9.16667 58.9566 9.50379 59.1763 9.77273C59.396 10.0417 59.682 10.2424 60.0343 10.375C60.3904 10.5076 60.7881 10.5739 61.2275 10.5739C61.6858 10.5739 62.0873 10.5057 62.432 10.3693C62.7805 10.2292 63.0532 10.036 63.2502 9.78978C63.4472 9.53978 63.5475 9.24811 63.5513 8.91478C63.5475 8.61175 63.4585 8.36175 63.2843 8.16478C63.11 7.96402 62.8657 7.79735 62.5513 7.66478C62.2407 7.52841 61.8771 7.4072 61.4604 7.30114L60.1366 6.96023C59.1782 6.71402 58.4207 6.34091 57.8638 5.84091C57.3108 5.33713 57.0343 4.66856 57.0343 3.83523C57.0343 3.14962 57.2199 2.54925 57.5911 2.03409C57.9661 1.51894 58.4756 1.11932 59.1195 0.835227C59.7635 0.547348 60.4926 0.403409 61.307 0.403409C62.1328 0.403409 62.8563 0.547348 63.4775 0.835227C64.1025 1.11932 64.593 1.51516 64.9491 2.02273C65.3051 2.52652 65.4888 3.10606 65.5002 3.76137H63.4718ZM73.0101 8.52841V3.47159H75.067V12.1989H73.0726V10.6477H72.9817C72.7848 11.1364 72.4609 11.536 72.0101 11.8466C71.5632 12.1572 71.012 12.3125 70.3567 12.3125C69.7848 12.3125 69.2791 12.1856 68.8397 11.9318C68.4041 11.6742 68.0632 11.3011 67.817 10.8125C67.5707 10.3201 67.4476 9.72538 67.4476 9.02841V3.47159H69.5045V8.71023C69.5045 9.26326 69.656 9.70266 69.959 10.0284C70.262 10.3542 70.6598 10.517 71.1522 10.517C71.4552 10.517 71.7488 10.4432 72.0329 10.2955C72.317 10.1477 72.5499 9.92803 72.7317 9.63637C72.9173 9.34091 73.0101 8.97159 73.0101 8.52841ZM84.0797 5.77841L82.2047 5.98296C82.1517 5.79356 82.0589 5.61553 81.9263 5.44887C81.7975 5.2822 81.6233 5.14773 81.4036 5.04546C81.1839 4.94319 80.915 4.89205 80.5968 4.89205C80.1688 4.89205 79.8089 4.98485 79.5172 5.17046C79.2294 5.35606 79.0873 5.59659 79.0911 5.89205C79.0873 6.14584 79.1801 6.35228 79.3695 6.51137C79.5627 6.67046 79.8809 6.80114 80.3241 6.90341L81.8127 7.22159C82.6385 7.39963 83.2521 7.68182 83.6536 8.06819C84.0589 8.45455 84.2635 8.96023 84.2672 9.58523C84.2635 10.1345 84.1025 10.6193 83.7843 11.0398C83.4699 11.4564 83.0324 11.7822 82.4718 12.017C81.9112 12.2519 81.2672 12.3693 80.54 12.3693C79.4718 12.3693 78.6119 12.1458 77.9604 11.6989C77.3089 11.2481 76.9207 10.6212 76.7957 9.81819L78.8013 9.625C78.8922 10.0189 79.0854 10.3163 79.3809 10.517C79.6763 10.7178 80.0608 10.8182 80.5343 10.8182C81.0229 10.8182 81.415 10.7178 81.7104 10.517C82.0097 10.3163 82.1593 10.0682 82.1593 9.77273C82.1593 9.52273 82.0627 9.31629 81.8695 9.15341C81.6801 8.99053 81.3847 8.86553 80.9832 8.77841L79.4945 8.46591C78.6574 8.29167 78.0381 7.99811 77.6366 7.58523C77.235 7.16856 77.0362 6.64205 77.04 6.00569C77.0362 5.46781 77.182 5.0019 77.4775 4.60796C77.7767 4.21023 78.1915 3.90341 78.7218 3.6875C79.2559 3.46781 79.8714 3.35796 80.5684 3.35796C81.5911 3.35796 82.396 3.57576 82.9832 4.01137C83.5741 4.44697 83.9396 5.03599 84.0797 5.77841ZM90.3212 3.47159V5.0625H85.3042V3.47159H90.3212ZM86.5428 1.38069H88.5996V9.57387C88.5996 9.85038 88.6413 10.0625 88.7246 10.2102C88.8118 10.3542 88.9254 10.4527 89.0655 10.5057C89.2057 10.5587 89.361 10.5852 89.5314 10.5852C89.6602 10.5852 89.7777 10.5758 89.8837 10.5568C89.9936 10.5379 90.0769 10.5208 90.1337 10.5057L90.4803 12.1136C90.3705 12.1515 90.2133 12.1932 90.0087 12.2386C89.808 12.2841 89.5618 12.3106 89.2701 12.3182C88.7549 12.3333 88.2909 12.2557 87.878 12.0852C87.4652 11.911 87.1375 11.642 86.8951 11.2784C86.6565 10.9148 86.539 10.4602 86.5428 9.91478V1.38069ZM94.5528 12.375C93.9997 12.375 93.5016 12.2765 93.0584 12.0795C92.619 11.8788 92.2706 11.5833 92.013 11.1932C91.7592 10.803 91.6323 10.322 91.6323 9.75C91.6323 9.25758 91.7232 8.85038 91.905 8.52841C92.0868 8.20644 92.335 7.94887 92.6493 7.75569C92.9637 7.5625 93.3179 7.41667 93.7118 7.31819C94.1096 7.21591 94.5206 7.14205 94.9448 7.09659C95.4562 7.04356 95.8709 6.99622 96.1891 6.95455C96.5073 6.90909 96.7384 6.84091 96.8823 6.75C97.03 6.65531 97.1039 6.50947 97.1039 6.3125V6.27841C97.1039 5.85038 96.977 5.51894 96.7232 5.28409C96.4694 5.04925 96.1039 4.93182 95.6266 4.93182C95.1228 4.93182 94.7232 5.04167 94.4278 5.26137C94.1361 5.48106 93.9391 5.74053 93.8368 6.03978L91.9164 5.76705C92.0679 5.23675 92.3179 4.79356 92.6664 4.4375C93.0149 4.07766 93.441 3.80872 93.9448 3.63069C94.4486 3.44887 95.0054 3.35796 95.6153 3.35796C96.0357 3.35796 96.4543 3.4072 96.8709 3.50569C97.2876 3.60417 97.6683 3.76705 98.013 3.99432C98.3577 4.21781 98.6342 4.52273 98.8425 4.90909C99.0547 5.29546 99.1607 5.77841 99.1607 6.35796V12.1989H97.1834V11H97.1153C96.9903 11.2424 96.8141 11.4697 96.5868 11.6818C96.3634 11.8902 96.0812 12.0587 95.7403 12.1875C95.4031 12.3125 95.0073 12.375 94.5528 12.375ZM95.0868 10.8636C95.4997 10.8636 95.8577 10.7822 96.1607 10.6193C96.4637 10.4527 96.6967 10.233 96.8596 9.96023C97.0262 9.6875 97.1096 9.39016 97.1096 9.06819V8.03978C97.0452 8.09281 96.9353 8.14205 96.78 8.1875C96.6285 8.23296 96.4581 8.27273 96.2687 8.30682C96.0793 8.34091 95.8918 8.37122 95.7062 8.39773C95.5206 8.42425 95.3596 8.44697 95.2232 8.46591C94.9164 8.50758 94.6418 8.57576 94.3993 8.67046C94.1569 8.76516 93.9656 8.89773 93.8255 9.06819C93.6853 9.23485 93.6153 9.45076 93.6153 9.71591C93.6153 10.0947 93.7535 10.3807 94.03 10.5739C94.3065 10.767 94.6588 10.8636 95.0868 10.8636ZM101.229 12.1989V3.47159H103.286V12.1989H101.229ZM102.263 2.23296C101.937 2.23296 101.657 2.125 101.422 1.90909C101.187 1.6894 101.07 1.42614 101.07 1.11932C101.07 0.808712 101.187 0.545454 101.422 0.329545C101.657 0.109848 101.937 0 102.263 0C102.592 0 102.873 0.109848 103.104 0.329545C103.339 0.545454 103.456 0.808712 103.456 1.11932C103.456 1.42614 103.339 1.6894 103.104 1.90909C102.873 2.125 102.592 2.23296 102.263 2.23296ZM107.457 7.08523V12.1989H105.401V3.47159H107.366V4.95455H107.469C107.67 4.46591 107.99 4.07766 108.429 3.78978C108.872 3.5019 109.42 3.35796 110.071 3.35796C110.673 3.35796 111.198 3.48675 111.645 3.74432C112.096 4.0019 112.444 4.375 112.69 4.86364C112.94 5.35228 113.063 5.94508 113.06 6.64205V12.1989H111.003V6.96023C111.003 6.3769 110.851 5.92046 110.548 5.59091C110.249 5.26137 109.834 5.09659 109.304 5.09659C108.944 5.09659 108.624 5.17614 108.344 5.33523C108.067 5.49053 107.849 5.71591 107.69 6.01137C107.535 6.30682 107.457 6.66478 107.457 7.08523ZM117.662 12.375C117.109 12.375 116.611 12.2765 116.168 12.0795C115.728 11.8788 115.38 11.5833 115.122 11.1932C114.868 10.803 114.741 10.322 114.741 9.75C114.741 9.25758 114.832 8.85038 115.014 8.52841C115.196 8.20644 115.444 7.94887 115.759 7.75569C116.073 7.5625 116.427 7.41667 116.821 7.31819C117.219 7.21591 117.63 7.14205 118.054 7.09659C118.565 7.04356 118.98 6.99622 119.298 6.95455C119.616 6.90909 119.848 6.84091 119.991 6.75C120.139 6.65531 120.213 6.50947 120.213 6.3125V6.27841C120.213 5.85038 120.086 5.51894 119.832 5.28409C119.579 5.04925 119.213 4.93182 118.736 4.93182C118.232 4.93182 117.832 5.04167 117.537 5.26137C117.245 5.48106 117.048 5.74053 116.946 6.03978L115.026 5.76705C115.177 5.23675 115.427 4.79356 115.776 4.4375C116.124 4.07766 116.55 3.80872 117.054 3.63069C117.558 3.44887 118.115 3.35796 118.724 3.35796C119.145 3.35796 119.563 3.4072 119.98 3.50569C120.397 3.60417 120.777 3.76705 121.122 3.99432C121.467 4.21781 121.743 4.52273 121.952 4.90909C122.164 5.29546 122.27 5.77841 122.27 6.35796V12.1989H120.293V11H120.224C120.099 11.2424 119.923 11.4697 119.696 11.6818C119.473 11.8902 119.19 12.0587 118.849 12.1875C118.512 12.3125 118.116 12.375 117.662 12.375ZM118.196 10.8636C118.609 10.8636 118.967 10.7822 119.27 10.6193C119.573 10.4527 119.806 10.233 119.969 9.96023C120.135 9.6875 120.219 9.39016 120.219 9.06819V8.03978C120.154 8.09281 120.045 8.14205 119.889 8.1875C119.738 8.23296 119.567 8.27273 119.378 8.30682C119.188 8.34091 119.001 8.37122 118.815 8.39773C118.63 8.42425 118.469 8.44697 118.332 8.46591C118.026 8.50758 117.751 8.57576 117.509 8.67046C117.266 8.76516 117.075 8.89773 116.935 9.06819C116.795 9.23485 116.724 9.45076 116.724 9.71591C116.724 10.0947 116.863 10.3807 117.139 10.5739C117.416 10.767 117.768 10.8636 118.196 10.8636ZM124.429 12.1989V0.5625H126.486V4.91478H126.571C126.677 4.70266 126.827 4.47728 127.02 4.23864C127.213 3.99622 127.474 3.78978 127.804 3.61932C128.134 3.44508 128.554 3.35796 129.065 3.35796C129.74 3.35796 130.348 3.53031 130.889 3.875C131.435 4.21591 131.866 4.72159 132.185 5.39205C132.507 6.05872 132.668 6.8769 132.668 7.84659C132.668 8.80493 132.51 9.61932 132.196 10.2898C131.882 10.9602 131.454 11.4716 130.912 11.8239C130.37 12.1761 129.757 12.3523 129.071 12.3523C128.571 12.3523 128.156 12.2689 127.827 12.1023C127.497 11.9356 127.232 11.7349 127.031 11.5C126.834 11.2614 126.681 11.036 126.571 10.8239H126.452V12.1989H124.429ZM126.446 7.83523C126.446 8.39963 126.526 8.89394 126.685 9.31819C126.848 9.74243 127.08 10.0739 127.384 10.3125C127.69 10.5474 128.062 10.6648 128.497 10.6648C128.952 10.6648 129.332 10.5436 129.639 10.3011C129.946 10.0549 130.177 9.7197 130.332 9.29546C130.491 8.86743 130.571 8.38069 130.571 7.83523C130.571 7.29356 130.493 6.8125 130.338 6.39205C130.183 5.97159 129.952 5.64205 129.645 5.40341C129.338 5.16478 128.955 5.04546 128.497 5.04546C128.058 5.04546 127.685 5.16099 127.378 5.39205C127.071 5.62311 126.838 5.94697 126.679 6.36364C126.524 6.78031 126.446 7.27084 126.446 7.83523ZM136.473 0.5625V12.1989H134.416V0.5625H136.473ZM142.452 12.3693C141.577 12.3693 140.821 12.1875 140.185 11.8239C139.552 11.4564 139.065 10.9375 138.724 10.267C138.384 9.59281 138.213 8.79925 138.213 7.88637C138.213 6.98864 138.384 6.20076 138.724 5.52273C139.069 4.84091 139.55 4.31061 140.168 3.93182C140.785 3.54925 141.51 3.35796 142.344 3.35796C142.882 3.35796 143.389 3.44508 143.866 3.61932C144.348 3.78978 144.772 4.05493 145.139 4.41478C145.51 4.77463 145.802 5.23296 146.014 5.78978C146.226 6.34281 146.332 7.0019 146.332 7.76705V8.39773H139.179V7.01137H144.361C144.357 6.61743 144.272 6.26705 144.105 5.96023C143.938 5.64963 143.705 5.40531 143.406 5.22728C143.111 5.04925 142.766 4.96023 142.372 4.96023C141.952 4.96023 141.582 5.0625 141.264 5.26705C140.946 5.46781 140.698 5.73296 140.52 6.0625C140.346 6.38826 140.257 6.74622 140.253 7.13637V8.3466C140.253 8.85417 140.346 9.28978 140.531 9.65341C140.717 10.0133 140.976 10.2898 141.31 10.483C141.643 10.6724 142.033 10.767 142.48 10.767C142.779 10.767 143.05 10.7254 143.293 10.642C143.535 10.5549 143.745 10.428 143.923 10.2614C144.101 10.0947 144.236 9.88826 144.327 9.64205L146.247 9.85796C146.126 10.3655 145.895 10.8087 145.554 11.1875C145.217 11.5625 144.785 11.8542 144.259 12.0625C143.732 12.267 143.13 12.3693 142.452 12.3693ZM59.2559 19.5625V31.1989H57.1479V19.5625H59.2559ZM63.5045 26.0852V31.1989H61.4476V22.4716H63.4136V23.9545H63.5158C63.7166 23.4659 64.0367 23.0777 64.4761 22.7898C64.9192 22.5019 65.4666 22.358 66.1181 22.358C66.7204 22.358 67.245 22.4867 67.692 22.7443C68.1427 23.0019 68.4912 23.375 68.7374 23.8636C68.9874 24.3523 69.1105 24.9451 69.1067 25.642V31.1989H67.0499V25.9602C67.0499 25.3769 66.8984 24.9205 66.5954 24.5909C66.2961 24.2614 65.8814 24.0966 65.3511 24.0966C64.9912 24.0966 64.6711 24.1761 64.3908 24.3352C64.1143 24.4905 63.8965 24.7159 63.7374 25.0114C63.5821 25.3068 63.5045 25.6648 63.5045 26.0852ZM73.2545 26.0852V31.1989H71.1976V22.4716H73.1636V23.9545H73.2658C73.4666 23.4659 73.7867 23.0777 74.2261 22.7898C74.6692 22.5019 75.2166 22.358 75.8681 22.358C76.4704 22.358 76.995 22.4867 77.442 22.7443C77.8927 23.0019 78.2412 23.375 78.4874 23.8636C78.7374 24.3523 78.8605 24.9451 78.8567 25.642V31.1989H76.7999V25.9602C76.7999 25.3769 76.6484 24.9205 76.3454 24.5909C76.0461 24.2614 75.6314 24.0966 75.1011 24.0966C74.7412 24.0966 74.4211 24.1761 74.1408 24.3352C73.8643 24.4905 73.6465 24.7159 73.4874 25.0114C73.3321 25.3068 73.2545 25.6648 73.2545 26.0852ZM84.7545 31.3693C83.9022 31.3693 83.1636 31.1818 82.5386 30.8068C81.9136 30.4318 81.4287 29.9072 81.084 29.233C80.7431 28.5587 80.5726 27.7708 80.5726 26.8693C80.5726 25.9678 80.7431 25.178 81.084 24.5C81.4287 23.822 81.9136 23.2955 82.5386 22.9205C83.1636 22.5455 83.9022 22.358 84.7545 22.358C85.6067 22.358 86.3454 22.5455 86.9704 22.9205C87.5954 23.2955 88.0783 23.822 88.4192 24.5C88.7639 25.178 88.9363 25.9678 88.9363 26.8693C88.9363 27.7708 88.7639 28.5587 88.4192 29.233C88.0783 29.9072 87.5954 30.4318 86.9704 30.8068C86.3454 31.1818 85.6067 31.3693 84.7545 31.3693ZM84.7658 29.7216C85.2279 29.7216 85.6143 29.5947 85.9249 29.3409C86.2355 29.0833 86.4666 28.7386 86.6181 28.3068C86.7734 27.875 86.8511 27.3939 86.8511 26.8636C86.8511 26.3295 86.7734 25.8466 86.6181 25.4148C86.4666 24.9792 86.2355 24.6326 85.9249 24.375C85.6143 24.1174 85.2279 23.9886 84.7658 23.9886C84.2923 23.9886 83.8984 24.1174 83.584 24.375C83.2734 24.6326 83.0404 24.9792 82.8851 25.4148C82.7336 25.8466 82.6579 26.3295 82.6579 26.8636C82.6579 27.3939 82.7336 27.875 82.8851 28.3068C83.0404 28.7386 83.2734 29.0833 83.584 29.3409C83.8984 29.5947 84.2923 29.7216 84.7658 29.7216ZM98.1806 22.4716L95.0726 31.1989H92.7999L89.692 22.4716H91.8851L93.8908 28.9545H93.9817L95.9931 22.4716H98.1806ZM101.865 31.375C101.312 31.375 100.814 31.2765 100.371 31.0795C99.9315 30.8788 99.5831 30.5833 99.3255 30.1932C99.0717 29.803 98.9448 29.322 98.9448 28.75C98.9448 28.2576 99.0357 27.8504 99.2175 27.5284C99.3993 27.2064 99.6475 26.9489 99.9618 26.7557C100.276 26.5625 100.63 26.4167 101.024 26.3182C101.422 26.2159 101.833 26.142 102.257 26.0966C102.768 26.0436 103.183 25.9962 103.501 25.9545C103.82 25.9091 104.051 25.8409 104.195 25.75C104.342 25.6553 104.416 25.5095 104.416 25.3125V25.2784C104.416 24.8504 104.289 24.5189 104.036 24.2841C103.782 24.0492 103.416 23.9318 102.939 23.9318C102.435 23.9318 102.036 24.0417 101.74 24.2614C101.448 24.4811 101.251 24.7405 101.149 25.0398L99.2289 24.767C99.3804 24.2367 99.6304 23.7936 99.9789 23.4375C100.327 23.0777 100.753 22.8087 101.257 22.6307C101.761 22.4489 102.318 22.358 102.928 22.358C103.348 22.358 103.767 22.4072 104.183 22.5057C104.6 22.6042 104.981 22.767 105.325 22.9943C105.67 23.2178 105.946 23.5227 106.155 23.9091C106.367 24.2955 106.473 24.7784 106.473 25.358V31.1989H104.496V30H104.428C104.303 30.2424 104.126 30.4697 103.899 30.6818C103.676 30.8902 103.393 31.0587 103.053 31.1875C102.715 31.3125 102.32 31.375 101.865 31.375ZM102.399 29.8636C102.812 29.8636 103.17 29.7822 103.473 29.6193C103.776 29.4527 104.009 29.233 104.172 28.9602C104.339 28.6875 104.422 28.3902 104.422 28.0682V27.0398C104.357 27.0928 104.248 27.142 104.092 27.1875C103.941 27.233 103.77 27.2727 103.581 27.3068C103.392 27.3409 103.204 27.3712 103.018 27.3977C102.833 27.4242 102.672 27.447 102.536 27.4659C102.229 27.5076 101.954 27.5758 101.712 27.6705C101.469 27.7652 101.278 27.8977 101.138 28.0682C100.998 28.2349 100.928 28.4508 100.928 28.7159C100.928 29.0947 101.066 29.3807 101.342 29.5739C101.619 29.767 101.971 29.8636 102.399 29.8636ZM112.899 22.4716V24.0625H107.882V22.4716H112.899ZM109.121 20.3807H111.178V28.5739C111.178 28.8504 111.219 29.0625 111.303 29.2102C111.39 29.3542 111.503 29.4527 111.643 29.5057C111.784 29.5587 111.939 29.5852 112.109 29.5852C112.238 29.5852 112.356 29.5758 112.462 29.5568C112.571 29.5379 112.655 29.5208 112.712 29.5057L113.058 31.1136C112.948 31.1515 112.791 31.1932 112.587 31.2386C112.386 31.2841 112.14 31.3106 111.848 31.3182C111.333 31.3333 110.869 31.2557 110.456 31.0852C110.043 30.911 109.715 30.642 109.473 30.2784C109.234 29.9148 109.117 29.4602 109.121 28.9148V20.3807ZM114.619 31.1989V22.4716H116.676V31.1989H114.619ZM115.653 21.233C115.328 21.233 115.047 21.125 114.812 20.9091C114.578 20.6894 114.46 20.4261 114.46 20.1193C114.46 19.8087 114.578 19.5455 114.812 19.3295C115.047 19.1099 115.328 19 115.653 19C115.983 19 116.263 19.1099 116.494 19.3295C116.729 19.5455 116.847 19.8087 116.847 20.1193C116.847 20.4261 116.729 20.6894 116.494 20.9091C116.263 21.125 115.983 21.233 115.653 21.233ZM122.598 31.3693C121.746 31.3693 121.007 31.1818 120.382 30.8068C119.757 30.4318 119.272 29.9072 118.928 29.233C118.587 28.5587 118.416 27.7708 118.416 26.8693C118.416 25.9678 118.587 25.178 118.928 24.5C119.272 23.822 119.757 23.2955 120.382 22.9205C121.007 22.5455 121.746 22.358 122.598 22.358C123.45 22.358 124.189 22.5455 124.814 22.9205C125.439 23.2955 125.922 23.822 126.263 24.5C126.607 25.178 126.78 25.9678 126.78 26.8693C126.78 27.7708 126.607 28.5587 126.263 29.233C125.922 29.9072 125.439 30.4318 124.814 30.8068C124.189 31.1818 123.45 31.3693 122.598 31.3693ZM122.609 29.7216C123.071 29.7216 123.458 29.5947 123.768 29.3409C124.079 29.0833 124.31 28.7386 124.462 28.3068C124.617 27.875 124.695 27.3939 124.695 26.8636C124.695 26.3295 124.617 25.8466 124.462 25.4148C124.31 24.9792 124.079 24.6326 123.768 24.375C123.458 24.1174 123.071 23.9886 122.609 23.9886C122.136 23.9886 121.742 24.1174 121.428 24.375C121.117 24.6326 120.884 24.9792 120.729 25.4148C120.577 25.8466 120.501 26.3295 120.501 26.8636C120.501 27.3939 120.577 27.875 120.729 28.3068C120.884 28.7386 121.117 29.0833 121.428 29.3409C121.742 29.5947 122.136 29.7216 122.609 29.7216ZM130.582 26.0852V31.1989H128.526V22.4716H130.491V23.9545H130.594C130.795 23.4659 131.115 23.0777 131.554 22.7898C131.997 22.5019 132.545 22.358 133.196 22.358C133.798 22.358 134.323 22.4867 134.77 22.7443C135.221 23.0019 135.569 23.375 135.815 23.8636C136.065 24.3523 136.188 24.9451 136.185 25.642V31.1989H134.128V25.9602C134.128 25.3769 133.976 24.9205 133.673 24.5909C133.374 24.2614 132.959 24.0966 132.429 24.0966C132.069 24.0966 131.749 24.1761 131.469 24.3352C131.192 24.4905 130.974 24.7159 130.815 25.0114C130.66 25.3068 130.582 25.6648 130.582 26.0852ZM145.173 24.7784L143.298 24.983C143.245 24.7936 143.152 24.6155 143.02 24.4489C142.891 24.2822 142.717 24.1477 142.497 24.0455C142.277 23.9432 142.009 23.892 141.69 23.892C141.262 23.892 140.902 23.9849 140.611 24.1705C140.323 24.3561 140.181 24.5966 140.185 24.892C140.181 25.1458 140.274 25.3523 140.463 25.5114C140.656 25.6705 140.974 25.8011 141.418 25.9034L142.906 26.2216C143.732 26.3996 144.346 26.6818 144.747 27.0682C145.152 27.4545 145.357 27.9602 145.361 28.5852C145.357 29.1345 145.196 29.6193 144.878 30.0398C144.563 30.4564 144.126 30.7822 143.565 31.017C143.005 31.2519 142.361 31.3693 141.634 31.3693C140.565 31.3693 139.705 31.1458 139.054 30.6989C138.402 30.2481 138.014 29.6212 137.889 28.8182L139.895 28.625C139.986 29.0189 140.179 29.3163 140.474 29.517C140.77 29.7178 141.154 29.8182 141.628 29.8182C142.116 29.8182 142.509 29.7178 142.804 29.517C143.103 29.3163 143.253 29.0682 143.253 28.7727C143.253 28.5227 143.156 28.3163 142.963 28.1534C142.774 27.9905 142.478 27.8655 142.077 27.7784L140.588 27.4659C139.751 27.2917 139.132 26.9981 138.73 26.5852C138.329 26.1686 138.13 25.642 138.134 25.0057C138.13 24.4678 138.276 24.0019 138.571 23.608C138.87 23.2102 139.285 22.9034 139.815 22.6875C140.349 22.4678 140.965 22.358 141.662 22.358C142.685 22.358 143.49 22.5758 144.077 23.0114C144.668 23.447 145.033 24.036 145.173 24.7784Z" fill="white"/>
<path d="M60.2396 46.239C59.8929 46.239 59.5916 46.1936 59.3356 46.103C59.0849 46.007 58.8876 45.8523 58.7436 45.639C58.5996 45.4256 58.5196 45.135 58.5036 44.767L58.3596 41.711H59.3116L59.4396 44.471C59.4556 44.7003 59.4956 44.8763 59.5596 44.999C59.6289 45.1163 59.7249 45.1963 59.8476 45.239C59.9703 45.2763 60.1276 45.295 60.3196 45.295C60.4849 45.295 60.6023 45.3403 60.6716 45.431C60.7463 45.5163 60.7836 45.623 60.7836 45.751C60.7836 45.8843 60.7356 45.999 60.6396 46.095C60.5436 46.191 60.4103 46.239 60.2396 46.239ZM58.8716 45.447C58.5303 45.5323 58.2023 45.5723 57.8876 45.567C57.5729 45.5616 57.2903 45.5083 57.0396 45.407C56.7889 45.3056 56.5889 45.1616 56.4396 44.975C56.2956 44.783 56.2236 44.543 56.2236 44.255C56.2236 43.9936 56.2849 43.7536 56.4076 43.535C56.5303 43.3163 56.6983 43.1243 56.9116 42.959C57.1303 42.7883 57.3836 42.647 57.6716 42.535C57.9596 42.4176 58.2716 42.3323 58.6076 42.279L58.7196 43.239C58.4743 43.2496 58.2556 43.2816 58.0636 43.335C57.8716 43.3883 57.7089 43.4603 57.5756 43.551C57.4423 43.6363 57.3383 43.7296 57.2636 43.831C57.1943 43.9323 57.1596 44.039 57.1596 44.151C57.1596 44.2523 57.1943 44.335 57.2636 44.399C57.3383 44.463 57.4343 44.5136 57.5516 44.551C57.6689 44.5883 57.7996 44.6096 57.9436 44.615C58.0929 44.6203 58.2396 44.615 58.3836 44.599C58.5329 44.5776 58.6743 44.543 58.8076 44.495L58.8716 45.447ZM58.8156 40.855C58.6769 40.855 58.5596 40.807 58.4636 40.711C58.3676 40.6096 58.3196 40.4923 58.3196 40.359C58.3196 40.2256 58.3676 40.1083 58.4636 40.007C58.5596 39.9056 58.6769 39.855 58.8156 39.855C58.9489 39.855 59.0636 39.9056 59.1596 40.007C59.2556 40.1083 59.3036 40.2256 59.3036 40.359C59.3036 40.4923 59.2556 40.6096 59.1596 40.711C59.0636 40.807 58.9489 40.855 58.8156 40.855ZM57.5436 40.847C57.4049 40.847 57.2849 40.799 57.1836 40.703C57.0876 40.607 57.0396 40.4923 57.0396 40.359C57.0396 40.2256 57.0876 40.1083 57.1836 40.007C57.2796 39.9056 57.3996 39.855 57.5436 39.855C57.6769 39.855 57.7916 39.9056 57.8876 40.007C57.9836 40.1083 58.0316 40.2256 58.0316 40.359C58.0316 40.4923 57.9836 40.607 57.8876 40.703C57.7916 40.799 57.6769 40.847 57.5436 40.847ZM60.2418 46.239L60.3218 45.295C60.4551 45.295 60.5671 45.263 60.6578 45.199C60.7538 45.135 60.8498 45.031 60.9458 44.887C61.0418 44.7376 61.1511 44.5376 61.2738 44.287C61.4285 43.9616 61.5885 43.7083 61.7538 43.527C61.9191 43.3456 62.0871 43.2203 62.2578 43.151C62.4338 43.0763 62.6071 43.039 62.7778 43.039C62.9911 43.039 63.1911 43.0896 63.3778 43.191C63.5645 43.287 63.7245 43.4176 63.8578 43.583C63.9965 43.7483 64.1031 43.935 64.1778 44.143C64.2578 44.351 64.2978 44.5616 64.2978 44.775C64.2978 45.0736 64.2391 45.3296 64.1218 45.543C64.0045 45.7563 63.8471 45.919 63.6498 46.031C63.4525 46.143 63.2338 46.199 62.9938 46.199C62.7911 46.199 62.5458 46.1616 62.2578 46.087C61.9698 46.0123 61.6471 45.847 61.2898 45.591L61.6578 44.799C61.9085 44.9643 62.1378 45.0816 62.3458 45.151C62.5591 45.2203 62.7351 45.255 62.8738 45.255C62.9965 45.255 63.0951 45.239 63.1698 45.207C63.2498 45.175 63.3085 45.1296 63.3458 45.071C63.3831 45.007 63.4018 44.9296 63.4018 44.839C63.4018 44.711 63.3698 44.583 63.3058 44.455C63.2471 44.3216 63.1671 44.2096 63.0658 44.119C62.9698 44.0283 62.8605 43.983 62.7378 43.983C62.6311 43.983 62.5378 44.0203 62.4578 44.095C62.3778 44.1643 62.2951 44.2736 62.2098 44.423C62.1298 44.5723 62.0365 44.7616 61.9298 44.991C61.8018 45.2523 61.6791 45.4656 61.5618 45.631C61.4498 45.7963 61.3298 45.9243 61.2018 46.015C61.0791 46.1003 60.9378 46.159 60.7778 46.191C60.6231 46.223 60.4445 46.239 60.2418 46.239ZM65.4062 46.199L65.2382 40.399H66.1822L66.3422 46.199H65.4062ZM68.5403 45.295C68.791 45.295 68.9856 45.271 69.1243 45.223C69.263 45.175 69.359 45.111 69.4123 45.031C69.471 44.9456 69.5003 44.8523 69.5003 44.751C69.5003 44.6336 69.4683 44.495 69.4043 44.335C69.3403 44.1696 69.255 43.9936 69.1483 43.807C69.047 43.6203 68.9376 43.4363 68.8203 43.255C68.703 43.0683 68.5883 42.895 68.4763 42.735L69.2763 42.207C69.495 42.5163 69.6843 42.8176 69.8443 43.111C70.0096 43.4043 70.143 43.679 70.2443 43.935C70.351 44.1856 70.431 44.407 70.4843 44.599C70.5376 44.791 70.6096 44.9376 70.7003 45.039C70.791 45.1403 70.8923 45.2096 71.0043 45.247C71.1163 45.279 71.223 45.295 71.3243 45.295C71.495 45.295 71.6176 45.3403 71.6923 45.431C71.767 45.5163 71.8043 45.623 71.8043 45.751C71.8043 45.8843 71.7563 45.999 71.6603 46.095C71.5643 46.191 71.4283 46.239 71.2523 46.239C71.039 46.239 70.8443 46.207 70.6683 46.143C70.4976 46.079 70.351 45.975 70.2283 45.831C70.1056 45.687 70.0096 45.5003 69.9403 45.271L70.3643 45.239C70.3376 45.4096 70.2576 45.5723 70.1243 45.727C69.9963 45.8816 69.8096 46.007 69.5643 46.103C69.3243 46.199 69.015 46.247 68.6363 46.247C68.4656 46.247 68.2843 46.231 68.0923 46.199C67.9056 46.1723 67.7243 46.1323 67.5483 46.079C67.3776 46.0203 67.223 45.9483 67.0843 45.863L67.4523 45.023C67.6123 45.103 67.7856 45.1696 67.9723 45.223C68.159 45.271 68.3483 45.295 68.5403 45.295ZM71.2496 46.239L71.3296 45.295C71.5483 45.295 71.7296 45.2763 71.8736 45.239C72.0176 45.1963 72.1323 45.119 72.2176 45.007C72.3083 44.8896 72.3829 44.7216 72.4416 44.503C72.5056 44.279 72.5669 43.9856 72.6256 43.623L73.5136 43.775C73.4976 43.8603 73.4789 43.959 73.4576 44.071C73.4363 44.183 73.4176 44.295 73.4016 44.407C73.3856 44.519 73.3776 44.6203 73.3776 44.711C73.3776 44.8016 73.3909 44.8843 73.4176 44.959C73.4443 45.0283 73.4949 45.087 73.5696 45.135C73.6496 45.183 73.7643 45.223 73.9136 45.255C74.0629 45.2816 74.2549 45.295 74.4896 45.295C74.6603 45.295 74.7803 45.3403 74.8496 45.431C74.9243 45.5163 74.9616 45.623 74.9616 45.751C74.9616 45.8843 74.9136 45.999 74.8176 46.095C74.7216 46.191 74.5856 46.239 74.4096 46.239C74.1376 46.239 73.9056 46.2203 73.7136 46.183C73.5216 46.1456 73.3616 46.087 73.2336 46.007C73.1109 45.927 73.0149 45.823 72.9456 45.695C72.8763 45.5616 72.8309 45.4016 72.8096 45.215L73.1376 45.223C73.0469 45.447 72.9349 45.6283 72.8016 45.767C72.6736 45.9003 72.5296 46.0016 72.3696 46.071C72.2096 46.135 72.0336 46.1776 71.8416 46.199C71.6549 46.2256 71.4576 46.239 71.2496 46.239ZM73.6576 42.863C73.5189 42.863 73.3989 42.815 73.2976 42.719C73.2016 42.6176 73.1536 42.5003 73.1536 42.367C73.1536 42.2336 73.2016 42.1163 73.2976 42.015C73.3989 41.9136 73.5189 41.863 73.6576 41.863C73.7909 41.863 73.9029 41.9136 73.9936 42.015C74.0896 42.1163 74.1376 42.2336 74.1376 42.367C74.1376 42.5003 74.0896 42.6176 73.9936 42.719C73.9029 42.815 73.7909 42.863 73.6576 42.863ZM72.3776 42.855C72.2389 42.855 72.1216 42.807 72.0256 42.711C71.9296 42.615 71.8816 42.5003 71.8816 42.367C71.8816 42.2283 71.9296 42.111 72.0256 42.015C72.1216 41.9136 72.2389 41.863 72.3776 41.863C72.5109 41.863 72.6256 41.9136 72.7216 42.015C72.8176 42.111 72.8656 42.2283 72.8656 42.367C72.8656 42.5003 72.8176 42.615 72.7216 42.711C72.6256 42.807 72.5109 42.855 72.3776 42.855ZM74.4058 46.239L74.4859 45.295C74.6619 45.295 74.8032 45.2816 74.9099 45.255C75.0219 45.2283 75.1125 45.1643 75.1819 45.063C75.2565 44.9563 75.3232 44.799 75.3819 44.591C75.4405 44.3776 75.5072 44.0843 75.5818 43.711L76.4539 43.895C76.4325 44.0176 76.4032 44.1696 76.3659 44.351C76.3285 44.5323 76.3099 44.6923 76.3099 44.831C76.3099 44.927 76.3285 45.0096 76.3659 45.079C76.4085 45.1483 76.4805 45.2016 76.5819 45.239C76.6832 45.2763 76.8219 45.295 76.9979 45.295C77.1419 45.295 77.2645 45.2816 77.3659 45.255C77.4672 45.223 77.5525 45.1563 77.6219 45.055C77.6912 44.9536 77.7525 44.791 77.8059 44.567C77.8592 44.343 77.9152 44.039 77.9739 43.655L78.8619 43.807C78.8405 43.919 78.8192 44.0443 78.7979 44.183C78.7765 44.3216 78.7579 44.455 78.7419 44.583C78.7259 44.7056 78.7179 44.807 78.7179 44.887C78.7179 44.9563 78.7365 45.023 78.7739 45.087C78.8112 45.151 78.8832 45.2016 78.9899 45.239C79.0965 45.2763 79.2512 45.295 79.4539 45.295C79.7045 45.295 79.8885 45.2416 80.0059 45.135C80.1232 45.0283 80.1819 44.8656 80.1819 44.647C80.1819 44.5243 80.1792 44.3936 80.1739 44.255C80.1685 44.111 80.1579 43.9536 80.1419 43.783C80.1312 43.607 80.1099 43.407 80.0779 43.183L80.9419 43.119C80.9739 43.567 81.0112 43.9323 81.0539 44.215C81.1019 44.4976 81.1659 44.719 81.2459 44.879C81.3312 45.0336 81.4405 45.143 81.5739 45.207C81.7125 45.2656 81.8965 45.295 82.1259 45.295C82.2912 45.295 82.4112 45.3403 82.4858 45.431C82.5605 45.5163 82.5979 45.623 82.5979 45.751C82.5979 45.8843 82.5499 45.999 82.4539 46.095C82.3579 46.191 82.2219 46.239 82.0459 46.239C81.8859 46.239 81.7312 46.223 81.5819 46.191C81.4325 46.1536 81.2939 46.0976 81.1659 46.023C81.0379 45.943 80.9259 45.839 80.8299 45.711C80.7339 45.5776 80.6619 45.4176 80.6139 45.231L80.7579 45.279C80.6885 45.535 80.5899 45.7323 80.4619 45.871C80.3339 46.0096 80.1792 46.1056 79.9979 46.159C79.8165 46.2123 79.6085 46.239 79.3739 46.239C79.1392 46.239 78.9339 46.2096 78.7579 46.151C78.5872 46.087 78.4512 45.9883 78.3499 45.855C78.2539 45.7163 78.1979 45.5323 78.1819 45.303H78.4539C78.3525 45.575 78.2352 45.7776 78.1019 45.911C77.9739 46.0443 77.8165 46.1323 77.6299 46.175C77.4485 46.2176 77.2139 46.239 76.9259 46.239C76.7605 46.239 76.5952 46.2203 76.4299 46.183C76.2645 46.1403 76.1152 46.0496 75.9819 45.911C75.8539 45.7723 75.7659 45.5563 75.7179 45.263L76.0779 45.231C75.9765 45.5296 75.8459 45.751 75.6859 45.895C75.5259 46.0336 75.3392 46.127 75.1259 46.175C74.9125 46.2176 74.6725 46.239 74.4058 46.239ZM82.0459 46.239L82.1259 45.295C82.2645 45.295 82.3718 45.2656 82.4465 45.207C82.5265 45.1483 82.6038 45.0496 82.6785 44.911C82.7531 44.7723 82.8518 44.5856 82.9745 44.351C83.1078 44.095 83.2438 43.8816 83.3825 43.711C83.5211 43.5403 83.6598 43.407 83.7985 43.311C83.9371 43.2096 84.0731 43.1376 84.2065 43.095C84.3398 43.0523 84.4678 43.031 84.5905 43.031C84.7825 43.031 84.9585 43.071 85.1185 43.151C85.2785 43.231 85.4305 43.3696 85.5745 43.567C85.7238 43.759 85.8678 44.023 86.0065 44.359C86.1131 44.6203 86.2171 44.8176 86.3185 44.951C86.4198 45.0843 86.5238 45.175 86.6305 45.223C86.7425 45.271 86.8598 45.295 86.9825 45.295C87.1478 45.295 87.2651 45.3403 87.3345 45.431C87.4091 45.5163 87.4465 45.623 87.4465 45.751C87.4465 45.8843 87.3985 45.999 87.3025 46.095C87.2065 46.191 87.0731 46.239 86.9025 46.239C86.6571 46.239 86.4358 46.199 86.2385 46.119C86.0411 46.039 85.8811 45.919 85.7585 45.759L85.9505 45.583C85.8971 45.7163 85.8225 45.8416 85.7265 45.959C85.6305 46.071 85.5131 46.1616 85.3745 46.231C85.2411 46.3056 85.0838 46.343 84.9025 46.343C84.7531 46.343 84.5878 46.3136 84.4065 46.255C84.2251 46.1963 84.0438 46.103 83.8625 45.975C83.6811 45.847 83.5158 45.6843 83.3665 45.487C83.2545 45.695 83.1345 45.855 83.0065 45.967C82.8838 46.0736 82.7451 46.1456 82.5905 46.183C82.4411 46.2203 82.2592 46.239 82.0459 46.239ZM83.7745 44.671C83.8385 44.7776 83.9131 44.8763 83.9985 44.967C84.0891 45.0576 84.1825 45.1376 84.2785 45.207C84.3745 45.271 84.4731 45.3216 84.5745 45.359C84.6811 45.391 84.7825 45.407 84.8785 45.407C85.0118 45.407 85.1158 45.3563 85.1905 45.255C85.2705 45.1536 85.2731 45.007 85.1985 44.815C85.1611 44.7243 85.1185 44.631 85.0705 44.535C85.0225 44.4336 84.9691 44.3403 84.9105 44.255C84.8571 44.1643 84.7958 44.0923 84.7265 44.039C84.6571 43.9856 84.5825 43.959 84.5025 43.959C84.4331 43.959 84.3585 43.983 84.2785 44.031C84.1985 44.0736 84.1158 44.1483 84.0305 44.255C83.9451 44.3563 83.8598 44.495 83.7745 44.671ZM86.9058 46.239L86.9859 45.295C87.2525 45.295 87.4419 45.2683 87.5539 45.215C87.6659 45.1616 87.7325 45.063 87.7539 44.919C87.7752 44.775 87.7805 44.567 87.7699 44.295L87.6179 40.399H88.5699L88.7299 44.319C88.7405 44.6176 88.7272 44.887 88.6899 45.127C88.6579 45.3616 88.5805 45.5616 88.4579 45.727C88.3352 45.8923 88.1485 46.0203 87.8979 46.111C87.6525 46.1963 87.3219 46.239 86.9058 46.239ZM89.8515 46.199L89.6835 40.399H90.6275L90.7875 46.199H89.8515ZM96.6237 46.367L96.8317 45.423C97.3864 45.423 97.8691 45.407 98.2797 45.375C98.6904 45.343 99.0291 45.295 99.2957 45.231C99.5624 45.167 99.7597 45.0816 99.8877 44.975C100.021 44.863 100.088 44.727 100.088 44.567C100.088 44.3696 100.053 44.1376 99.9837 43.871C99.9197 43.6043 99.8344 43.327 99.7277 43.039L100.608 42.767C100.677 42.943 100.744 43.135 100.808 43.343C100.872 43.551 100.923 43.759 100.96 43.967C101.003 44.1696 101.024 44.359 101.024 44.535C101.024 44.8603 100.952 45.1403 100.808 45.375C100.664 45.6043 100.424 45.7936 100.088 45.943C99.7571 46.087 99.3091 46.1936 98.7437 46.263C98.1784 46.3323 97.4717 46.367 96.6237 46.367ZM96.6157 46.367C96.0771 46.367 95.6157 46.327 95.2317 46.247C94.8531 46.1723 94.5411 46.0603 94.2957 45.911C94.0504 45.7616 93.8691 45.5803 93.7517 45.367C93.6344 45.1536 93.5757 44.9083 93.5757 44.631C93.5757 44.4763 93.5891 44.319 93.6157 44.159C93.6424 43.9936 93.6771 43.8336 93.7197 43.679C93.7624 43.519 93.8024 43.3723 93.8397 43.239L94.6877 43.447C94.6664 43.5376 94.6424 43.639 94.6157 43.751C94.5891 43.8576 94.5651 43.9643 94.5437 44.071C94.5277 44.1776 94.5197 44.2763 94.5197 44.367C94.5197 44.591 94.5891 44.783 94.7277 44.943C94.8717 45.103 95.1117 45.223 95.4477 45.303C95.7837 45.383 96.2424 45.423 96.8237 45.423L96.9837 46.111L96.6157 46.367ZM97.9437 42.815C97.8051 42.815 97.6877 42.767 97.5917 42.671C97.4957 42.5696 97.4477 42.4523 97.4477 42.319C97.4477 42.1856 97.4957 42.0683 97.5917 41.967C97.6877 41.8656 97.8051 41.815 97.9437 41.815C98.0771 41.815 98.1917 41.8656 98.2877 41.967C98.3837 42.0683 98.4317 42.1856 98.4317 42.319C98.4317 42.4523 98.3837 42.5696 98.2877 42.671C98.1917 42.767 98.0771 42.815 97.9437 42.815ZM96.6717 42.807C96.5331 42.807 96.4131 42.759 96.3117 42.663C96.2157 42.567 96.1677 42.4523 96.1677 42.319C96.1677 42.1856 96.2157 42.0683 96.3117 41.967C96.4077 41.8656 96.5277 41.815 96.6717 41.815C96.8051 41.815 96.9197 41.8656 97.0157 41.967C97.1117 42.0683 97.1597 42.1856 97.1597 42.319C97.1597 42.4523 97.1117 42.567 97.0157 42.663C96.9197 42.759 96.8051 42.807 96.6717 42.807ZM102.102 46.199L101.934 40.399H102.878L103.038 46.199H102.102ZM103.385 48.039L103.049 47.175C103.534 47.0096 103.921 46.8203 104.209 46.607C104.497 46.399 104.702 46.1803 104.825 45.951C104.953 45.7163 105.017 45.4816 105.017 45.247C105.017 45.0976 104.998 44.9483 104.961 44.799C104.924 44.6443 104.865 44.4763 104.785 44.295C104.71 44.1136 104.612 43.9136 104.489 43.695L105.361 43.271C105.553 43.623 105.697 43.959 105.793 44.279C105.894 44.599 105.945 44.8896 105.945 45.151C105.945 45.439 105.902 45.711 105.817 45.967C105.737 46.2176 105.62 46.447 105.465 46.655C105.316 46.8683 105.134 47.0603 104.921 47.231C104.708 47.407 104.47 47.5616 104.209 47.695C103.953 47.8283 103.678 47.943 103.385 48.039ZM108.894 46.239C108.424 46.239 108.062 46.191 107.806 46.095C107.555 45.9936 107.379 45.839 107.278 45.631C107.182 45.4176 107.128 45.1456 107.118 44.815L106.95 40.399H107.894L108.062 44.391C108.072 44.6416 108.096 44.831 108.134 44.959C108.176 45.087 108.262 45.175 108.39 45.223C108.518 45.271 108.712 45.295 108.974 45.295C109.144 45.295 109.267 45.3403 109.342 45.431C109.416 45.5163 109.454 45.623 109.454 45.751C109.454 45.8843 109.403 45.999 109.302 46.095C109.206 46.191 109.07 46.239 108.894 46.239ZM108.898 46.239L108.978 45.295H109.906C110.189 45.295 110.402 45.279 110.546 45.247C110.69 45.215 110.786 45.1696 110.834 45.111C110.882 45.0523 110.906 44.9883 110.906 44.919C110.906 44.807 110.861 44.6843 110.77 44.551C110.685 44.4123 110.573 44.2683 110.434 44.119C110.296 43.9696 110.149 43.823 109.994 43.679C109.845 43.5296 109.701 43.391 109.562 43.263C109.424 43.135 109.309 43.023 109.218 42.927C109.133 42.831 109.09 42.7616 109.09 42.719C109.09 42.5963 109.098 42.495 109.114 42.415C109.13 42.3296 109.152 42.2603 109.178 42.207C109.205 42.1483 109.237 42.1003 109.274 42.063C109.37 41.9616 109.509 41.8523 109.69 41.735C109.877 41.6176 110.093 41.495 110.338 41.367C110.589 41.2336 110.861 41.095 111.154 40.951C111.453 40.807 111.765 40.6603 112.09 40.511L112.474 41.343C112.16 41.487 111.866 41.623 111.594 41.751C111.328 41.879 111.082 42.0016 110.858 42.119C110.634 42.231 110.429 42.3403 110.242 42.447C110.061 42.5536 109.896 42.6576 109.746 42.759L109.818 42.287C110.053 42.4843 110.266 42.6736 110.458 42.855C110.656 43.0363 110.84 43.2203 111.01 43.407C111.186 43.5883 111.349 43.7803 111.498 43.983C111.648 44.1803 111.792 44.399 111.93 44.639C112.048 44.831 112.173 44.975 112.306 45.071C112.44 45.1616 112.57 45.223 112.698 45.255C112.832 45.2816 112.944 45.295 113.034 45.295C113.205 45.295 113.328 45.3403 113.402 45.431C113.477 45.5163 113.514 45.623 113.514 45.751C113.514 45.8843 113.464 45.999 113.362 46.095C113.266 46.191 113.13 46.239 112.954 46.239C112.794 46.239 112.613 46.2123 112.41 46.159C112.213 46.1003 112.024 46.0043 111.842 45.871C111.661 45.7323 111.52 45.5376 111.418 45.287L111.778 45.343C111.698 45.503 111.605 45.6416 111.498 45.759C111.392 45.871 111.261 45.9643 111.106 46.039C110.952 46.1083 110.77 46.159 110.562 46.191C110.36 46.223 110.122 46.239 109.85 46.239H108.898ZM112.961 46.239L113.041 45.295C113.26 45.295 113.441 45.2763 113.585 45.239C113.729 45.1963 113.844 45.119 113.929 45.007C114.02 44.8896 114.094 44.7216 114.153 44.503C114.217 44.279 114.278 43.9856 114.337 43.623L115.225 43.775C115.209 43.8603 115.19 43.959 115.169 44.071C115.148 44.183 115.129 44.295 115.113 44.407C115.097 44.519 115.089 44.6203 115.089 44.711C115.089 44.8016 115.102 44.8843 115.129 44.959C115.156 45.0283 115.206 45.087 115.281 45.135C115.361 45.183 115.476 45.223 115.625 45.255C115.774 45.2816 115.966 45.295 116.201 45.295C116.372 45.295 116.492 45.3403 116.561 45.431C116.636 45.5163 116.673 45.623 116.673 45.751C116.673 45.8843 116.625 45.999 116.529 46.095C116.433 46.191 116.297 46.239 116.121 46.239C115.849 46.239 115.617 46.2203 115.425 46.183C115.233 46.1456 115.073 46.087 114.945 46.007C114.822 45.927 114.726 45.823 114.657 45.695C114.588 45.5616 114.542 45.4016 114.521 45.215L114.849 45.223C114.758 45.447 114.646 45.6283 114.513 45.767C114.385 45.9003 114.241 46.0016 114.081 46.071C113.921 46.135 113.745 46.1776 113.553 46.199C113.366 46.2256 113.169 46.239 112.961 46.239ZM115.369 42.863C115.23 42.863 115.11 42.815 115.009 42.719C114.913 42.6176 114.865 42.5003 114.865 42.367C114.865 42.2336 114.913 42.1163 115.009 42.015C115.11 41.9136 115.23 41.863 115.369 41.863C115.502 41.863 115.614 41.9136 115.705 42.015C115.801 42.1163 115.849 42.2336 115.849 42.367C115.849 42.5003 115.801 42.6176 115.705 42.719C115.614 42.815 115.502 42.863 115.369 42.863ZM114.089 42.855C113.95 42.855 113.833 42.807 113.737 42.711C113.641 42.615 113.593 42.5003 113.593 42.367C113.593 42.2283 113.641 42.111 113.737 42.015C113.833 41.9136 113.95 41.863 114.089 41.863C114.222 41.863 114.337 41.9136 114.433 42.015C114.529 42.111 114.577 42.2283 114.577 42.367C114.577 42.5003 114.529 42.615 114.433 42.711C114.337 42.807 114.222 42.855 114.089 42.855ZM116.117 46.239L116.197 45.295C116.443 45.295 116.637 45.279 116.781 45.247C116.925 45.215 117.027 45.1536 117.085 45.063C117.149 44.967 117.181 44.831 117.181 44.655C117.181 44.511 117.16 44.3403 117.117 44.143C117.08 43.9456 117.027 43.7376 116.957 43.519C116.893 43.3003 116.827 43.095 116.757 42.903L117.685 42.623C117.755 42.799 117.819 43.0043 117.877 43.239C117.941 43.4683 117.995 43.703 118.037 43.943C118.085 44.1776 118.109 44.399 118.109 44.607C118.109 44.8683 118.077 45.0923 118.013 45.279C117.949 45.4656 117.859 45.623 117.741 45.751C117.629 45.8736 117.491 45.9723 117.325 46.047C117.16 46.1163 116.976 46.167 116.773 46.199C116.571 46.2256 116.352 46.239 116.117 46.239ZM117.053 47.943C116.915 47.943 116.797 47.895 116.701 47.799C116.605 47.703 116.557 47.5883 116.557 47.455C116.557 47.3163 116.605 47.1963 116.701 47.095C116.797 46.9936 116.915 46.943 117.053 46.943C117.192 46.943 117.309 46.9936 117.405 47.095C117.507 47.1963 117.557 47.3163 117.557 47.455C117.557 47.5883 117.507 47.703 117.405 47.799C117.309 47.895 117.192 47.943 117.053 47.943ZM121.66 41.911C121.66 41.7563 121.649 41.5936 121.628 41.423C121.612 41.2523 121.59 41.087 121.564 40.927C121.542 40.767 121.521 40.6283 121.5 40.511L122.452 40.375C122.473 40.4816 122.494 40.623 122.516 40.799C122.537 40.975 122.553 41.1563 122.564 41.343C122.58 41.5296 122.588 41.6976 122.588 41.847C122.588 42.1136 122.566 42.3696 122.524 42.615C122.481 42.8603 122.414 43.095 122.324 43.319C122.238 43.5376 122.126 43.751 121.988 43.959L121.868 44.143C121.724 44.3456 121.553 44.543 121.356 44.735C121.158 44.9216 120.937 45.103 120.692 45.279H121.396C121.577 45.279 121.716 45.2656 121.812 45.239C121.908 45.207 121.972 45.1643 122.004 45.111C122.041 45.0576 122.06 44.9963 122.06 44.927C122.06 44.815 121.974 44.6603 121.804 44.463C121.633 44.2603 121.398 44.0336 121.1 43.783C120.806 43.527 120.465 43.2576 120.076 42.975C119.686 42.687 119.27 42.399 118.828 42.111L119.332 41.375C119.908 41.7536 120.401 42.1003 120.812 42.415C121.228 42.7296 121.574 43.015 121.852 43.271C122.129 43.527 122.348 43.7616 122.508 43.975C122.668 44.1883 122.782 44.3856 122.852 44.567C122.921 44.743 122.956 44.9083 122.956 45.063C122.956 45.2016 122.932 45.3403 122.884 45.479C122.841 45.6123 122.766 45.735 122.66 45.847C122.558 45.9536 122.42 46.039 122.244 46.103C122.073 46.167 121.854 46.199 121.588 46.199H119.436V45.287C119.985 44.8923 120.42 44.5163 120.74 44.159C121.065 43.7963 121.3 43.4336 121.444 43.071C121.588 42.703 121.66 42.3163 121.66 41.911ZM124.094 46.199L123.926 40.399H124.87L125.03 46.199H124.094ZM131.81 46.239C131.464 46.239 131.162 46.1936 130.906 46.103C130.656 46.007 130.458 45.8523 130.314 45.639C130.17 45.4256 130.09 45.135 130.074 44.767L129.93 41.711H130.882L131.01 44.471C131.026 44.7003 131.066 44.8763 131.13 44.999C131.2 45.1163 131.296 45.1963 131.418 45.239C131.541 45.2763 131.698 45.295 131.89 45.295C132.056 45.295 132.173 45.3403 132.242 45.431C132.317 45.5163 132.354 45.623 132.354 45.751C132.354 45.8843 132.306 45.999 132.21 46.095C132.114 46.191 131.981 46.239 131.81 46.239ZM130.442 45.447C130.101 45.5323 129.773 45.5723 129.458 45.567C129.144 45.5616 128.861 45.5083 128.61 45.407C128.36 45.3056 128.16 45.1616 128.01 44.975C127.866 44.783 127.794 44.543 127.794 44.255C127.794 43.9936 127.856 43.7536 127.978 43.535C128.101 43.3163 128.269 43.1243 128.482 42.959C128.701 42.7883 128.954 42.647 129.242 42.535C129.53 42.4176 129.842 42.3323 130.178 42.279L130.29 43.239C130.045 43.2496 129.826 43.2816 129.634 43.335C129.442 43.3883 129.28 43.4603 129.146 43.551C129.013 43.6363 128.909 43.7296 128.834 43.831C128.765 43.9323 128.73 44.039 128.73 44.151C128.73 44.2523 128.765 44.335 128.834 44.399C128.909 44.463 129.005 44.5136 129.122 44.551C129.24 44.5883 129.37 44.6096 129.514 44.615C129.664 44.6203 129.81 44.615 129.954 44.599C130.104 44.5776 130.245 44.543 130.378 44.495L130.442 45.447ZM130.386 40.855C130.248 40.855 130.13 40.807 130.034 40.711C129.938 40.6096 129.89 40.4923 129.89 40.359C129.89 40.2256 129.938 40.1083 130.034 40.007C130.13 39.9056 130.248 39.855 130.386 39.855C130.52 39.855 130.634 39.9056 130.73 40.007C130.826 40.1083 130.874 40.2256 130.874 40.359C130.874 40.4923 130.826 40.6096 130.73 40.711C130.634 40.807 130.52 40.855 130.386 40.855ZM129.114 40.847C128.976 40.847 128.856 40.799 128.754 40.703C128.658 40.607 128.61 40.4923 128.61 40.359C128.61 40.2256 128.658 40.1083 128.754 40.007C128.85 39.9056 128.97 39.855 129.114 39.855C129.248 39.855 129.362 39.9056 129.458 40.007C129.554 40.1083 129.602 40.2256 129.602 40.359C129.602 40.4923 129.554 40.607 129.458 40.703C129.362 40.799 129.248 40.847 129.114 40.847ZM131.812 46.239L131.893 45.295H132.893C133.079 45.295 133.234 45.2843 133.357 45.263C133.479 45.2416 133.573 45.2096 133.637 45.167C133.706 45.1243 133.754 45.0763 133.781 45.023C133.813 44.9696 133.829 44.9083 133.829 44.839C133.829 44.7536 133.789 44.6336 133.709 44.479C133.634 44.3243 133.474 44.1296 133.229 43.895C133.101 43.7723 132.965 43.6496 132.821 43.527C132.682 43.4043 132.551 43.2896 132.429 43.183C132.306 43.0763 132.205 42.9856 132.125 42.911C132.045 42.831 132.005 42.7723 132.005 42.735C132.005 42.655 132.01 42.5723 132.021 42.487C132.037 42.3963 132.055 42.3136 132.076 42.239C132.103 42.1643 132.135 42.1083 132.173 42.071C132.269 41.975 132.405 41.871 132.581 41.759C132.757 41.6416 132.965 41.519 133.205 41.391C133.445 41.2576 133.717 41.119 134.021 40.975C134.325 40.8256 134.653 40.671 135.005 40.511L135.389 41.343C135.042 41.4976 134.733 41.639 134.461 41.767C134.194 41.895 133.951 42.015 133.733 42.127C133.519 42.239 133.325 42.3483 133.149 42.455C132.978 42.5563 132.818 42.663 132.669 42.775L132.781 42.295C133.191 42.6096 133.527 42.8976 133.789 43.159C134.055 43.4203 134.263 43.6603 134.413 43.879C134.562 44.0923 134.666 44.2896 134.725 44.471C134.789 44.6523 134.821 44.8256 134.821 44.991C134.821 45.1136 134.794 45.247 134.741 45.391C134.687 45.535 134.583 45.671 134.429 45.799C134.279 45.927 134.063 46.0336 133.781 46.119C133.503 46.199 133.138 46.239 132.685 46.239H131.812ZM135.088 48.047L134.752 47.199C135.072 47.0923 135.355 46.967 135.6 46.823C135.845 46.6843 136.051 46.5296 136.216 46.359C136.387 46.1936 136.512 46.0176 136.592 45.831C136.677 45.6443 136.72 45.4496 136.72 45.247C136.72 45.0123 136.667 44.7616 136.56 44.495C136.459 44.223 136.336 43.9563 136.192 43.695L137.064 43.271C137.16 43.4416 137.245 43.6203 137.32 43.807C137.395 43.9936 137.459 44.1643 137.512 44.319C137.565 44.4683 137.605 44.5856 137.632 44.671C137.707 44.9163 137.805 45.0816 137.928 45.167C138.056 45.2523 138.251 45.295 138.512 45.295C138.683 45.295 138.803 45.3403 138.872 45.431C138.947 45.5163 138.984 45.623 138.984 45.751C138.984 45.8843 138.936 45.999 138.84 46.095C138.744 46.191 138.608 46.239 138.432 46.239C138.208 46.239 138.016 46.2043 137.856 46.135C137.701 46.0603 137.579 45.959 137.488 45.831C137.397 45.703 137.339 45.5616 137.312 45.407L137.592 45.559C137.571 45.8683 137.483 46.1563 137.328 46.423C137.179 46.695 136.981 46.9376 136.736 47.151C136.496 47.3643 136.232 47.5456 135.944 47.695C135.656 47.8496 135.371 47.967 135.088 48.047ZM138.438 46.239L138.518 45.295C138.694 45.295 138.835 45.2816 138.942 45.255C139.054 45.2283 139.144 45.1643 139.214 45.063C139.288 44.9563 139.355 44.799 139.414 44.591C139.472 44.3776 139.539 44.0843 139.613 43.711L140.486 43.895C140.47 43.9803 140.448 44.079 140.422 44.191C140.4 44.2976 140.382 44.4096 140.366 44.527C140.35 44.639 140.342 44.7403 140.342 44.831C140.342 44.975 140.39 45.0896 140.486 45.175C140.582 45.255 140.763 45.295 141.03 45.295C141.174 45.295 141.296 45.2816 141.398 45.255C141.499 45.223 141.584 45.1563 141.654 45.055C141.723 44.9536 141.784 44.791 141.838 44.567C141.891 44.343 141.947 44.039 142.006 43.655L142.894 43.807C142.872 43.919 142.851 44.0443 142.83 44.183C142.808 44.3216 142.79 44.455 142.774 44.583C142.758 44.7056 142.75 44.807 142.75 44.887C142.75 44.9563 142.768 45.023 142.806 45.087C142.843 45.151 142.915 45.2016 143.022 45.239C143.128 45.2763 143.286 45.295 143.494 45.295C143.638 45.295 143.763 45.2763 143.87 45.239C143.982 45.2016 144.067 45.1376 144.126 45.047C144.184 44.9563 144.214 44.8336 144.214 44.679C144.214 44.4763 144.166 44.2176 144.07 43.903C143.979 43.5883 143.875 43.263 143.758 42.927L144.702 42.631C144.782 42.839 144.854 43.0656 144.918 43.311C144.982 43.551 145.032 43.7883 145.07 44.023C145.112 44.2523 145.134 44.455 145.134 44.631C145.134 44.8923 145.094 45.1243 145.014 45.327C144.939 45.5243 144.832 45.6923 144.694 45.831C144.555 45.9643 144.387 46.0656 144.19 46.135C143.992 46.2043 143.774 46.239 143.534 46.239C143.246 46.239 143.008 46.2096 142.822 46.151C142.64 46.087 142.502 45.9883 142.406 45.855C142.31 45.7163 142.246 45.5323 142.214 45.303H142.486C142.379 45.5856 142.262 45.7936 142.134 45.927C142.006 46.0603 141.851 46.1456 141.67 46.183C141.488 46.2203 141.259 46.239 140.982 46.239C140.822 46.239 140.654 46.2203 140.478 46.183C140.307 46.1403 140.155 46.0496 140.022 45.911C139.894 45.767 139.803 45.551 139.75 45.263L140.11 45.231C140.008 45.5296 139.878 45.751 139.718 45.895C139.558 46.0336 139.371 46.127 139.158 46.175C138.944 46.2176 138.704 46.239 138.438 46.239ZM142.342 41.495C142.219 41.495 142.112 41.4496 142.022 41.359C141.931 41.263 141.886 41.1536 141.886 41.031C141.886 40.903 141.931 40.7936 142.022 40.703C142.112 40.6123 142.219 40.567 142.342 40.567C142.47 40.567 142.576 40.6123 142.661 40.703C142.752 40.7936 142.798 40.903 142.798 41.031C142.798 41.1536 142.752 41.263 142.661 41.359C142.576 41.4496 142.47 41.495 142.342 41.495ZM141.742 42.487C141.614 42.487 141.504 42.4416 141.414 42.351C141.323 42.255 141.278 42.143 141.278 42.015C141.278 41.8923 141.323 41.7856 141.414 41.695C141.504 41.6043 141.614 41.559 141.742 41.559C141.864 41.559 141.971 41.6043 142.062 41.695C142.152 41.7856 142.198 41.8923 142.198 42.015C142.198 42.143 142.152 42.255 142.062 42.351C141.971 42.4416 141.864 42.487 141.742 42.487ZM142.918 42.487C142.795 42.487 142.688 42.4416 142.598 42.351C142.507 42.255 142.462 42.143 142.462 42.015C142.462 41.8923 142.507 41.7856 142.598 41.695C142.688 41.6043 142.795 41.559 142.918 41.559C143.046 41.559 143.155 41.6043 143.246 41.695C143.336 41.7856 143.382 41.8923 143.382 42.015C143.382 42.143 143.336 42.255 143.246 42.351C143.155 42.4416 143.046 42.487 142.918 42.487Z" fill="white"/>
</svg>
