<svg width="491" height="149" viewBox="0 0 491 149" fill="none" xmlns="http://www.w3.org/2000/svg">
<path d="M10.835 80.8008C15.1114 103.146 31.4807 121.197 52.8701 127.882L49.6533 138.404C24.3505 130.524 4.99528 109.156 0 82.7109L10.835 80.8008Z" fill="#555CE3"/>
<path d="M93.0127 0C118.511 8.01919 137.933 29.7475 142.64 56.5449L131.806 58.4551C127.817 35.7565 111.381 17.3464 89.7959 10.5225L93.0127 0Z" fill="#555CE3"/>
<path d="M30.4561 77.3408C33.2947 92.3423 44.3036 104.452 58.6826 108.869L56.0498 117.479C38.4693 112.084 25.0153 97.2591 21.5889 78.9043L30.4561 77.3408Z" fill="#555CE3"/>
<path d="M86.249 22.124C103.461 27.7355 116.567 42.4336 119.906 60.5527L111.039 62.1162C108.288 47.3505 97.6258 35.37 83.6152 30.7383L86.249 22.124Z" fill="#555CE3"/>
<path d="M49.8006 44.1643C63.5825 32.8411 83.9595 34.515 95.6961 48.0832L96.2449 48.7356C107.568 62.5175 105.894 82.8936 92.326 94.6301L91.6746 95.1789C78.1114 106.323 58.1612 104.879 46.3446 91.8977L45.7791 91.261C33.8562 77.4768 35.365 56.636 49.1492 44.7131L49.8006 44.1643ZM54.4266 62.1819L51.7606 62.1809V71.4934L49.7615 71.4944H42.7977C43.1769 77.3765 45.407 83.1877 49.5604 87.9895C59.6767 99.6848 77.3589 100.965 89.0545 90.8489C95.1486 85.5776 98.413 78.2516 98.7127 70.7893C98.1255 71.2014 97.3324 71.6084 96.4129 71.6086C95.1919 71.6087 94.4526 70.7732 94.1395 70.3459C93.7774 69.8517 93.5061 69.2537 93.2957 68.7141C92.8689 67.6189 92.4891 66.2042 92.1492 64.9446C92.0514 64.5818 91.9552 64.2301 91.8621 63.8938C91.5822 65.0671 91.3032 66.4416 91.0321 67.9094C90.2504 72.1403 89.5047 77.334 89.036 79.4661C88.5516 81.6688 87.8155 84.1682 86.9256 86.1594C86.4854 87.1444 85.9631 88.1067 85.3504 88.8557C84.8006 89.5278 83.819 90.466 82.4168 90.4661C81.3616 90.4661 80.622 89.8341 80.2596 89.468C79.8397 89.0438 79.4806 88.5176 79.1815 88.0139C78.5749 86.9925 78.0039 85.6968 77.5252 84.4875C77.0395 83.2607 76.6169 82.0433 76.3182 81.1379C76.1684 80.6838 76.0487 80.3043 75.9657 80.0373C75.9242 79.904 75.8922 79.798 75.8699 79.7248C75.8589 79.6885 75.8495 79.6596 75.8436 79.6399C75.8408 79.6305 75.8383 79.6228 75.8367 79.6174C75.836 79.6149 75.8353 79.6122 75.8348 79.6106L75.8338 79.6086V79.6067L75.827 79.5862C75.8222 79.5703 75.8163 79.5444 75.8065 79.512C75.7868 79.4471 75.7561 79.3505 75.7176 79.2268C75.6403 78.9782 75.5272 78.6201 75.3856 78.1907C75.1012 77.3283 74.7067 76.1887 74.2596 75.0588C73.8744 74.0856 73.4704 73.1747 73.0867 72.4651C72.7029 73.1748 72.2993 74.0864 71.9139 75.0598C71.4667 76.1895 71.0714 77.3284 70.7869 78.1907C70.6452 78.6203 70.5323 78.9792 70.4549 79.2278C70.4164 79.3515 70.3867 79.4481 70.367 79.5129C70.3572 79.5453 70.3493 79.5703 70.3446 79.5862C70.3423 79.5935 70.3407 79.5992 70.3397 79.6028C70.3392 79.6042 70.3389 79.6059 70.3387 79.6067L69.9139 81.0383H57.0907L57.0916 79.0383L57.0907 69.4934V62.1809L54.4266 62.1819ZM91.9149 51.3547C81.7985 39.6592 64.1154 38.3791 52.4198 48.4954C46.6149 53.5165 43.3763 60.4017 42.8231 67.4934H47.7606V60.1819L47.7615 58.1819H59.0916L61.0916 58.1809L61.0907 60.1809V77.0373L66.9559 77.0383C66.9666 77.0056 66.978 76.9723 66.9891 76.9387C67.2878 76.0332 67.7093 74.8143 68.1951 73.5872C68.6738 72.378 69.2449 71.0832 69.8514 70.0618C70.1505 69.558 70.5096 69.032 70.9295 68.6077C71.2917 68.2417 72.0321 67.6096 73.0877 67.6096L73.2821 67.6164C74.2342 67.6875 74.9055 68.2646 75.2449 68.6077C75.6648 69.032 76.024 69.558 76.3231 70.0618C76.9294 71.0832 77.4998 72.3789 77.9783 73.5881C78.4639 74.8152 78.8858 76.0333 79.1844 76.9387C79.3342 77.3929 79.4549 77.7723 79.5379 78.0393C79.5793 78.1724 79.6115 78.2778 79.6336 78.3508C79.6446 78.3871 79.6531 78.416 79.659 78.4358C79.662 78.4456 79.6652 78.4538 79.6668 78.4592C79.6676 78.4618 79.6683 78.4645 79.6688 78.4661V78.468C79.669 78.4686 79.6692 78.4711 79.6698 78.4729C79.6708 78.4764 79.6725 78.4822 79.6746 78.4895C79.6794 78.5053 79.6873 78.5304 79.6971 78.5627C79.7168 78.6277 79.7464 78.7257 79.785 78.8498C79.8623 79.0983 79.9765 79.455 80.118 79.884C80.4025 80.7463 80.7967 81.8861 81.244 83.0159C81.6798 84.1168 82.1395 85.1381 82.5672 85.8782C82.7845 85.5338 83.0253 85.0837 83.2742 84.5266C84.0171 82.8644 84.6802 80.6474 85.1287 78.6077C85.593 76.4963 86.2473 71.7903 87.0985 67.1829C87.5086 64.9628 87.9614 62.7982 88.4451 61.1663C88.6827 60.3648 88.9575 59.5866 89.285 58.9729C89.4462 58.6709 89.6742 58.3053 89.993 57.9905C90.3044 57.6829 90.8978 57.2376 91.7479 57.2375L91.9715 57.2463C93.0599 57.3399 93.727 58.1008 94.0203 58.5012C94.3823 58.9954 94.6547 59.5925 94.8651 60.1321C95.292 61.2274 95.6707 62.6429 96.0106 63.9026C96.3425 65.1328 96.6419 66.2303 96.9461 67.0598C97.2421 66.7698 97.5604 66.4096 97.8768 66.01C98.0613 65.7769 98.2353 65.5406 98.3973 65.3157C97.6147 60.315 95.47 55.465 91.9149 51.3547Z" fill="#555CE3"/>
<path d="M207.426 62.4986C207.199 60.4815 206.261 58.919 204.613 57.8111C202.966 56.6889 200.892 56.1278 198.392 56.1278C196.602 56.1278 195.054 56.4119 193.747 56.9801C192.44 57.5341 191.424 58.3011 190.7 59.2812C189.99 60.2472 189.635 61.348 189.635 62.5838C189.635 63.6207 189.876 64.5156 190.359 65.2685C190.856 66.0213 191.502 66.6534 192.298 67.1648C193.108 67.6619 193.974 68.081 194.897 68.4219C195.821 68.7486 196.708 69.0185 197.561 69.2315L201.822 70.3395C203.214 70.6804 204.642 71.142 206.105 71.7244C207.568 72.3068 208.924 73.0739 210.174 74.0256C211.424 74.9773 212.433 76.1562 213.2 77.5625C213.981 78.9688 214.372 80.652 214.372 82.6122C214.372 85.0838 213.733 87.2784 212.454 89.196C211.19 91.1136 209.35 92.6264 206.936 93.7344C204.535 94.8423 201.63 95.3963 198.221 95.3963C194.954 95.3963 192.127 94.8778 189.741 93.8409C187.355 92.804 185.487 91.3338 184.137 89.4304C182.788 87.5128 182.042 85.2401 181.9 82.6122H188.505C188.633 84.1889 189.145 85.5028 190.039 86.554C190.949 87.5909 192.106 88.3651 193.512 88.8764C194.933 89.3736 196.488 89.6222 198.179 89.6222C200.039 89.6222 201.694 89.331 203.143 88.7486C204.606 88.152 205.757 87.3281 206.595 86.277C207.433 85.2116 207.852 83.9687 207.852 82.5483C207.852 81.2557 207.483 80.1974 206.744 79.3736C206.02 78.5497 205.032 77.8679 203.782 77.3281C202.547 76.7884 201.147 76.3125 199.585 75.9006L194.429 74.4943C190.934 73.5426 188.164 72.1435 186.119 70.2969C184.088 68.4503 183.072 66.0071 183.072 62.9673C183.072 60.4531 183.754 58.2585 185.118 56.3835C186.481 54.5085 188.328 53.0526 190.657 52.0156C192.987 50.9645 195.615 50.4389 198.541 50.4389C201.495 50.4389 204.102 50.9574 206.36 51.9943C208.633 53.0312 210.423 54.4588 211.73 56.277C213.037 58.081 213.718 60.1548 213.775 62.4986H207.426ZM236.113 95.3324C233.045 95.3324 230.368 94.6293 228.081 93.223C225.794 91.8168 224.018 89.8494 222.754 87.321C221.49 84.7926 220.858 81.8381 220.858 78.4574C220.858 75.0625 221.49 72.0937 222.754 69.5511C224.018 67.0085 225.794 65.0341 228.081 63.6278C230.368 62.2216 233.045 61.5185 236.113 61.5185C239.182 61.5185 241.859 62.2216 244.146 63.6278C246.433 65.0341 248.209 67.0085 249.473 69.5511C250.737 72.0937 251.369 75.0625 251.369 78.4574C251.369 81.8381 250.737 84.7926 249.473 87.321C248.209 89.8494 246.433 91.8168 244.146 93.223C241.859 94.6293 239.182 95.3324 236.113 95.3324ZM236.135 89.9844C238.123 89.9844 239.771 89.4588 241.078 88.4077C242.385 87.3565 243.351 85.9574 243.976 84.2102C244.615 82.4631 244.935 80.5384 244.935 78.4361C244.935 76.348 244.615 74.4304 243.976 72.6832C243.351 70.9219 242.385 69.5085 241.078 68.4432C239.771 67.3778 238.123 66.8452 236.135 66.8452C234.132 66.8452 232.47 67.3778 231.149 68.4432C229.842 69.5085 228.869 70.9219 228.23 72.6832C227.605 74.4304 227.292 76.348 227.292 78.4361C227.292 80.5384 227.605 82.4631 228.23 84.2102C228.869 85.9574 229.842 87.3565 231.149 88.4077C232.47 89.4588 234.132 89.9844 236.135 89.9844ZM265.451 51.0355V94.6719H259.08V51.0355H265.451ZM274.622 94.6719V61.9446H280.992V94.6719H274.622ZM277.839 56.8949C276.731 56.8949 275.779 56.5256 274.984 55.7869C274.203 55.0341 273.812 54.1392 273.812 53.1023C273.812 52.0511 274.203 51.1562 274.984 50.4176C275.779 49.6648 276.731 49.2884 277.839 49.2884C278.947 49.2884 279.892 49.6648 280.673 50.4176C281.468 51.1562 281.866 52.0511 281.866 53.1023C281.866 54.1392 281.468 55.0341 280.673 55.7869C279.892 56.5256 278.947 56.8949 277.839 56.8949ZM302.415 95.3111C299.773 95.3111 297.415 94.6364 295.341 93.2869C293.281 91.9233 291.662 89.9844 290.483 87.4702C289.318 84.9418 288.736 81.9091 288.736 78.3722C288.736 74.8352 289.325 71.8097 290.504 69.2955C291.697 66.7812 293.331 64.8565 295.405 63.5213C297.478 62.1861 299.829 61.5185 302.457 61.5185C304.488 61.5185 306.122 61.8594 307.358 62.5412C308.608 63.2088 309.574 63.9901 310.255 64.8849C310.951 65.7798 311.491 66.5682 311.875 67.25H312.258V51.0355H318.629V94.6719H312.407V89.5795H311.875C311.491 90.2756 310.937 91.071 310.213 91.9659C309.503 92.8608 308.523 93.642 307.273 94.3097C306.023 94.9773 304.403 95.3111 302.415 95.3111ZM303.821 89.8778C305.653 89.8778 307.201 89.3949 308.466 88.429C309.744 87.4489 310.71 86.0923 311.363 84.3594C312.031 82.6264 312.365 80.6094 312.365 78.3082C312.365 76.0355 312.038 74.0469 311.385 72.3423C310.731 70.6378 309.773 69.3097 308.508 68.358C307.244 67.4062 305.682 66.9304 303.821 66.9304C301.903 66.9304 300.305 67.4276 299.027 68.4219C297.748 69.4162 296.782 70.7727 296.129 72.4915C295.49 74.2102 295.17 76.1491 295.17 78.3082C295.17 80.4957 295.497 82.4631 296.15 84.2102C296.804 85.9574 297.77 87.3423 299.048 88.3651C300.341 89.3736 301.932 89.8778 303.821 89.8778ZM365.076 65.2259H358.428C358.173 63.8054 357.697 62.5554 357.001 61.4759C356.305 60.3963 355.452 59.4801 354.444 58.7273C353.435 57.9744 352.306 57.4062 351.056 57.0227C349.82 56.6392 348.506 56.4474 347.114 56.4474C344.6 56.4474 342.349 57.0795 340.36 58.3438C338.386 59.608 336.823 61.4616 335.673 63.9048C334.536 66.348 333.968 69.331 333.968 72.8537C333.968 76.4048 334.536 79.402 335.673 81.8452C336.823 84.2884 338.393 86.1349 340.381 87.3849C342.37 88.6349 344.607 89.2599 347.093 89.2599C348.471 89.2599 349.778 89.0753 351.013 88.706C352.263 88.3224 353.393 87.7614 354.401 87.0227C355.41 86.2841 356.262 85.3821 356.958 84.3168C357.668 83.2372 358.158 82.0014 358.428 80.6094L365.076 80.6307C364.721 82.7756 364.032 84.75 363.009 86.554C362.001 88.3438 360.701 89.892 359.11 91.1989C357.533 92.4915 355.729 93.4929 353.698 94.2031C351.667 94.9134 349.451 95.2685 347.05 95.2685C343.272 95.2685 339.906 94.3736 336.951 92.5838C333.996 90.7798 331.667 88.2017 329.962 84.8494C328.272 81.4972 327.427 77.4986 327.427 72.8537C327.427 68.1946 328.279 64.196 329.984 60.858C331.688 57.5057 334.018 54.9347 336.972 53.1449C339.927 51.3409 343.286 50.4389 347.05 50.4389C349.366 50.4389 351.525 50.7727 353.528 51.4403C355.545 52.0937 357.356 53.0597 358.961 54.3381C360.566 55.6023 361.894 57.1506 362.945 58.983C363.996 60.8011 364.707 62.8821 365.076 65.2259ZM386.828 95.3324C383.76 95.3324 381.083 94.6293 378.796 93.223C376.509 91.8168 374.733 89.8494 373.469 87.321C372.205 84.7926 371.573 81.8381 371.573 78.4574C371.573 75.0625 372.205 72.0937 373.469 69.5511C374.733 67.0085 376.509 65.0341 378.796 63.6278C381.083 62.2216 383.76 61.5185 386.828 61.5185C389.897 61.5185 392.574 62.2216 394.861 63.6278C397.148 65.0341 398.924 67.0085 400.188 69.5511C401.452 72.0937 402.084 75.0625 402.084 78.4574C402.084 81.8381 401.452 84.7926 400.188 87.321C398.924 89.8494 397.148 91.8168 394.861 93.223C392.574 94.6293 389.897 95.3324 386.828 95.3324ZM386.85 89.9844C388.838 89.9844 390.486 89.4588 391.793 88.4077C393.1 87.3565 394.066 85.9574 394.691 84.2102C395.33 82.4631 395.649 80.5384 395.649 78.4361C395.649 76.348 395.33 74.4304 394.691 72.6832C394.066 70.9219 393.1 69.5085 391.793 68.4432C390.486 67.3778 388.838 66.8452 386.85 66.8452C384.847 66.8452 383.185 67.3778 381.864 68.4432C380.557 69.5085 379.584 70.9219 378.945 72.6832C378.32 74.4304 378.007 76.348 378.007 78.4361C378.007 80.5384 378.32 82.4631 378.945 84.2102C379.584 85.9574 380.557 87.3565 381.864 88.4077C383.185 89.4588 384.847 89.9844 386.85 89.9844ZM409.795 94.6719V61.9446H415.953V67.1435H416.294C416.89 65.3821 417.941 63.9972 419.447 62.9886C420.967 61.9659 422.686 61.4545 424.603 61.4545C425.001 61.4545 425.47 61.4687 426.01 61.4972C426.564 61.5256 426.997 61.5611 427.309 61.6037V67.6974C427.054 67.6264 426.599 67.5483 425.946 67.4631C425.292 67.3636 424.639 67.3139 423.986 67.3139C422.48 67.3139 421.137 67.6335 419.959 68.2727C418.794 68.8977 417.87 69.7713 417.189 70.8935C416.507 72.0014 416.166 73.2656 416.166 74.6861V94.6719H409.795ZM446.356 95.3324C443.131 95.3324 440.354 94.6435 438.025 93.2656C435.709 91.8736 433.92 89.9205 432.655 87.4062C431.405 84.8778 430.78 81.9162 430.78 78.5213C430.78 75.169 431.405 72.2145 432.655 69.6577C433.92 67.1009 435.681 65.1051 437.94 63.6705C440.212 62.2358 442.869 61.5185 445.908 61.5185C447.755 61.5185 449.545 61.8239 451.278 62.4347C453.011 63.0455 454.566 64.0043 455.944 65.3111C457.322 66.6179 458.408 68.3153 459.204 70.4034C459.999 72.4773 460.397 74.9986 460.397 77.9673V80.2259H434.381V75.4531H454.154C454.154 73.777 453.813 72.2926 453.131 71C452.45 69.6932 451.491 68.6634 450.255 67.9105C449.033 67.1577 447.599 66.7812 445.951 66.7812C444.161 66.7812 442.599 67.2216 441.263 68.1023C439.942 68.9687 438.92 70.1051 438.195 71.5114C437.485 72.9034 437.13 74.4162 437.13 76.0497V79.7784C437.13 81.9659 437.513 83.8267 438.28 85.3608C439.062 86.8949 440.148 88.0668 441.54 88.8764C442.932 89.6719 444.559 90.0696 446.42 90.0696C447.627 90.0696 448.728 89.8991 449.722 89.5582C450.717 89.2031 451.576 88.6776 452.3 87.9815C453.025 87.2855 453.579 86.4261 453.962 85.4034L459.992 86.4901C459.509 88.2656 458.643 89.821 457.393 91.1562C456.157 92.4773 454.601 93.5071 452.726 94.2457C450.866 94.9702 448.742 95.3324 446.356 95.3324Z" fill="#555CE3"/>
<path d="M323.9 117.399V140.672H320.389V117.399H323.9ZM332.459 130.308V140.672H329.061V123.217H332.322V126.058H332.538C332.94 125.134 333.569 124.392 334.425 123.831C335.288 123.27 336.376 122.99 337.686 122.99C338.876 122.99 339.917 123.24 340.811 123.74C341.705 124.232 342.398 124.967 342.891 125.945C343.383 126.922 343.629 128.13 343.629 129.57V140.672H340.232V129.979C340.232 128.714 339.902 127.725 339.243 127.013C338.584 126.293 337.679 125.933 336.527 125.933C335.739 125.933 335.038 126.104 334.425 126.445C333.819 126.786 333.338 127.286 332.982 127.945C332.633 128.596 332.459 129.384 332.459 130.308ZM355.04 141.013C353.631 141.013 352.374 140.653 351.267 139.933C350.169 139.206 349.305 138.172 348.677 136.831C348.055 135.482 347.745 133.865 347.745 131.979C347.745 130.092 348.059 128.479 348.688 127.138C349.324 125.797 350.196 124.77 351.302 124.058C352.408 123.346 353.661 122.99 355.063 122.99C356.146 122.99 357.017 123.172 357.677 123.536C358.343 123.892 358.858 124.308 359.222 124.786C359.593 125.263 359.881 125.683 360.086 126.047H360.29V117.399H363.688V140.672H360.37V137.956H360.086C359.881 138.327 359.586 138.751 359.199 139.229C358.821 139.706 358.298 140.123 357.631 140.479C356.964 140.835 356.101 141.013 355.04 141.013ZM355.79 138.115C356.767 138.115 357.593 137.857 358.267 137.342C358.949 136.82 359.464 136.096 359.813 135.172C360.169 134.248 360.347 133.172 360.347 131.945C360.347 130.732 360.173 129.672 359.824 128.763C359.476 127.854 358.964 127.145 358.29 126.638C357.616 126.13 356.783 125.876 355.79 125.876C354.767 125.876 353.915 126.142 353.233 126.672C352.552 127.202 352.036 127.926 351.688 128.842C351.347 129.759 351.177 130.793 351.177 131.945C351.177 133.111 351.351 134.161 351.699 135.092C352.048 136.024 352.563 136.763 353.245 137.308C353.934 137.846 354.783 138.115 355.79 138.115ZM379.914 133.433V123.217H383.323V140.672H379.982V137.649H379.801C379.399 138.581 378.755 139.357 377.869 139.979C376.99 140.592 375.895 140.899 374.585 140.899C373.463 140.899 372.471 140.653 371.607 140.161C370.751 139.661 370.077 138.922 369.585 137.945C369.1 136.967 368.857 135.759 368.857 134.32V123.217H372.255V133.911C372.255 135.1 372.585 136.047 373.244 136.751C373.903 137.456 374.759 137.808 375.812 137.808C376.448 137.808 377.081 137.649 377.71 137.331C378.346 137.013 378.873 136.532 379.289 135.888C379.713 135.244 379.922 134.426 379.914 133.433ZM401.288 127.479L398.209 128.024C398.08 127.63 397.875 127.255 397.595 126.899C397.322 126.543 396.951 126.251 396.481 126.024C396.012 125.797 395.425 125.683 394.72 125.683C393.758 125.683 392.955 125.899 392.311 126.331C391.667 126.755 391.345 127.304 391.345 127.979C391.345 128.562 391.561 129.032 391.993 129.388C392.425 129.744 393.122 130.036 394.084 130.263L396.856 130.899C398.462 131.27 399.659 131.842 400.447 132.615C401.235 133.388 401.629 134.392 401.629 135.626C401.629 136.672 401.326 137.604 400.72 138.422C400.122 139.232 399.284 139.869 398.209 140.331C397.14 140.793 395.902 141.024 394.493 141.024C392.538 141.024 390.943 140.607 389.709 139.774C388.474 138.933 387.716 137.74 387.436 136.195L390.72 135.695C390.925 136.551 391.345 137.198 391.981 137.638C392.618 138.07 393.447 138.286 394.47 138.286C395.584 138.286 396.474 138.054 397.14 137.592C397.807 137.123 398.14 136.551 398.14 135.876C398.14 135.331 397.936 134.873 397.527 134.501C397.125 134.13 396.508 133.85 395.675 133.661L392.72 133.013C391.091 132.642 389.887 132.051 389.106 131.24C388.334 130.429 387.947 129.403 387.947 128.161C387.947 127.13 388.235 126.229 388.811 125.456C389.387 124.683 390.182 124.081 391.197 123.649C392.212 123.21 393.375 122.99 394.686 122.99C396.572 122.99 398.057 123.399 399.14 124.217C400.224 125.028 400.94 126.115 401.288 127.479ZM413.833 123.217V125.945H404.299V123.217H413.833ZM406.855 119.036H410.253V135.547C410.253 136.206 410.352 136.702 410.549 137.036C410.745 137.361 410.999 137.585 411.31 137.706C411.628 137.82 411.973 137.876 412.344 137.876C412.617 137.876 412.855 137.857 413.06 137.82C413.264 137.782 413.424 137.751 413.537 137.729L414.151 140.536C413.954 140.611 413.674 140.687 413.31 140.763C412.946 140.846 412.492 140.892 411.946 140.899C411.052 140.914 410.219 140.755 409.446 140.422C408.674 140.089 408.049 139.573 407.571 138.876C407.094 138.179 406.855 137.304 406.855 136.251V119.036ZM417.911 140.672V123.217H421.195V125.99H421.377C421.695 125.051 422.256 124.312 423.059 123.774C423.869 123.229 424.786 122.956 425.809 122.956C426.021 122.956 426.271 122.964 426.559 122.979C426.854 122.994 427.085 123.013 427.252 123.036V126.286C427.116 126.248 426.873 126.206 426.525 126.161C426.176 126.107 425.828 126.081 425.479 126.081C424.676 126.081 423.96 126.251 423.332 126.592C422.71 126.926 422.218 127.392 421.854 127.99C421.491 128.581 421.309 129.255 421.309 130.013V140.672H417.911ZM430.512 140.672V123.217H433.91V140.672H430.512ZM432.228 120.524C431.637 120.524 431.13 120.327 430.706 119.933C430.289 119.532 430.081 119.054 430.081 118.501C430.081 117.941 430.289 117.464 430.706 117.07C431.13 116.668 431.637 116.467 432.228 116.467C432.819 116.467 433.323 116.668 433.74 117.07C434.164 117.464 434.376 117.941 434.376 118.501C434.376 119.054 434.164 119.532 433.74 119.933C433.323 120.327 432.819 120.524 432.228 120.524ZM443.881 141.058C442.775 141.058 441.775 140.854 440.881 140.445C439.987 140.028 439.278 139.426 438.756 138.638C438.241 137.85 437.983 136.884 437.983 135.74C437.983 134.755 438.172 133.945 438.551 133.308C438.93 132.672 439.441 132.168 440.085 131.797C440.729 131.426 441.449 131.145 442.244 130.956C443.04 130.767 443.85 130.623 444.676 130.524C445.722 130.403 446.57 130.304 447.222 130.229C447.873 130.145 448.347 130.013 448.642 129.831C448.937 129.649 449.085 129.354 449.085 128.945V128.865C449.085 127.873 448.805 127.104 448.244 126.558C447.691 126.013 446.866 125.74 445.767 125.74C444.623 125.74 443.722 125.994 443.062 126.501C442.411 127.001 441.96 127.558 441.71 128.172L438.517 127.445C438.896 126.384 439.449 125.528 440.176 124.876C440.911 124.217 441.756 123.74 442.71 123.445C443.665 123.142 444.669 122.99 445.722 122.99C446.419 122.99 447.157 123.073 447.937 123.24C448.725 123.399 449.46 123.695 450.142 124.126C450.831 124.558 451.396 125.176 451.835 125.979C452.275 126.774 452.494 127.808 452.494 129.081V140.672H449.176V138.286H449.04C448.82 138.725 448.491 139.157 448.051 139.581C447.612 140.005 447.047 140.357 446.358 140.638C445.669 140.918 444.843 141.058 443.881 141.058ZM444.619 138.331C445.559 138.331 446.362 138.145 447.028 137.774C447.703 137.403 448.214 136.918 448.562 136.32C448.919 135.714 449.097 135.066 449.097 134.376V132.126C448.975 132.248 448.741 132.361 448.392 132.467C448.051 132.566 447.661 132.653 447.222 132.729C446.782 132.797 446.354 132.861 445.937 132.922C445.521 132.975 445.172 133.02 444.892 133.058C444.233 133.142 443.631 133.282 443.085 133.479C442.547 133.676 442.116 133.96 441.79 134.331C441.472 134.695 441.312 135.179 441.312 135.786C441.312 136.626 441.623 137.263 442.244 137.695C442.866 138.119 443.657 138.331 444.619 138.331ZM460.738 117.399V140.672H457.34V117.399H460.738Z" fill="#555CE3"/>
</svg>
