<?xml version="1.0" encoding="UTF-8"?>
<svg version="1.1" xmlns="http://www.w3.org/2000/svg" width="1791" height="605">
<path d="M0 0 C0.83455546 0.00234117 1.66911092 0.00468233 2.52895594 0.00709444 C3.41114125 0.005641 4.29332656 0.00418756 5.20224476 0.00269008 C8.19721261 -0.00099742 11.19213044 0.00252913 14.18709803 0.00595194 C16.34039445 0.00480121 18.49369067 0.00321401 20.64698648 0.0012247 C26.59442333 -0.00297518 32.54184426 -0.00087499 38.48928118 0.00221092 C44.89152497 0.00446213 51.29376592 0.0009868 57.69600916 -0.00176901 C69.52328314 -0.00597054 81.35055142 -0.00558971 93.17782569 -0.00285754 C104.10234443 -0.00034617 115.02686129 0.00031668 125.95138025 -0.00088018 C126.67483941 -0.00095657 127.39829856 -0.00103295 128.14368072 -0.00111165 C131.08012466 -0.00142297 134.0165686 -0.00174137 136.95301254 -0.00207142 C164.52291581 -0.00513333 192.09281583 -0.00235234 219.66271859 0.00302548 C244.17963588 0.00777141 268.69654797 0.00734679 293.21346521 0.00256449 C320.73158202 -0.00278523 348.24969595 -0.00491622 375.76781321 -0.00182325 C378.69903803 -0.00150251 381.63026285 -0.00118967 384.56148767 -0.00088018 C385.2832783 -0.0008011 386.00506893 -0.00072203 386.748732 -0.00064055 C397.66882127 0.00049895 408.58890846 -0.00083713 419.50899744 -0.00335974 C431.92035977 -0.00621247 444.33171509 -0.00542138 456.7430768 -0.00007899 C463.08229531 0.00255924 469.42150324 0.00356104 475.76072168 0.00027186 C481.55379881 -0.00268862 487.34685548 -0.00110249 493.13993073 0.00424941 C495.24555726 0.00537467 497.35118549 0.00478004 499.45681095 0.00237362 C502.29920322 -0.00062784 505.1415236 0.00241148 507.98391199 0.00709444 C509.23574518 0.00358269 509.23574518 0.00358269 510.51286793 0 C516.14228363 0.01878525 516.14228363 0.01878525 517.25643396 1.13293558 C517.35610983 3.39742938 517.38443227 5.6650777 517.3858285 7.93176371 C517.38758081 8.64231409 517.38933313 9.35286448 517.39113855 10.08494669 C517.39555674 12.44471749 517.39261921 14.80441396 517.38924646 17.16418558 C517.38991951 18.79703892 517.39088955 20.42989216 517.39214563 22.06274515 C517.39362256 25.48930919 517.39146822 28.91584722 517.38680506 32.34240824 C517.38110777 36.7444806 517.3843868 41.14649199 517.39037752 45.54856211 C517.39398328 48.92161624 517.39284448 52.29465581 517.39024973 55.66771036 C517.3895805 57.29129646 517.39040874 58.91488385 517.39272928 60.53846842 C517.39525605 62.80371729 517.39141491 65.06886609 517.3858285 67.33410746 C517.38463511 69.27150797 517.38463511 69.27150797 517.38341761 71.24804789 C517.25643396 74.13293558 517.25643396 74.13293558 516.25643396 75.13293558 C514.81903044 75.23107545 513.37687069 75.26091839 511.93612146 75.26233011 C511.0184701 75.26548228 510.10081873 75.26863444 509.15535975 75.27188212 C508.15746424 75.26985789 507.15956873 75.26783365 506.13143396 75.26574808 C505.11420252 75.26670481 504.09697107 75.26766154 503.04891443 75.26864725 C500.89347761 75.2693292 498.73803874 75.26747393 496.58260584 75.26330668 C493.27071025 75.25795864 489.9589503 75.26325121 486.64705896 75.26965433 C484.558517 75.26899355 482.46997511 75.2677124 480.38143396 75.26574808 C478.8845907 75.26878443 478.8845907 75.26878443 477.35750818 75.27188212 C476.43985682 75.26872996 475.52220545 75.2655778 474.57674646 75.26233011 C473.76479822 75.26153452 472.95284998 75.26073893 472.11629725 75.25991923 C470.25643396 75.13293558 470.25643396 75.13293558 469.25643396 74.13293558 C469.25643396 65.22293558 469.25643396 56.31293558 469.25643396 47.13293558 C328.01643396 47.13293558 186.77643396 47.13293558 41.25643396 47.13293558 C41.25643396 189.03293558 41.25643396 330.93293558 41.25643396 477.13293558 C181.86556983 476.4758002 181.86556983 476.4758002 322.47469568 475.81652933 C349.77034998 475.68957621 349.77034998 475.68957621 362.57921839 475.63025004 C371.45820832 475.58905899 380.33719558 475.54734174 389.21618128 475.50525004 C399.49453043 475.4565264 409.77288261 475.40850659 420.05123884 475.3612982 C425.29144847 475.33720919 430.53165631 475.31284296 435.77186036 475.28756624 C447.67299425 475.23033617 459.5741223 475.18119775 471.47533101 475.14248139 C474.39428509 475.13246243 477.31323085 475.12093268 480.23217869 475.1092425 C485.19913615 475.08985823 490.16608312 475.07596386 495.13306786 475.06588858 C497.01644854 475.0612995 498.89982589 475.05500482 500.78319488 475.04693788 C503.36757703 475.03621921 505.95189628 475.03170624 508.53629732 475.02882487 C509.30833009 475.0242482 510.08036285 475.01967153 510.87579055 475.01495618 C516.14228503 475.01878665 516.14228503 475.01878665 517.25643396 476.13293558 C517.34947414 477.60647906 517.37389661 479.08444149 517.36995935 480.5609141 C517.36988382 481.50181391 517.36980829 482.44271372 517.36973047 483.41212565 C517.36456919 484.43503199 517.3594079 485.45793833 517.35409021 486.51184183 C517.35267527 487.553641 517.35126032 488.59544016 517.34980249 489.668809 C517.34418476 493.01104652 517.33162926 496.35321815 517.31893396 499.69543558 C517.31392125 501.95520024 517.30935795 504.21496595 517.30526209 506.47473246 C517.29420957 512.02748949 517.2774542 517.58020783 517.25643396 523.13293558 C431.15690614 523.76500629 345.05673744 524.22643028 239.7391417 524.64532375 C230.70682615 524.68087192 221.67451439 524.71726967 212.64220443 524.75420942 C157.47627978 524.97961328 102.31021569 525.17636356 47.1437993 525.21678072 C42.38011352 525.22030669 37.61643804 525.22596851 32.85275698 525.23352343 C27.35879889 525.24200853 21.86486053 525.24560358 16.3708961 525.24510413 C14.3640448 525.24567871 12.3571932 525.24793992 10.35034585 525.2519682 C7.63210316 525.2570907 4.9139332 525.25609836 2.19568872 525.25340372 C0.99628671 525.25776756 0.99628671 525.25776756 -0.22734565 525.26221955 C-5.62935871 525.24714291 -5.62935871 525.24714291 -6.74356604 524.13293558 C-6.84347031 521.36210647 -6.87716669 518.6161455 -6.86940718 515.84479624 C-6.87086062 514.96092256 -6.87231406 514.07704887 -6.87381154 513.16639113 C-6.87749905 510.16567991 -6.87397248 507.16501862 -6.87054968 504.16430765 C-6.87170041 502.00688643 -6.87328761 499.84946541 -6.87527692 497.69204479 C-6.87947681 491.73320639 -6.8773766 485.77438386 -6.8742907 479.81554538 C-6.87203949 473.40103153 -6.87551482 466.98652053 -6.87827063 460.57200724 C-6.88247216 448.72206302 -6.88209133 436.8721245 -6.87935916 425.02218001 C-6.87684779 414.07672189 -6.87618494 403.13126564 -6.8773818 392.18580729 C-6.87745819 391.46096179 -6.87753457 390.73611628 -6.87761327 389.98930577 C-6.87792459 387.04723488 -6.87824299 384.10516399 -6.87857304 381.16309311 C-6.88163495 353.5403525 -6.87885396 325.91761514 -6.87347614 298.29487503 C-6.86873021 273.73096509 -6.86915483 249.16706033 -6.87393713 224.60315043 C-6.87928685 197.03229591 -6.88141784 169.46144426 -6.87832487 141.8905893 C-6.87800413 138.95374749 -6.87769129 136.01690569 -6.8773818 133.08006388 C-6.87730272 132.3568901 -6.87722365 131.63371632 -6.87714217 130.88862819 C-6.87600267 119.94760735 -6.87733875 109.00658858 -6.87986135 98.06556803 C-6.88271409 85.63041714 -6.881923 73.19527324 -6.87658061 60.76012295 C-6.87394237 54.40875286 -6.87294059 48.05739331 -6.87622976 41.70602328 C-6.87919023 35.90184363 -6.87760412 30.0976844 -6.87225221 24.29350662 C-6.87112695 22.18384243 -6.87172158 20.07417654 -6.874128 17.96451342 C-6.87712945 15.11667538 -6.87409015 12.26890909 -6.86940718 9.42107493 C-6.87174834 8.58491512 -6.87408951 7.74875532 -6.87650162 6.88725734 C-6.85430552 0.22299629 -6.66530405 0.02224198 0 0 Z " fill="#FEFEFE" transform="translate(29.743566036224365,27.86706441640854)"/>
<path d="M0 0 C7.03107869 7.33091146 13.60335296 16.08801304 17.875 25.3125 C11.02520219 30.02131254 3.96868454 34.35781846 -3.17480469 38.60107422 C-5.02149377 39.70029391 -6.8622437 40.80905692 -8.703125 41.91796875 C-9.88246135 42.62038157 -11.06213641 43.3222261 -12.2421875 44.0234375 C-13.30034668 44.65556152 -14.35850586 45.28768555 -15.44873047 45.93896484 C-18.125 47.3125 -18.125 47.3125 -21.125 47.3125 C-22.6328125 45.2578125 -22.6328125 45.2578125 -24.25 42.4375 C-31.12135841 31.25893789 -38.15343592 23.9517439 -50.8828125 20.20703125 C-55.25124517 19.16466317 -59.45941656 18.966729 -63.9375 19 C-64.72503662 19.00491455 -65.51257324 19.0098291 -66.32397461 19.01489258 C-76.37861276 19.21608852 -84.71646052 21.75999195 -93.125 27.3125 C-93.75277344 27.71984375 -94.38054687 28.1271875 -95.02734375 28.546875 C-101.49594707 33.35940263 -105.07138138 40.65067907 -106.82421875 48.40625 C-107.84576792 56.93014412 -106.43375876 64.27314638 -101.625 71.4375 C-89.93512216 85.64255939 -69.6220501 91.47061499 -53.03442383 98.11206055 C-39.76500653 103.43640482 -26.20972207 108.98896312 -14.375 117.125 C-13.767771 117.5375 -13.16054199 117.95 -12.53491211 118.375 C8.80390615 133.24268977 20.76354259 152.66685365 25.3671875 178.0234375 C28.78367879 204.43874817 21.7204593 230.19305166 5.875 251.3125 C-9.7229766 270.99926658 -32.46887704 283.81801513 -57.40234375 287.03125 C-85.64942168 289.16534193 -111.45208051 285.13280609 -133.9375 267.05078125 C-154.37574394 249.19847366 -165.81077144 225.07578655 -169.125 198.3125 C-166.41996102 196.50914068 -165.12484482 195.92531361 -162.08422852 195.25927734 C-161.27651505 195.07924164 -160.46880157 194.89920593 -159.63661194 194.7137146 C-158.33342262 194.43390244 -158.33342262 194.43390244 -157.00390625 194.1484375 C-156.10759995 193.95150299 -155.21129364 193.75456848 -154.28782654 193.55166626 C-152.39299295 193.13684452 -150.49746832 192.72516869 -148.60131836 192.31640625 C-145.70049921 191.69030569 -142.80231673 191.05298051 -139.90429688 190.4140625 C-138.06264617 190.01235012 -136.22085377 189.61128672 -134.37890625 189.2109375 C-133.5121376 189.0203476 -132.64536896 188.82975769 -131.75233459 188.63339233 C-130.53603615 188.37279526 -130.53603615 188.37279526 -129.29516602 188.10693359 C-128.58473648 187.95308197 -127.87430695 187.79923035 -127.14234924 187.64071655 C-125.125 187.3125 -125.125 187.3125 -121.125 187.3125 C-121.03001221 187.88057373 -120.93502441 188.44864746 -120.8371582 189.03393555 C-116.67676308 214.10895473 -116.67676308 214.10895473 -101.25 233.625 C-89.44888683 241.83348142 -76.21338584 243.62579628 -62.125 242.3125 C-50.78269734 240.1683053 -39.14612848 234.78937529 -32.125 225.3125 C-23.81215021 211.07886536 -20.77165854 197.12200531 -23.77734375 180.76171875 C-28.16687449 166.23670503 -37.9495619 157.58413635 -50.85229492 150.44628906 C-61.50336735 144.7450634 -72.54246792 140.12584065 -83.72021484 135.58959961 C-110.43804691 124.72406416 -136.94943297 110.4165236 -150.125 83.3125 C-157.76421483 64.17963367 -157.5479391 42.597469 -149.58203125 23.640625 C-146.1114105 16.02372333 -141.73028469 9.50892582 -136.125 3.3125 C-135.47144531 2.56613281 -134.81789063 1.81976563 -134.14453125 1.05078125 C-117.44061992 -16.90670692 -93.32221301 -25.6841397 -69.1640625 -26.71875 C-41.99975816 -26.82856022 -19.87503503 -18.65570773 0 0 Z " fill="#FEFEFE" transform="translate(443.125,171.6875)"/>
<path d="M0 0 C15.84 0 31.68 0 48 0 C48.02258391 39.22035681 48.04049745 78.44071192 48.05106533 117.66107392 C48.05231611 122.2863377 48.05361042 126.91160147 48.05493164 131.53686523 C48.05519395 132.45771227 48.05545626 133.37855931 48.05572652 134.32731081 C48.06008354 149.25784686 48.06797126 164.18837909 48.0771528 179.11891287 C48.08648845 194.42719544 48.09205542 209.73547601 48.09408849 225.04376131 C48.09546391 234.49767203 48.09981547 243.95157193 48.10791647 253.40547932 C48.11318284 259.8792522 48.11480455 266.35301945 48.11350138 272.82679432 C48.11285783 276.56759286 48.11387742 280.30837242 48.11920547 284.04916763 C48.12492637 288.09508251 48.12300119 292.14095642 48.12025452 296.18687439 C48.12316736 297.38237362 48.1260802 298.57787286 48.12908131 299.80959934 C48.12709026 300.88447623 48.12509921 301.95935311 48.12304783 303.06680202 C48.12361741 304.46967878 48.12361741 304.46967878 48.1241985 305.90089649 C48 308 48 308 47 309 C45.56259647 309.09813987 44.12043673 309.1279828 42.6796875 309.12939453 C41.76203613 309.13254669 40.84438477 309.13569885 39.89892578 309.13894653 C38.90103027 309.1369223 37.90313477 309.13489807 36.875 309.1328125 C35.85776855 309.13376923 34.84053711 309.13472595 33.79248047 309.13571167 C31.63704364 309.13639361 29.48160478 309.13453835 27.32617188 309.13037109 C24.01427629 309.12502305 20.70251633 309.13031563 17.390625 309.13671875 C15.30208303 309.13605797 13.21354115 309.13477681 11.125 309.1328125 C9.62815674 309.13584885 9.62815674 309.13584885 8.10107422 309.13894653 C7.18342285 309.13579437 6.26577148 309.13264221 5.3203125 309.12939453 C4.50836426 309.12859894 3.69641602 309.12780334 2.85986328 309.12698364 C1 309 1 309 0 308 C-0.09715518 306.35796093 -0.12371568 304.71171266 -0.12304783 303.06680202 C-0.12503888 301.99192514 -0.12702993 300.91704825 -0.12908131 299.80959934 C-0.12616847 298.61410011 -0.12325563 297.41860087 -0.12025452 296.18687439 C-0.12110894 294.92828584 -0.12196337 293.66969729 -0.12284368 292.37296969 C-0.12509101 288.86353294 -0.12106414 285.35412643 -0.11606562 281.84469354 C-0.11176469 278.06621636 -0.11320729 274.28774102 -0.1139679 270.50926208 C-0.11449336 263.95747915 -0.11134424 257.40570614 -0.10573006 250.8539257 C-0.09761807 241.38104145 -0.09500015 231.90816202 -0.09374207 222.43527467 C-0.09155107 207.06776828 -0.0848897 191.70026718 -0.07543945 176.33276367 C-0.06626656 161.4007978 -0.05918513 146.46883336 -0.05493164 131.53686523 C-0.05453756 130.15726736 -0.05453756 130.15726736 -0.05413551 128.74979883 C-0.05283051 124.13597552 -0.05156679 119.52215221 -0.05032361 114.90832889 C-0.03994952 76.6055487 -0.02205554 38.30277511 0 0 Z " fill="#FEFEFE" transform="translate(499,148)"/>
<path d="M0 0 C1.07507812 -0.00128906 2.15015625 -0.00257812 3.2578125 -0.00390625 C4.38960937 -0.00003906 5.52140625 0.00382812 6.6875 0.0078125 C7.81929687 0.00394531 8.95109375 0.00007813 10.1171875 -0.00390625 C11.19226562 -0.00261719 12.26734375 -0.00132813 13.375 0 C14.86580078 0.00169189 14.86580078 0.00169189 16.38671875 0.00341797 C18.6875 0.1328125 18.6875 0.1328125 19.6875 1.1328125 C19.78167773 3.21900272 19.80492878 5.30841727 19.80102539 7.39672852 C19.80117142 8.05036377 19.80131744 8.70399902 19.8014679 9.37744141 C19.80076883 11.54723378 19.79297678 13.71694129 19.78515625 15.88671875 C19.78329205 17.38744561 19.78186816 18.88817307 19.78086853 20.38890076 C19.77704352 24.34599476 19.7672134 28.30305228 19.75616455 32.26013184 C19.74595006 36.29516099 19.74137083 40.33019603 19.73632812 44.36523438 C19.72559111 52.28777719 19.7085149 60.21029031 19.6875 68.1328125 C20.2228537 67.51067871 20.7582074 66.88854492 21.30978394 66.24755859 C22.01950348 65.43367676 22.72922302 64.61979492 23.46044922 63.78125 C24.16080292 62.97349121 24.86115662 62.16573242 25.58273315 61.33349609 C28.4650656 58.31981231 31.03217151 56.89189153 34.8125 55.1328125 C35.97007813 54.5759375 37.12765625 54.0190625 38.3203125 53.4453125 C48.83861526 49.34537082 61.24294138 50.16133622 71.6875 54.1328125 C82.58640303 59.88631067 88.66698432 68.36562632 92.6875 79.83203125 C98.67111915 99.58264914 97.23706044 122.75636105 87.6875 141.1328125 C79.88731893 154.12067381 69.78130202 162.75480518 55.25 167.5703125 C37.36718347 171.84743975 11.78119737 171.9780542 -5.3125 164.1328125 C-7.15105401 162.29425849 -6.43870489 159.33211494 -6.43948364 156.86914062 C-6.44104363 156.20745628 -6.44260362 155.54577194 -6.44421089 154.86403656 C-6.44822271 152.6306897 -6.44503056 150.39740995 -6.44189453 148.1640625 C-6.44324849 146.56949829 -6.44502839 144.97493439 -6.44720459 143.38037109 C-6.45177955 139.03751871 -6.44998911 134.69468998 -6.4468255 130.35183716 C-6.44430222 125.81723973 -6.44663935 121.28264438 -6.44821167 116.74804688 C-6.45003346 109.1315067 -6.44762681 101.51497621 -6.44287109 93.8984375 C-6.43742846 85.07965062 -6.43919111 76.26088685 -6.4446975 67.44210052 C-6.44922836 59.88458813 -6.44987931 52.32708271 -6.44725883 44.7695694 C-6.44569591 40.24961467 -6.4455027 35.72967083 -6.44879532 31.2097168 C-6.45167365 26.96135368 -6.44969905 22.71302051 -6.44390106 18.46466064 C-6.44257326 16.90089976 -6.44296792 15.33713637 -6.44516373 13.77337646 C-6.44787445 11.64771118 -6.44449511 9.52214336 -6.43948364 7.39648438 C-6.43910662 6.20406128 -6.43872959 5.01163818 -6.43834114 3.78308105 C-6.21663832 -0.88607562 -4.16210267 0.00472353 0 0 Z M28.87890625 81.11328125 C21.3125321 91.47223239 19.51088656 103.85000434 19.58984375 116.34765625 C19.5912587 117.20339737 19.59267365 118.05913849 19.59413147 118.94081116 C19.5996901 121.65068181 19.61223475 124.36046718 19.625 127.0703125 C19.63002035 128.91731651 19.63458232 130.76432182 19.63867188 132.61132812 C19.64964595 137.11852201 19.6668817 141.62565284 19.6875 146.1328125 C25.03167807 148.05824967 29.38567079 148.46750352 35 148.4453125 C36.2055957 148.46948242 36.2055957 148.46948242 37.43554688 148.49414062 C45.47896747 148.5006116 53.05163821 146.74720738 59.0546875 141.12109375 C69.44530457 128.46840454 69.67411476 112.67443704 68.6875 97.1328125 C67.52596052 88.02595258 64.42584194 79.94659992 57.125 74.0703125 C46.21430459 71.0946683 36.65632045 72.59676074 28.87890625 81.11328125 Z " fill="#FEFEFE" transform="translate(1468.3125,26.8671875)"/>
<path d="M0 0 C11.93717379 8.75252142 16.95402876 20.78654708 19.67578125 35.05859375 C19.97054199 37.25516696 20.12131354 39.40663495 20.2109375 41.62109375 C20.2625 42.58144531 20.3140625 43.54179687 20.3671875 44.53125 C20.8997949 62.79524532 15.70863807 79.45682511 3.58447266 93.18164062 C-6.09007805 103.32048723 -19.81469632 109.31726507 -33.734375 109.95703125 C-50.32085958 110.24749313 -64.94482303 108.33266604 -77.80859375 96.8125 C-90.10018251 83.93177191 -92.2889317 67.17243889 -92.21313477 50.171875 C-91.79297098 32.99184475 -85.94921272 17.92472657 -73.7890625 5.62109375 C-53.79875745 -11.61551106 -22.34920674 -14.50166974 0 0 Z M-54.1015625 25.93359375 C-60.82782437 34.35969897 -61.51010937 45.21179893 -60.7890625 55.62109375 C-59.43384006 65.28905858 -57.43979836 73.08960752 -50.3515625 79.99609375 C-44.18606581 83.90592092 -37.94306261 84.53354424 -30.7890625 83.62109375 C-23.93251787 81.59462575 -19.53224615 78.22662423 -15.97265625 72.03515625 C-10.41383455 60.6973615 -9.65867187 45.96750603 -13.0390625 33.74609375 C-15.32642606 27.6464576 -18.97535859 21.52108652 -24.9609375 18.5390625 C-36.39531923 14.82762644 -46.09581202 17.46148887 -54.1015625 25.93359375 Z " fill="#FEFEFE" transform="translate(1524.7890625,313.37890625)"/>
<path d="M0 0 C1.04808838 0.00757324 2.09617676 0.01514648 3.17602539 0.02294922 C16.86245161 0.31268736 27.51109624 3.65370133 37.875 12.8125 C51.15242705 27.88417395 54.27160399 44.30733609 53.38720703 63.93798828 C52.00187099 81.27670515 43.88528105 96.34756182 30.69921875 107.5859375 C26.17660416 110.91987111 21.35830994 113.27626303 16.1875 115.4375 C15.383125 115.77910156 14.57875 116.12070312 13.75 116.47265625 C-0.06354873 121.23213217 -18.40659107 119.89717525 -31.65625 114.21875 C-44.16922989 108.03101269 -51.35884164 98.5953187 -55.80859375 85.5078125 C-60.98409326 67.62881419 -60.77323326 46.13704834 -51.8125 29.4375 C-49.35778852 25.58392456 -46.68779106 21.98643068 -43.8125 18.4375 C-43.29042969 17.7878125 -42.76835938 17.138125 -42.23046875 16.46875 C-31.43852025 4.44733902 -15.64272663 -0.15924566 0 0 Z M-20.0625 33.5 C-26.08277709 41.37899652 -27.17017144 49.32375958 -27.25 59 C-27.26015137 59.87414551 -27.27030273 60.74829102 -27.28076172 61.64892578 C-27.15793394 70.87830912 -24.96867984 80.29104995 -18.8125 87.4375 C-12.48624698 92.34212313 -5.57960015 93.23588034 2.1875 92.4375 C8.82449561 90.67471397 13.63019473 87.32657549 17.1875 81.4375 C23.52794049 67.63891316 23.47883837 53.85639691 19.1875 39.4375 C16.7268798 33.78330891 13.67589785 30.42032492 8.1875 27.4375 C-2.05544073 24.02318642 -12.57571643 25.79083672 -20.0625 33.5 Z " fill="#FEFEFE" transform="translate(996.8125,304.5625)"/>
<path d="M0 0 C0.57492187 0.36222656 1.14984375 0.72445313 1.7421875 1.09765625 C9.39797376 6.71570835 12.1529691 14.94919351 13.72694397 23.96043396 C14.69369379 31.18147977 14.38014632 38.56028391 14.328125 45.828125 C14.32506108 47.71286874 14.32318978 49.59761476 14.32244873 51.48236084 C14.31787866 55.40223054 14.30356937 59.32189101 14.28125 63.24169922 C14.25273467 68.27568103 14.24201148 73.3095005 14.2375679 78.34355545 C14.23342522 82.22100453 14.22362125 86.09842064 14.21169281 89.97585297 C14.20598651 91.8338876 14.20122899 93.6919254 14.19742584 95.5499649 C14.19059225 98.1300474 14.17698012 100.70999822 14.16113281 103.29003906 C14.16001495 104.06083298 14.15889709 104.83162689 14.15774536 105.6257782 C14.11470582 110.88529418 14.11470582 110.88529418 13 112 C10.86646826 112.10003289 8.72962458 112.13081048 6.59375 112.1328125 C5.29308594 112.13410156 3.99242187 112.13539063 2.65234375 112.13671875 C1.97155762 112.13462402 1.29077148 112.1325293 0.58935547 112.13037109 C-1.49128515 112.1250224 -3.57170989 112.1303168 -5.65234375 112.13671875 C-7.60333984 112.13478516 -7.60333984 112.13478516 -9.59375 112.1328125 C-10.79708984 112.13168457 -12.00042969 112.13055664 -13.24023438 112.12939453 C-16 112 -16 112 -17 111 C-17.11439145 108.50691274 -17.16482728 106.04038652 -17.17358398 103.54614258 C-17.180271 102.76559509 -17.18695801 101.98504761 -17.19384766 101.18084717 C-17.2079331 99.47951148 -17.21981591 97.77815649 -17.22979546 96.07679176 C-17.24616748 93.38239739 -17.2694062 90.68814473 -17.29469299 87.99382019 C-17.36555544 80.33083131 -17.42547581 72.66778267 -17.47680664 65.00463867 C-17.50865599 60.32201877 -17.54995398 55.63955813 -17.59700203 50.95706749 C-17.61299512 49.1729692 -17.6253291 47.38883417 -17.63390923 45.60468483 C-17.64610662 43.10323632 -17.67027715 40.60215945 -17.69702148 38.10083008 C-17.69761063 37.36656296 -17.69819977 36.63229584 -17.69880676 35.8757782 C-17.75964248 31.56678117 -18.21084512 27.94240891 -20 24 C-25.31192497 21.50664746 -30.40405736 21.64070188 -36 23 C-43.49862445 25.89446904 -47.59163417 31.77163823 -51.10546875 38.6796875 C-54.27821679 46.90943569 -54.33994026 54.83586163 -54.4140625 63.5625 C-54.43280205 64.96355291 -54.45237748 66.36459486 -54.4727478 67.765625 C-54.52378108 71.42825827 -54.56355957 75.09092802 -54.60089111 78.75372314 C-54.64111286 82.50126962 -54.69212169 86.24866815 -54.7421875 89.99609375 C-54.83860503 97.33062718 -54.92311746 104.66523301 -55 112 C-59.25414623 112.02465622 -63.50825498 112.04283899 -67.76245117 112.05493164 C-69.21070073 112.05997101 -70.65894517 112.06680253 -72.10717773 112.07543945 C-74.18474588 112.08752247 -76.26224697 112.09323211 -78.33984375 112.09765625 C-79.59144287 112.10289307 -80.84304199 112.10812988 -82.13256836 112.11352539 C-85 112 -85 112 -86 111 C-86.09777614 109.54751225 -86.12631731 108.09029633 -86.12698364 106.63452148 C-86.12980347 105.69220673 -86.13262329 104.74989197 -86.13552856 103.77902222 C-86.13350433 102.73690582 -86.1314801 101.69478943 -86.12939453 100.62109375 C-86.13202301 98.9846843 -86.13202301 98.9846843 -86.13470459 97.31521606 C-86.13912563 93.68929479 -86.13618422 90.06342182 -86.1328125 86.4375 C-86.13348547 83.93025707 -86.13445543 81.42301419 -86.13571167 78.91577148 C-86.13718899 73.65315249 -86.1351276 68.39054618 -86.13037109 63.12792969 C-86.12492851 57.03571798 -86.12669118 50.94353974 -86.1321975 44.85132885 C-86.13727443 39.00098982 -86.13674705 33.15066355 -86.13381577 27.30032349 C-86.13314624 24.80591833 -86.13397579 22.31151232 -86.13629532 19.81710815 C-86.13882036 16.33768414 -86.13498334 12.85832538 -86.12939453 9.37890625 C-86.13141876 8.33678986 -86.13344299 7.29467346 -86.13552856 6.22097778 C-86.13270874 5.27866302 -86.12988892 4.33634827 -86.12698364 3.36547852 C-86.1264181 2.12991966 -86.1264181 2.12991966 -86.12584114 0.86940002 C-86 -1 -86 -1 -85 -2 C-82.92737924 -2.08767112 -80.85179706 -2.10695873 -78.77734375 -2.09765625 C-77.51728516 -2.09443359 -76.25722656 -2.09121094 -74.95898438 -2.08789062 C-73.61848891 -2.07953403 -72.27799412 -2.07106907 -70.9375 -2.0625 C-69.59310058 -2.0574866 -68.2486994 -2.05292342 -66.90429688 -2.04882812 C-63.60284567 -2.03699497 -60.3014174 -2.01905886 -57 -2 C-56.505 4.93 -56.505 4.93 -56 12 C-54.14375 9.958125 -54.14375 9.958125 -52.25 7.875 C-39.84674198 -4.58722755 -15.61232858 -9.96184146 0 0 Z M-58 13 C-57 15 -57 15 -57 15 Z " fill="#FEFEFE" transform="translate(1652,309)"/>
<path d="M0 0 C8.95468583 5.68551482 13.02358425 12.68316832 15.5449028 23.01210022 C16.25372791 26.75467433 16.2301933 30.438122 16.19580078 34.23632812 C16.19609283 35.09581055 16.19638489 35.95529297 16.19668579 36.84082031 C16.1953032 39.65440306 16.17979285 42.46771407 16.1640625 45.28125 C16.16032856 47.24279638 16.15748339 49.20434464 16.15548706 51.16589355 C16.14788062 56.30823998 16.12825797 61.45047197 16.1060791 66.59277344 C16.08555608 71.84829155 16.07647157 77.1038283 16.06640625 82.359375 C16.0450091 92.65630816 16.0098515 102.95312662 15.96875 113.25 C6.06875 113.25 -3.83125 113.25 -14.03125 113.25 C-14.060979 109.86729858 -14.060979 109.86729858 -14.09130859 106.41625977 C-14.15840852 98.94034247 -14.23604455 91.46456081 -14.31877708 83.988801 C-14.36858594 79.4591175 -14.41491658 74.92945559 -14.453125 70.3996582 C-14.49017343 66.02289819 -14.53658478 61.6463259 -14.58931351 57.26972771 C-14.60775407 55.60533907 -14.62289959 53.94091035 -14.63459396 52.27646065 C-14.23579554 38.47809312 -14.23579554 38.47809312 -18.59375 25.75 C-23.10712685 22.97253732 -27.49460763 22.67019603 -32.62890625 23.84375 C-40.06672392 26.44642526 -44.03913123 30.16832186 -47.46875 37.1953125 C-50.45674484 44.10505058 -52.12898988 49.96289695 -52.23657227 57.5090332 C-52.25651749 58.74994217 -52.27646271 59.99085114 -52.29701233 61.2693634 C-52.31399257 62.61316811 -52.33087152 63.95697409 -52.34765625 65.30078125 C-52.36824526 66.68369643 -52.38924223 68.0666056 -52.41062927 69.44950867 C-52.46564899 73.07767849 -52.5151463 76.70590321 -52.56347656 80.33416748 C-52.61383898 84.041187 -52.66944787 87.74812746 -52.72460938 91.45507812 C-52.83194484 98.719985 -52.93344373 105.98495792 -53.03125 113.25 C-57.28539623 113.27465622 -61.53950498 113.29283899 -65.79370117 113.30493164 C-67.24195073 113.30997101 -68.69019517 113.31680253 -70.13842773 113.32543945 C-72.21599588 113.33752247 -74.29349697 113.34323211 -76.37109375 113.34765625 C-77.62269287 113.35289307 -78.87429199 113.35812988 -80.16381836 113.36352539 C-83.03125 113.25 -83.03125 113.25 -84.03125 112.25 C-84.12902614 110.79751225 -84.15756731 109.34029633 -84.15823364 107.88452148 C-84.16105347 106.94220673 -84.16387329 105.99989197 -84.16677856 105.02902222 C-84.16475433 103.98690582 -84.1627301 102.94478943 -84.16064453 101.87109375 C-84.16327301 100.2346843 -84.16327301 100.2346843 -84.16595459 98.56521606 C-84.17037563 94.93929479 -84.16743422 91.31342182 -84.1640625 87.6875 C-84.16473547 85.18025707 -84.16570543 82.67301419 -84.16696167 80.16577148 C-84.16843899 74.90315249 -84.1663776 69.64054618 -84.16162109 64.37792969 C-84.15617851 58.28571798 -84.15794118 52.19353974 -84.1634475 46.10132885 C-84.16852443 40.25098982 -84.16799705 34.40066355 -84.16506577 28.55032349 C-84.16439624 26.05591833 -84.16522579 23.56151232 -84.16754532 21.06710815 C-84.17007036 17.58768414 -84.16623334 14.10832538 -84.16064453 10.62890625 C-84.16266876 9.58678986 -84.16469299 8.54467346 -84.16677856 7.47097778 C-84.16395874 6.52866302 -84.16113892 5.58634827 -84.15823364 4.61547852 C-84.1576681 3.37991966 -84.1576681 3.37991966 -84.15709114 2.11940002 C-84.03125 0.25 -84.03125 0.25 -83.03125 -0.75 C-80.95862924 -0.83767112 -78.88304706 -0.85695873 -76.80859375 -0.84765625 C-75.54853516 -0.84443359 -74.28847656 -0.84121094 -72.99023438 -0.83789062 C-71.64973891 -0.82953403 -70.30924412 -0.82106907 -68.96875 -0.8125 C-67.62435058 -0.8074866 -66.2799494 -0.80292342 -64.93554688 -0.79882812 C-61.63409567 -0.78699497 -58.3326674 -0.76905886 -55.03125 -0.75 C-54.53625 6.18 -54.53625 6.18 -54.03125 13.25 C-52.7525 11.868125 -51.47375 10.48625 -50.15625 9.0625 C-38.13163493 -2.96211507 -15.7026457 -7.96190486 0 0 Z " fill="#FEFEFE" transform="translate(771.03125,307.75)"/>
<path d="M0 0 C6.37417538 6.03572359 9.8552621 13.44335668 10.34571838 22.19976807 C10.36903481 23.74878815 10.36903481 23.74878815 10.39282227 25.32910156 C10.4227401 27.0994577 10.4227401 27.0994577 10.45326233 28.90557861 C10.46997482 30.17939392 10.48668732 31.45320923 10.50390625 32.765625 C10.52455027 34.11106901 10.54554823 35.45650763 10.56687927 36.80194092 C10.61081103 39.63306376 10.65169103 42.46420825 10.69018555 45.29541016 C10.73849073 48.84394461 10.79227658 52.39236587 10.84815407 55.94078827 C11.11690316 73.08662599 11.2323575 90.22661881 11.1875 107.375 C1.6175 107.375 -7.9525 107.375 -17.8125 107.375 C-17.8125 102.755 -17.8125 98.135 -17.8125 93.375 C-18.410625 94.220625 -19.00875 95.06625 -19.625 95.9375 C-25.57599296 103.03162155 -34.69795772 107.98042522 -43.8125 109.375 C-54.9789699 110.29405102 -65.45738552 109.78302697 -74.6875 102.6875 C-82.06011549 95.68616731 -84.85551666 86.47916361 -85.1875 76.5625 C-85.02204316 66.81088725 -81.79431537 58.32790517 -74.8125 51.375 C-58.51087842 38.82146779 -39.6815693 36.99524005 -19.8125 36.375 C-20.06940181 34.31071843 -20.34363046 32.24858906 -20.625 30.1875 C-20.77582031 29.03894531 -20.92664062 27.89039063 -21.08203125 26.70703125 C-21.82991139 23.29557801 -22.72878295 21.15992016 -24.8125 18.375 C-35.94271419 12.39766275 -49.14325675 15.43793313 -60.8125 18.375 C-63.20798689 19.15437672 -65.55226449 19.96719268 -67.8828125 20.921875 C-70.41622456 21.51676528 -72.31940745 21.01336972 -74.8125 20.375 C-75.48411995 17.27188362 -76.14893675 14.16734832 -76.8125 11.0625 C-77.00328125 10.18142578 -77.1940625 9.30035156 -77.390625 8.39257812 C-77.57109375 7.54501953 -77.7515625 6.69746094 -77.9375 5.82421875 C-78.10507813 5.04393311 -78.27265625 4.26364746 -78.4453125 3.4597168 C-78.8125 1.375 -78.8125 1.375 -78.8125 -1.625 C-55.35794332 -9.91797416 -21.11743635 -17.22738229 0 0 Z M-53.625 66.1875 C-55.33375109 69.33519937 -55.69115751 71.79539641 -55.8125 75.375 C-54.62867615 79.32107951 -53.71768929 81.64106274 -50.5 84.25 C-44.46243979 86.77735079 -40.31757364 86.43237117 -34.20703125 84.37109375 C-27.49995526 81.58103767 -24.78385761 77.05917827 -21.79296875 70.77734375 C-19.91270185 66.1703153 -19.71650399 62.36679277 -19.8125 57.375 C-31.82149996 56.78114835 -44.73289178 57.29539178 -53.625 66.1875 Z " fill="#FEFEFE" transform="translate(1256.8125,313.625)"/>
<path d="M0 0 C1.25683594 -0.01740234 1.25683594 -0.01740234 2.5390625 -0.03515625 C12.05550941 0.00903778 19.05100482 2.48495561 25.984375 9.0546875 C32.80775704 16.90951101 34.15726023 25.18576075 34.11352539 35.2043457 C34.11367142 36.08289719 34.11381744 36.96144867 34.1139679 37.86662292 C34.11327299 40.76136776 34.10550036 43.6560477 34.09765625 46.55078125 C34.09579057 48.56145696 34.09436737 50.57213312 34.09336853 52.58280945 C34.08955517 57.86818706 34.07973495 63.15353708 34.06866455 68.43890381 C34.05842505 73.83491645 34.05386547 79.23093356 34.04882812 84.62695312 C34.03811163 95.20964947 34.02052437 105.79231812 34 116.375 C24.1 116.375 14.2 116.375 4 116.375 C3.98541748 113.98822021 3.97083496 111.60144043 3.95581055 109.14233398 C3.9054013 101.24328356 3.83879502 93.34442895 3.76428509 85.44557095 C3.7196187 80.65798575 3.68035434 75.87048492 3.65356445 71.08276367 C3.62749426 66.45956716 3.58706556 61.83669593 3.53681374 57.21370125 C3.52017014 55.45277017 3.50864027 53.69178285 3.50238609 51.93078423 C3.49271759 49.45798779 3.46462638 46.98601888 3.43237305 44.51342773 C3.43380814 43.79053558 3.43524323 43.06764343 3.4367218 42.32284546 C3.34341654 37.24198033 2.32270786 33.80719683 0 29.375 C-3.57883304 26.58176445 -6.4650962 26.15823054 -10.875 26.375 C-17.21977623 27.29908903 -21.77169991 29.47972574 -25.72265625 34.61328125 C-33.38408881 46.71721524 -34.12242441 58.63259143 -34.31640625 72.625 C-34.33718735 73.87885498 -34.35796844 75.13270996 -34.37937927 76.42456055 C-34.43342848 79.73211946 -34.4837541 83.03970664 -34.53222656 86.34735107 C-34.58277418 89.7329203 -34.63823793 93.11840891 -34.69335938 96.50390625 C-34.8008464 103.12754088 -34.9002188 109.75122692 -35 116.375 C-44.9 116.375 -54.8 116.375 -65 116.375 C-65 78.755 -65 41.135 -65 2.375 C-55.43 2.375 -45.86 2.375 -36 2.375 C-36 7.325 -36 12.275 -36 17.375 C-35.05125 16.17875 -34.1025 14.9825 -33.125 13.75 C-24.45154029 3.86995013 -12.86817884 -0.17817478 0 0 Z " fill="#FEFEFE" transform="translate(882,304.625)"/>
<path d="M0 0 C4.29 0 8.58 0 13 0 C13 24.42 13 48.84 13 74 C3.120625 74.04125 -6.75875 74.0825 -16.9375 74.125 C-20.04019287 74.14320801 -23.14288574 74.16141602 -26.33959961 74.18017578 C-28.8188459 74.18602101 -31.29809412 74.1911165 -33.77734375 74.1953125 C-35.04839966 74.20554443 -36.31945557 74.21577637 -37.62902832 74.22631836 C-47.95175325 74.22833471 -55.80301495 73.62734962 -64 67 C-64.45890625 67.42152344 -64.9178125 67.84304688 -65.390625 68.27734375 C-66.31101562 69.09912109 -66.31101562 69.09912109 -67.25 69.9375 C-67.85328125 70.48277344 -68.4565625 71.02804687 -69.078125 71.58984375 C-73.37210261 74.74050618 -78.52050511 74.16091123 -83.640625 74.16796875 C-84.48163757 74.17129715 -85.32265015 74.17462555 -86.18914795 74.17805481 C-87.9677272 74.18311169 -89.74631591 74.18546352 -91.52490234 74.18530273 C-94.2263992 74.18748097 -96.92748203 74.20562693 -99.62890625 74.22460938 C-101.36197778 74.22754532 -103.09505124 74.22952877 -104.828125 74.23046875 C-105.62736389 74.23765427 -106.42660278 74.24483978 -107.25006104 74.25224304 C-113.97261458 74.22528753 -120.81659467 73.75145489 -126 69 C-128.20270733 70.06056279 -130.14877676 71.10939468 -132.125 72.5625 C-136.94301112 74.97150556 -142.05524525 75.59090435 -147.35546875 74.52734375 C-150.4997498 73.47925007 -152.60009385 72.58319647 -154.5 69.8125 C-154.665 69.214375 -154.83 68.61625 -155 68 C-155.45890625 68.34933594 -155.9178125 68.69867187 -156.390625 69.05859375 C-157.00421875 69.51363281 -157.6178125 69.96867188 -158.25 70.4375 C-158.85328125 70.88996094 -159.4565625 71.34242188 -160.078125 71.80859375 C-164.63075784 74.63085598 -169.70999692 74.13558199 -174.89941406 74.11352539 C-175.79732666 74.11367142 -176.69523926 74.11381744 -177.62036133 74.1139679 C-180.58547387 74.11327176 -183.55052344 74.10549329 -186.515625 74.09765625 C-188.57257045 74.09579101 -190.62951635 74.09436761 -192.6864624 74.09336853 C-198.09844185 74.0895517 -203.51039444 74.07972851 -208.92236328 74.06866455 C-214.44563432 74.05843252 -219.96890971 74.05386707 -225.4921875 74.04882812 C-236.3281368 74.03810552 -247.16406616 74.02103907 -258 74 C-258.02688151 72.35425434 -258.04634123 70.70838587 -258.0625 69.0625 C-258.07410156 68.14597656 -258.08570313 67.22945312 -258.09765625 66.28515625 C-258 64 -258 64 -257 63 C-254.78312006 62.84126045 -252.56144702 62.74866163 -250.33984375 62.68359375 C-249.67537735 62.66281265 -249.01091095 62.64203156 -248.3263092 62.62062073 C-246.19681457 62.55506342 -244.06719332 62.49621215 -241.9375 62.4375 C-240.49673153 62.39432061 -239.05597601 62.35070651 -237.61523438 62.30664062 C-234.0769596 62.19937607 -230.53854131 62.09812629 -227 62 C-227.29462364 60.41965998 -227.5952921 58.84044626 -227.8984375 57.26171875 C-228.06520996 56.38217529 -228.23198242 55.50263184 -228.40380859 54.59643555 C-230.21162594 46.72332437 -234.35392576 41.51100921 -241 37 C-244.59083199 35.12652244 -248.23912642 33.50020141 -252 32 C-251.01 28.7 -250.02 25.4 -249 22 C-237.84311123 22.72762318 -229.50188118 29.09766253 -222 37 C-215.7774522 44.38369308 -214 53.54513603 -214 63 C-208.39 63 -202.78 63 -197 63 C-197.01160156 60.26847656 -197.02320313 57.53695312 -197.03515625 54.72265625 C-197.04294642 52.08829871 -197.04902341 49.45394243 -197.05493164 46.81958008 C-197.05997231 44.98331125 -197.06680477 43.14704646 -197.07543945 41.31079102 C-197.08751672 38.67723599 -197.09323081 36.04373384 -197.09765625 33.41015625 C-197.10281754 32.58411392 -197.10797882 31.75807159 -197.11329651 30.90699768 C-197.11349205 28.93763632 -197.06204152 26.96838386 -197 25 C-196.505 24.505 -196.505 24.505 -196 24 C-192.04 24 -188.08 24 -184 24 C-184 36.87 -184 49.74 -184 63 C-173.605 62.505 -173.605 62.505 -163 62 C-162.0922979 58.36919158 -161.82067141 55.45217811 -161.71875 51.73828125 C-161.68136719 50.53751953 -161.64398437 49.33675781 -161.60546875 48.09960938 C-161.53483014 45.5631601 -161.46452064 43.02670164 -161.39453125 40.49023438 C-161.35714844 39.29333984 -161.31976562 38.09644531 -161.28125 36.86328125 C-161.25095703 35.76282471 -161.22066406 34.66236816 -161.18945312 33.52856445 C-161 31 -161 31 -160 30 C-157.98035801 29.92755947 -155.95832876 29.91622812 -153.9375 29.9375 C-152.83277344 29.94652344 -151.72804688 29.95554687 -150.58984375 29.96484375 C-149.73519531 29.97644531 -148.88054687 29.98804688 -148 30 C-147.97494385 30.78648926 -147.9498877 31.57297852 -147.92407227 32.38330078 C-147.80767134 35.96401494 -147.68514513 39.5444945 -147.5625 43.125 C-147.52318359 44.3625 -147.48386719 45.6 -147.44335938 46.875 C-147.40146484 48.07382812 -147.35957031 49.27265625 -147.31640625 50.5078125 C-147.27974854 51.60754395 -147.24309082 52.70727539 -147.20532227 53.84033203 C-147.00316521 56.95129116 -146.56710106 59.93644338 -146 63 C-144.56344146 63.08131463 -143.1255517 63.13933559 -141.6875 63.1875 C-140.88699219 63.22230469 -140.08648438 63.25710938 -139.26171875 63.29296875 C-136.94170087 63.18434168 -136.94170087 63.18434168 -135.26953125 61.67578125 C-132.57746746 58.12225705 -132.82408019 54.47301336 -132.71875 50.1796875 C-132.70034058 49.52042267 -132.68193115 48.86115784 -132.66296387 48.18191528 C-132.58434973 45.3641159 -132.51633073 42.5460862 -132.44775391 39.72802734 C-132.39615243 37.6701226 -132.33887804 35.61243084 -132.28125 33.5546875 C-132.25095703 32.32218262 -132.22066406 31.08967773 -132.18945312 29.81982422 C-132 27 -132 27 -131 26 C-127.04 26 -123.08 26 -119 26 C-118.67 37.55 -118.34 49.1 -118 61 C-114.59112017 61.85221996 -112.19565369 62.10783755 -108.75 62.0625 C-107.85796875 62.05347656 -106.9659375 62.04445313 -106.046875 62.03515625 C-105.03367187 62.01775391 -105.03367187 62.01775391 -104 62 C-103.75284486 48.49772472 -104.14942104 35.38365142 -106 22 C-104.58622218 21.63447197 -103.16879424 21.28304505 -101.75 20.9375 C-100.96109375 20.74027344 -100.1721875 20.54304688 -99.359375 20.33984375 C-96.89605178 19.98502733 -95.34395868 20.23122456 -93 21 C-90.79739554 31.05071936 -89.91541757 40.66085169 -89.875 50.9375 C-89.87032715 51.77917725 -89.8656543 52.62085449 -89.86083984 53.48803711 C-89.86293457 54.2847583 -89.8650293 55.08147949 -89.8671875 55.90234375 C-89.86831543 56.61898193 -89.86944336 57.33562012 -89.87060547 58.07397461 C-90 60 -90 60 -91 63 C-88.56152549 62.88602456 -86.12486826 62.75929026 -83.6875 62.625 C-82.99720703 62.5940625 -82.30691406 62.563125 -81.59570312 62.53125 C-77.93009211 62.31875081 -76.12099208 62.08066139 -73 60 C-70.84242847 53.99599922 -70.36498188 47.93177974 -69.7578125 41.62109375 C-68.5549989 35.87362878 -65.47756485 32.06067926 -61.125 28.25 C-60.48820313 27.67765625 -59.85140625 27.1053125 -59.1953125 26.515625 C-52.10696198 21.62188834 -43.21998845 22.32745549 -35 23 C-29.65136213 24.44241692 -25.90515904 27.26566675 -23 32 C-19.83427104 38.79700629 -19.63112108 44.56811485 -19.8125 52 C-19.82603516 53.06089844 -19.83957031 54.12179687 -19.85351562 55.21484375 C-19.8885869 57.81011821 -19.9423836 60.40512816 -20 63 C-13.4 63 -6.8 63 0 63 C0 42.21 0 21.42 0 0 Z M-54 37 C-56.86501614 40.89017594 -57.40863279 43.7017226 -57.375 48.5 C-57.38273438 49.6034375 -57.39046875 50.706875 -57.3984375 51.84375 C-56.94587658 55.42874235 -56.27394368 57.19834787 -54 60 C-49.21159693 63.2367358 -45.18370125 63.38351207 -39.625 63.1875 C-38.88894531 63.17396484 -38.15289063 63.16042969 -37.39453125 63.14648438 C-35.59603257 63.11144869 -33.79791578 63.05765288 -32 63 C-31.02577614 48.50701935 -31.02577614 48.50701935 -35.9375 35.4375 C-42.20457352 31.06953967 -48.4139293 32.30262236 -54 37 Z " fill="#FEFEFE" transform="translate(1051,477)"/>
<path d="M0 0 C8.68806212 9.05730476 9.36070198 21.92723079 9.30102539 33.80688477 C9.30117142 34.58848465 9.30131744 35.37008453 9.3014679 36.17536926 C9.30077883 38.72371328 9.29303427 41.27198147 9.28515625 43.8203125 C9.28328849 45.60106873 9.28186628 47.38182547 9.28086853 49.1625824 C9.27707157 53.8231857 9.26726572 58.48375728 9.25616455 63.14434814 C9.24588943 67.91068086 9.2413579 72.67701875 9.23632812 77.44335938 C9.22564063 86.77605552 9.20859853 96.10872823 9.1875 105.44140625 C5.20834841 105.47027609 1.22922347 105.48816031 -2.75 105.50390625 C-4.45446289 105.51647461 -4.45446289 105.51647461 -6.19335938 105.52929688 C-7.27294922 105.53251953 -8.35253906 105.53574219 -9.46484375 105.5390625 C-10.96519165 105.54691772 -10.96519165 105.54691772 -12.49584961 105.55493164 C-14.8125 105.44140625 -14.8125 105.44140625 -15.8125 104.44140625 C-15.88521741 102.0882707 -15.89620868 99.73306957 -15.875 97.37890625 C-15.86597656 96.08855469 -15.85695313 94.79820312 -15.84765625 93.46875 C-15.83605469 92.46972656 -15.82445312 91.47070312 -15.8125 90.44140625 C-16.20179687 90.94929688 -16.59109375 91.4571875 -16.9921875 91.98046875 C-21.57158403 97.61502577 -26.33117777 101.20074514 -32.8125 104.44140625 C-33.80636719 104.95380859 -33.80636719 104.95380859 -34.8203125 105.4765625 C-43.68610476 109.21410238 -56.6126904 109.09480634 -65.5625 105.75390625 C-74.14015822 101.50914045 -79.55653291 94.99298192 -82.66796875 85.95703125 C-84.70538513 77.36979981 -84.35636644 67.20322401 -79.8125 59.44140625 C-69.47405199 45.43095134 -55.39755273 40.05083675 -38.74853516 37.31054688 C-31.40924898 36.22874011 -24.21872293 36.14646817 -16.8125 36.44140625 C-17.06957735 34.06419686 -17.34267068 31.69064019 -17.625 29.31640625 C-17.73038086 28.31867188 -17.73038086 28.31867188 -17.83789062 27.30078125 C-18.48231344 22.04229107 -19.76259937 17.56722913 -23.5 13.69140625 C-34.64279 7.66827652 -48.13768936 10.46768984 -59.8125 13.44140625 C-62.82544677 14.44805204 -65.75062626 15.53317171 -68.67578125 16.76953125 C-70.8125 17.44140625 -70.8125 17.44140625 -73.8125 16.44140625 C-74.52026367 14.67553711 -74.52026367 14.67553711 -74.98046875 12.40625 C-75.15126953 11.59736328 -75.32207031 10.78847656 -75.49804688 9.95507812 C-75.66369141 9.10494141 -75.82933594 8.25480469 -76 7.37890625 C-76.17724609 6.52490234 -76.35449219 5.67089844 -76.53710938 4.79101562 C-76.9741059 2.6768973 -77.39483206 0.55942791 -77.8125 -1.55859375 C-74.00885205 -5.13235089 -69.48153012 -5.95573107 -64.5625 -7.18359375 C-63.74136719 -7.40015625 -62.92023438 -7.61671875 -62.07421875 -7.83984375 C-41.97979521 -12.99879242 -16.56753755 -14.24665406 0 0 Z M-53.73046875 62.046875 C-56.99186942 65.55617311 -58.91107668 68.51257248 -58.8125 73.44140625 C-57.86937466 78.1324297 -56.73178174 81.52212451 -53.3125 84.94140625 C-48.55555877 87.79557099 -44.22145498 88.05567243 -38.8125 87.44140625 C-33.00081526 85.71106646 -28.73367081 83.12502694 -24.8125 78.44140625 C-24.38195313 77.95027344 -23.95140625 77.45914063 -23.5078125 76.953125 C-18.27403379 70.46509754 -16.583409 62.65251008 -16.8125 54.44140625 C-28.8460184 54.09204604 -43.93061888 53.84374202 -53.73046875 62.046875 Z " fill="#FEFEFE" transform="translate(1111.8125,88.55859375)"/>
<path d="M0 0 C8.32389937 8.19805208 10.43383627 18.80818643 10.60565186 30.10093689 C10.6073176 31.4826554 10.60854714 32.86437449 10.609375 34.24609375 C10.62441899 35.70705436 10.64115867 37.16799838 10.65948486 38.62892151 C10.70288664 42.45654089 10.7230651 46.28393403 10.73822021 50.11175537 C10.75762928 53.94378775 10.79986661 57.775559 10.83984375 61.60742188 C10.9892124 76.7380352 11.03015706 91.86869481 11 107 C2.75 107 -5.5 107 -14 107 C-14 102.05 -14 97.1 -14 92 C-15.36125 93.7634375 -15.36125 93.7634375 -16.75 95.5625 C-23.09663554 102.82501181 -32.39579 108.20584993 -42.08056641 109.21728516 C-53.22733233 109.82149308 -62.65551139 109.30688066 -71.8125 102.3125 C-78.76040784 95.80702968 -81.91914064 86.96728481 -82.3125 77.625 C-81.98842945 66.54941233 -77.15950291 58.77358473 -69.3125 51.3125 C-56.70647353 40.86682835 -37.96259718 37.79497681 -22 37.9375 C-21.32066406 37.94201172 -20.64132812 37.94652344 -19.94140625 37.95117188 C-18.29423126 37.9627717 -16.64710274 37.98069801 -15 38 C-15.42466731 35.2682748 -15.86417697 32.54035608 -16.3125 29.8125 C-16.48942383 28.65911133 -16.48942383 28.65911133 -16.66992188 27.48242188 C-17.40721699 23.07755616 -18.2233016 19.63106714 -21 16 C-31.8349481 9.4048142 -44.32451611 11.88731012 -56.08300781 14.51171875 C-59.80114847 15.45877444 -63.33463821 16.83669241 -66.86328125 18.328125 C-69 19 -69 19 -72 18 C-72.91441466 15.17956516 -73.62777544 12.50985935 -74.25 9.625 C-74.435625 8.84382813 -74.62125 8.06265625 -74.8125 7.2578125 C-76.13523597 1.40570791 -76.13523597 1.40570791 -75 -2 C-72.39692562 -3.02004194 -69.93515281 -3.83034239 -67.25 -4.5625 C-66.08537231 -4.8867395 -66.08537231 -4.8867395 -64.8972168 -5.2175293 C-44.80402618 -10.65947821 -17.39601449 -13.89155422 0 0 Z M-53.9375 65.75 C-56.38938904 69.61358274 -57.29970209 72.44276526 -57 77 C-55.43707876 82.20973745 -53.56277803 85.03419428 -49 88 C-42.95266342 90.01577886 -37.68427934 89.64300037 -31.875 87 C-24.19127477 82.74054363 -19.68935991 76.80640077 -16.7109375 68.609375 C-15.57699795 64.44744302 -15.18295947 60.29954752 -15 56 C-28.03929517 55.46495293 -44.24377578 55.64552476 -53.9375 65.75 Z " fill="#FEFEFE" transform="translate(1418,87)"/>
<path d="M0 0 C1.5631897 0.00785522 1.5631897 0.00785522 3.15795898 0.01586914 C4.28266602 0.0190918 5.40737305 0.02231445 6.56616211 0.02563477 C7.75016602 0.03401367 8.93416992 0.04239258 10.15405273 0.05102539 C11.34192383 0.05553711 12.52979492 0.06004883 13.75366211 0.06469727 C16.69967499 0.07652864 19.64558954 0.09301252 22.59155273 0.11352539 C22.59519836 1.10609344 22.59884399 2.0986615 22.6026001 3.12130737 C22.63965346 12.5072856 22.69753848 21.89293888 22.77545547 31.27866936 C22.81484728 36.10319184 22.8470763 40.92753407 22.86254883 45.75219727 C22.87777027 50.41437413 22.91231243 55.07605516 22.95986176 59.73801041 C22.9746192 61.51041461 22.98259049 63.28288963 22.98343658 65.05535507 C22.65798768 78.69479084 22.65798768 78.69479084 27.59155273 91.11352539 C32.35666856 94.54093713 37.48595693 94.50352785 43.13842773 93.67993164 C50.46926136 91.98730286 55.47780726 88.39485346 59.59155273 82.11352539 C66.08025285 70.55609001 66.88562854 58.95723685 67.00561523 45.91430664 C67.02498138 44.59810837 67.04434753 43.2819101 67.06430054 41.92582703 C67.1151132 38.46545139 67.15500708 35.00503736 67.19244385 31.54449463 C67.23280697 27.99775091 67.28374996 24.4511598 67.33374023 20.90454102 C67.42989504 13.97431464 67.51448839 7.04398969 67.59155273 0.11352539 C71.7373716 0.08465788 75.8831649 0.06677212 80.02905273 0.05102539 C81.21305664 0.04264648 82.39706055 0.03426758 83.61694336 0.02563477 C84.74165039 0.02241211 85.86635742 0.01918945 87.02514648 0.01586914 C88.06727295 0.01063232 89.10939941 0.00539551 90.18310547 0 C92.59155273 0.11352539 92.59155273 0.11352539 93.59155273 1.11352539 C93.68932887 2.56601314 93.71787004 4.02322906 93.71853638 5.47900391 C93.72276611 6.89247604 93.72276611 6.89247604 93.7270813 8.33450317 C93.72404495 9.89767776 93.72404495 9.89767776 93.72094727 11.49243164 C93.72357574 13.12884109 93.72357574 13.12884109 93.72625732 14.79830933 C93.73067836 18.4242306 93.72773696 22.05010357 93.72436523 25.67602539 C93.7250382 28.18326833 93.72600816 30.6905112 93.7272644 33.19775391 C93.72874172 38.46037291 93.72668034 43.72297921 93.72192383 48.9855957 C93.71648124 55.07780741 93.71824391 61.16998565 93.72375023 67.26219654 C93.72882716 73.11253557 93.72829978 78.96286184 93.7253685 84.8132019 C93.72469898 87.30760706 93.72552852 89.80201307 93.72784805 92.29641724 C93.73037309 95.77584125 93.72653607 99.25520001 93.72094727 102.73461914 C93.7229715 103.77673553 93.72499573 104.81885193 93.7270813 105.89254761 C93.72426147 106.83486237 93.72144165 107.77717712 93.71853638 108.74804688 C93.71797084 109.98360573 93.71797084 109.98360573 93.71739388 111.24412537 C93.59155273 113.11352539 93.59155273 113.11352539 92.59155273 114.11352539 C90.81084027 114.20078762 89.02672133 114.2205158 87.24389648 114.21118164 C86.16430664 114.20795898 85.0847168 114.20473633 83.97241211 114.20141602 C82.83610352 114.19303711 81.69979492 114.1846582 80.52905273 114.17602539 C79.38887695 114.17151367 78.24870117 114.16700195 77.07397461 114.16235352 C74.24647856 114.15052299 71.41900929 114.1325869 68.59155273 114.11352539 C68.59155273 108.50352539 68.59155273 102.89352539 68.59155273 97.11352539 C67.66342773 98.45415039 66.73530273 99.79477539 65.77905273 101.17602539 C59.60427432 109.08123566 50.588979 114.69987658 40.59155273 116.11352539 C37.40320016 116.35085553 34.22558664 116.44683953 31.02905273 116.48852539 C29.84182617 116.50967407 29.84182617 116.50967407 28.63061523 116.53125 C18.68528101 116.44981536 11.91074835 113.45505977 4.75952148 106.55883789 C-5.37047573 95.13293113 -3.70239935 77.48858524 -3.63891602 63.16040039 C-3.63772131 61.36533644 -3.63727167 59.57027185 -3.63752747 57.77520752 C-3.63597518 54.04370113 -3.62777491 50.3122924 -3.61425781 46.58081055 C-3.597121 41.78896902 -3.59344834 36.99723282 -3.594203 32.20536423 C-3.59393202 28.51321399 -3.58846498 24.82108695 -3.58120155 21.1289444 C-3.57801475 19.36022364 -3.57604745 17.59150027 -3.57530785 15.82277679 C-3.57315277 13.36723773 -3.56443118 10.91181344 -3.55371094 8.45629883 C-3.55416412 7.72290787 -3.55461731 6.98951691 -3.55508423 6.23390198 C-3.51611525 0.16573681 -3.51611525 0.16573681 0 0 Z " fill="#FEFEFE" transform="translate(729.408447265625,79.886474609375)"/>
<path d="M0 0 C8.92873155 7.38365987 13.57304606 15.99954899 15.72265625 27.31640625 C16.07131267 31.86875733 16.0549611 36.37863087 15.97265625 40.94140625 C15.9675 42.12347656 15.96234375 43.30554688 15.95703125 44.5234375 C15.87750889 53.16155361 15.87750889 53.16155361 14.72265625 54.31640625 C12.51397794 54.4107361 10.30224104 54.43383056 8.09155273 54.42993164 C7.3989032 54.43007767 6.70625366 54.43022369 5.99261475 54.43037415 C3.69296179 54.42967499 1.39338888 54.42188253 -0.90625 54.4140625 C-2.49665787 54.41219833 -4.08706632 54.41077442 -5.67747498 54.40977478 C-9.87130305 54.40594954 -14.0650967 54.3961192 -18.25891113 54.3850708 C-22.53523289 54.37485682 -26.81156019 54.37027719 -31.08789062 54.36523438 C-39.48439083 54.35449694 -47.88086301 54.33742044 -56.27734375 54.31640625 C-55.9902315 56.54520469 -55.69423131 58.77285928 -55.39453125 61 C-55.23065918 62.24064209 -55.06678711 63.48128418 -54.89794922 64.75952148 C-53.74521334 71.36621266 -51.13903675 77.58976028 -46.27734375 82.31640625 C-35.71014278 89.49507484 -22.43838939 89.07272985 -10.27734375 87.31640625 C-5.18549839 86.29872635 -0.24184282 84.83035768 4.72265625 83.31640625 C6.05329182 82.97246168 7.3853438 82.63339883 8.72265625 82.31640625 C10.65297999 86.49336728 11.31905399 90.60112459 11.84765625 95.12890625 C11.93402344 95.82177734 12.02039062 96.51464844 12.109375 97.22851562 C12.31981706 98.92374331 12.52207297 100.6199838 12.72265625 102.31640625 C-0.06436162 108.15759635 -13.23769487 109.6894289 -27.21484375 109.75390625 C-28.88305176 109.76877075 -28.88305176 109.76877075 -30.58496094 109.78393555 C-45.23927225 109.63242191 -58.44787461 105.72417254 -69.2421875 95.5390625 C-82.99401006 80.5202774 -82.96652687 60.77927263 -82.45654297 41.64599609 C-81.62836811 26.25819121 -74.53573445 12.69109281 -63.27734375 2.31640625 C-45.41986197 -11.36659927 -18.64827366 -13.78628808 0 0 Z M-49.02734375 18.00390625 C-53.22687213 23.60800663 -55.13525475 29.46387226 -56.27734375 36.31640625 C-40.76734375 36.31640625 -25.25734375 36.31640625 -9.27734375 36.31640625 C-10.35047685 24.41458521 -10.35047685 24.41458521 -16.8359375 14.8359375 C-26.87420724 7.90177112 -40.60752522 9.77544723 -49.02734375 18.00390625 Z " fill="#FEFEFE" transform="translate(1722.27734375,86.68359375)"/>
<path d="M0 0 C7.61684533 6.0623871 11.2458273 12.92021098 12.9140625 22.5234375 C13.57706993 29.33984634 13.38224484 36.20394764 13.3046875 43.04296875 C13.29721126 44.99736446 13.29152488 46.95176776 13.28753662 48.90617371 C13.27238904 54.00751061 13.23320314 59.10837952 13.1887207 64.20953369 C13.14753114 69.43194247 13.1294754 74.65442813 13.109375 79.87695312 C13.06669646 90.09268482 12.99643781 100.30794871 12.9140625 110.5234375 C4.6640625 110.5234375 -3.5859375 110.5234375 -12.0859375 110.5234375 C-12.10575684 108.30906982 -12.12557617 106.09470215 -12.14599609 103.81323242 C-12.2131858 96.46106152 -12.29081952 89.10902686 -12.37346458 81.75701427 C-12.42321022 77.30361679 -12.46954045 72.85024056 -12.5078125 68.39672852 C-12.54494201 64.09128142 -12.59137322 59.78602223 -12.64400101 55.48073769 C-12.66239915 53.84591309 -12.67755964 52.21104844 -12.68928146 50.57616234 C-12.0388998 34.08068921 -12.0388998 34.08068921 -18.0859375 19.5234375 C-24.12192766 16.62946961 -30.43727733 16.35252077 -36.8125 18.3984375 C-45.48602134 22.38144428 -49.41316013 27.37583593 -52.8984375 36.1484375 C-55.11415297 42.18608288 -56.20101606 47.44118083 -56.29125977 53.87426758 C-56.31120499 55.1351973 -56.33115021 56.39612701 -56.35169983 57.69526672 C-56.36868018 59.06116617 -56.38555913 60.42706688 -56.40234375 61.79296875 C-56.42293224 63.19830409 -56.4439292 64.6036335 -56.46531677 66.00895691 C-56.52034185 69.69631123 -56.56983683 73.38371962 -56.61816406 77.07116699 C-56.66852254 80.83850886 -56.7241335 84.60577284 -56.77929688 88.37304688 C-56.88663893 95.75644611 -56.98765061 103.13991115 -57.0859375 110.5234375 C-65.6659375 110.5234375 -74.2459375 110.5234375 -83.0859375 110.5234375 C-83.0859375 72.9034375 -83.0859375 35.2834375 -83.0859375 -3.4765625 C-75.1659375 -3.4765625 -67.2459375 -3.4765625 -59.0859375 -3.4765625 C-58.0859375 -2.4765625 -58.0859375 -2.4765625 -57.98828125 0.90234375 C-57.99495381 2.29690827 -58.00691218 3.69145493 -58.0234375 5.0859375 C-58.02794922 5.79685547 -58.03246094 6.50777344 -58.03710938 7.24023438 C-58.04892886 9.00133763 -58.06686487 10.76239786 -58.0859375 12.5234375 C-57.68503906 12.01554687 -57.28414062 11.50765625 -56.87109375 10.984375 C-43.77015094 -4.87935167 -18.14068239 -12.50333886 0 0 Z " fill="#FEFEFE" transform="translate(1297.0859375,83.4765625)"/>
<path d="M0 0 C10.56 0 21.12 0 32 0 C36.50161134 10.12862552 36.50161134 10.12862552 37.73583984 13.8034668 C38.01648285 14.63271164 38.29712585 15.46195648 38.58627319 16.31632996 C38.87491241 17.18518326 39.16355164 18.05403656 39.4609375 18.94921875 C39.77398834 19.88312943 40.08703918 20.8170401 40.40957642 21.7792511 C41.06893047 23.75092422 41.72598945 25.72336619 42.38085938 27.6965332 C43.35818727 30.6369173 44.34653245 33.57342691 45.3359375 36.50976562 C49.69960584 49.55520459 53.53197512 62.68899505 57 76 C59.10768648 69.86922013 60.96402936 63.70321814 62.6953125 57.45703125 C66.08482299 45.42249585 69.96124913 33.55977655 73.875 21.6875 C74.57067768 19.56717707 75.26599187 17.44673485 75.9609375 15.32617188 C77.63580246 10.21583987 79.31801456 5.10801429 81 0 C91.56 0 102.12 0 113 0 C111.61773201 6.22020594 110.12132741 12.01815205 108.05078125 17.9921875 C107.76127594 18.83973099 107.47177063 19.68727448 107.17349243 20.5605011 C106.22466356 23.33368554 105.26875936 26.10436988 104.3125 28.875 C103.64432213 30.82192181 102.97643958 32.76894499 102.30883789 34.71606445 C95.55784782 54.37937331 88.71856309 74.0125854 81.83074951 93.62835693 C80.97339006 96.07596666 80.12138581 98.52539747 79.27001953 100.97509766 C78.72304556 102.54201446 78.17601047 104.10890992 77.62890625 105.67578125 C77.37777573 106.40210251 77.1266452 107.12842377 76.86790466 107.87675476 C75.11324137 112.88675863 75.11324137 112.88675863 74 114 C71.40640678 114.08851529 68.83960309 114.11525945 66.24609375 114.09765625 C65.47064713 114.0962413 64.6952005 114.09482635 63.89625549 114.09336853 C61.40996506 114.08775345 58.9237634 114.07519846 56.4375 114.0625 C54.75586067 114.05748694 53.07421994 114.0529237 51.39257812 114.04882812 C47.26168434 114.03777913 43.13085724 114.02050445 39 114 C35.94624357 107.47791992 33.47544236 100.86734601 31.19921875 94.0390625 C30.84563797 92.99098419 30.49205719 91.94290588 30.12776184 90.86306763 C28.97733147 87.45160434 27.83245758 84.03830349 26.6875 80.625 C25.07970095 75.85058893 23.46831723 71.07739499 21.85546875 66.3046875 C21.45024994 65.10493286 21.04503113 63.90517822 20.62753296 62.66906738 C17.98064039 54.84912005 15.28790414 47.04661749 12.55078125 39.2578125 C12.20432053 38.27128693 11.8578598 37.28476135 11.50090027 36.26834106 C9.87368515 31.6405189 8.23912009 27.01541854 6.59643555 22.39306641 C6.0120844 20.73604585 5.42784914 19.07898441 4.84375 17.421875 C4.58310257 16.69598175 4.32245514 15.9700885 4.0539093 15.22219849 C2.26576486 10.13096678 1.19019648 5.35588417 0 0 Z " fill="#FEFEFE" transform="translate(1055,307)"/>
<path d="M0 0 C0 13.86 0 27.72 0 42 C8.84072863 41.96040599 8.84072863 41.96040599 17.68139648 41.90991211 C19.32217163 41.90616577 19.32217163 41.90616577 20.99609375 41.90234375 C22.12200928 41.89710693 23.2479248 41.89187012 24.40795898 41.88647461 C27 42 27 42 28 43 C28.0991657 44.62257544 28.13079777 46.24939831 28.1328125 47.875 C28.13410156 48.85984375 28.13539062 49.8446875 28.13671875 50.859375 C28.13285156 51.89578125 28.12898438 52.9321875 28.125 54 C28.12886719 55.03640625 28.13273437 56.0728125 28.13671875 57.140625 C28.13542969 58.12546875 28.13414063 59.1103125 28.1328125 60.125 C28.13168457 61.03507812 28.13055664 61.94515625 28.12939453 62.8828125 C28 65 28 65 27 66 C25.00035018 66.08758003 22.9976389 66.10696576 20.99609375 66.09765625 C19.17368164 66.09282227 19.17368164 66.09282227 17.31445312 66.08789062 C16.03505859 66.07951172 14.75566406 66.07113281 13.4375 66.0625 C12.15423828 66.05798828 10.87097656 66.05347656 9.54882812 66.04882812 C6.36583978 66.03699545 3.18294238 66.02051068 0 66 C0.09251418 73.70488751 0.19985175 81.40946745 0.31738281 89.11401367 C0.3556107 91.73375797 0.39047427 94.35355365 0.421875 96.97338867 C0.46765941 100.74416436 0.525633 104.51458822 0.5859375 108.28515625 C0.59748871 109.45208511 0.60903992 110.61901398 0.62094116 111.82130432 C0.58833987 121.43200439 0.58833987 121.43200439 4.51953125 129.9296875 C8.49415757 131.64472311 12.41633343 131.27086018 16.6875 131.125 C18.42047557 131.08183431 20.15355387 131.04255597 21.88671875 131.0078125 C22.65201904 130.98348145 23.41731934 130.95915039 24.20581055 130.93408203 C26 131 26 131 27 132 C28.15748647 139.61654674 28.12068232 147.31655897 28 155 C14.59245223 159.32335514 -3.9374097 161.20665543 -17.0390625 155.20703125 C-19.85572581 153.47326838 -21.93691917 151.57885104 -24 149 C-24.50182297 148.38647171 -25.00364594 147.77294342 -25.52067566 147.14082336 C-31.29129174 138.78980162 -30.40009821 127.74965421 -30.29296875 118.05078125 C-30.28736001 116.5419304 -30.28309597 115.03307401 -30.28010559 113.5242157 C-30.26875718 109.59014281 -30.23937885 105.65641249 -30.20599365 101.72247314 C-30.17507446 97.69328442 -30.161554 93.66403929 -30.14648438 89.63476562 C-30.11449731 81.75635479 -30.06342539 73.87822024 -30 66 C-30.85549438 66.00785522 -30.85549438 66.00785522 -31.72827148 66.01586914 C-34.29800323 66.03658221 -36.86771747 66.0496419 -39.4375 66.0625 C-40.33533203 66.07087891 -41.23316406 66.07925781 -42.15820312 66.08789062 C-43.43920898 66.09272461 -43.43920898 66.09272461 -44.74609375 66.09765625 C-45.53685303 66.10289307 -46.3276123 66.10812988 -47.14233398 66.11352539 C-49 66 -49 66 -50 65 C-50.0991657 63.37742456 -50.13079777 61.75060169 -50.1328125 60.125 C-50.13410156 59.14015625 -50.13539062 58.1553125 -50.13671875 57.140625 C-50.13285156 56.10421875 -50.12898438 55.0678125 -50.125 54 C-50.13080078 52.44539063 -50.13080078 52.44539063 -50.13671875 50.859375 C-50.13542969 49.87453125 -50.13414063 48.8896875 -50.1328125 47.875 C-50.13168457 46.96492188 -50.13055664 46.05484375 -50.12939453 45.1171875 C-50 43 -50 43 -49 42 C-47.58429877 41.91348389 -46.164405 41.89295096 -44.74609375 41.90234375 C-43.9770874 41.90484131 -43.20808105 41.90733887 -42.41577148 41.90991211 C-41.43294189 41.91901611 -40.4501123 41.92812012 -39.4375 41.9375 C-34.7659375 41.9684375 -34.7659375 41.9684375 -30 42 C-30 30.45 -30 18.9 -30 7 C-25.978125 5.845 -21.95625 4.69 -17.8125 3.5 C-16.55284424 3.13455078 -15.29318848 2.76910156 -13.99536133 2.39257812 C-12.9927124 2.10833984 -11.99006348 1.82410156 -10.95703125 1.53125 C-9.93585205 1.23798828 -8.91467285 0.94472656 -7.86254883 0.64257812 C-5 0 -5 0 0 0 Z " fill="#FEFEFE" transform="translate(1331,265)"/>
<path d="M0 0 C1 1 1 1 1.1328125 3.08203125 C1.0905649 17.84756783 1.0905649 17.84756783 0 24 C-2.5727594 25.2863797 -3.37465345 24.77572546 -6.125 24.0625 C-10.86560023 23.05356759 -15.4217219 22.74028325 -20.25 22.6875 C-20.92305176 22.67017822 -21.59610352 22.65285645 -22.28955078 22.63500977 C-26.92467692 22.6390184 -30.08727641 23.52850152 -34 26 C-36.50031654 29.75047482 -36.53603554 31.55856266 -36 36 C-32.64898315 40.00771796 -29.51639577 41.93428085 -24.6875 43.8125 C-23.44904441 44.31801248 -22.21212226 44.82729405 -20.9765625 45.33984375 C-20.33106445 45.60651855 -19.68556641 45.87319336 -19.02050781 46.14794922 C0.85793339 54.53071381 0.85793339 54.53071381 6 63 C6.35320312 63.5671875 6.70640625 64.134375 7.0703125 64.71875 C10.83480477 72.4512206 10.30829933 84.41470102 7.5625 92.375 C2.96663665 102.0052013 -5.10395443 109.32174716 -14.95703125 113.1484375 C-24.19265295 116.3598374 -32.46357963 117.18176317 -42.1875 117.1875 C-43.26064453 117.19974609 -44.33378906 117.21199219 -45.43945312 117.22460938 C-52.44957979 117.23733193 -59.18764604 116.75350687 -66 115 C-67 114 -67 114 -67.03759766 112.23754883 C-66.99683105 111.48497803 -66.95606445 110.73240723 -66.9140625 109.95703125 C-66.87023438 109.13009766 -66.82640625 108.30316406 -66.78125 107.45117188 C-66.7296875 106.58041016 -66.678125 105.70964844 -66.625 104.8125 C-66.55925781 103.53536133 -66.55925781 103.53536133 -66.4921875 102.23242188 C-66.24294054 97.75636186 -65.85185759 93.4108897 -65 89 C-64.34773438 89.13277344 -63.69546875 89.26554687 -63.0234375 89.40234375 C-62.14945313 89.57894531 -61.27546875 89.75554687 -60.375 89.9375 C-59.51648437 90.11152344 -58.65796875 90.28554688 -57.7734375 90.46484375 C-43.26982251 93.27783411 -43.26982251 93.27783411 -29.1875 90.1875 C-25.86193327 88.19607718 -25.86193327 88.19607718 -24 85 C-23.47400964 80.94236005 -23.45584954 78.81622569 -25.75 75.375 C-30.05796941 71.67038765 -35.77540616 70.01408393 -41 68 C-52.49358428 63.53924675 -61.83840629 59.54585373 -67.08984375 47.796875 C-70.11195086 38.51005658 -69.56083174 29.04503245 -66 20 C-64.32467598 16.96152414 -62.38273878 14.51329981 -60 12 C-59.43539063 11.38382812 -58.87078125 10.76765625 -58.2890625 10.1328125 C-43.53183392 -4.37534893 -18.88124168 -3.69005722 0 0 Z " fill="#FEFEFE" transform="translate(1758,306)"/>
<path d="M0 0 C0 13.86 0 27.72 0 42 C9.9 42 19.8 42 30 42 C30 48.6 30 55.2 30 62 C20.1 62 10.2 62 0 62 C0.08883211 69.51332614 0.17950938 77.02625815 0.28729248 84.53927612 C0.33698889 88.03884092 0.38347549 91.5383774 0.421875 95.03808594 C0.46620897 99.06463621 0.52574469 103.09084283 0.5859375 107.1171875 C0.59748871 108.35612762 0.60903992 109.59506775 0.62094116 110.87155151 C0.29289984 122.42277272 0.29289984 122.42277272 4.44760132 132.70748901 C7.27717935 135.06336623 9.18787332 135.11935016 12.7890625 135.09765625 C13.73007812 135.09443359 14.67109375 135.09121094 15.640625 135.08789062 C16.62546875 135.07951172 17.6103125 135.07113281 18.625 135.0625 C20.11386719 135.05573242 20.11386719 135.05573242 21.6328125 135.04882812 C24.0886016 135.03702145 26.54427104 135.020554 29 135 C29.33745354 137.39531756 29.6700829 139.79114268 30 142.1875 C30.09539062 142.86103516 30.19078125 143.53457031 30.2890625 144.22851562 C30.78324613 147.84664577 31.11346131 151.34796401 31 155 C23.40397484 158.45273871 15.38494694 158.23636272 7.1875 158.3125 C6.15818359 158.34150391 5.12886719 158.37050781 4.06835938 158.40039062 C-4.00758925 158.46679627 -10.86191734 157.14225139 -17.40234375 152.17578125 C-17.90894531 151.56089844 -18.41554688 150.94601563 -18.9375 150.3125 C-19.72447266 149.40951172 -19.72447266 149.40951172 -20.52734375 148.48828125 C-25.92829099 139.36254281 -25.3942304 129.93193611 -25.29296875 119.71484375 C-25.28736464 118.04619226 -25.2830984 116.37753578 -25.28010559 114.70887756 C-25.26872089 110.34406603 -25.23930962 105.97956004 -25.20599365 101.61486816 C-25.17515432 97.15018851 -25.16157079 92.68545888 -25.14648438 88.22070312 C-25.11443289 79.48031378 -25.06171808 70.74023025 -25 62 C-32.26 62 -39.52 62 -47 62 C-47 55.4 -47 48.8 -47 42 C-39.74 42 -32.48 42 -25 42 C-25 30.12 -25 18.24 -25 6 C-21.431875 5.01 -17.86375 4.02 -14.1875 3 C-13.06625732 2.68675781 -11.94501465 2.37351563 -10.78979492 2.05078125 C-9.46105347 1.68533203 -9.46105347 1.68533203 -8.10546875 1.3125 C-7.19949951 1.06113281 -6.29353027 0.80976562 -5.36010742 0.55078125 C-3 0 -3 0 0 0 Z " fill="#FEFEFE" transform="translate(982,38)"/>
<path d="M0 0 C-0.13857841 3.12536637 -0.28709569 6.25018217 -0.4375 9.375 C-0.47681641 10.26445313 -0.51613281 11.15390625 -0.55664062 12.0703125 C-0.59853516 12.92109375 -0.64042969 13.771875 -0.68359375 14.6484375 C-0.72025146 15.43395996 -0.75690918 16.21948242 -0.79467773 17.02880859 C-1 19 -1 19 -2 21 C-2.76441406 20.855625 -3.52882813 20.71125 -4.31640625 20.5625 C-15.3082547 18.65777536 -27.78654427 16.50044691 -38 22 C-40.71073698 24.9197424 -41.45112757 26.97272377 -41.5 30.9375 C-41.35737677 34.41139436 -41.12496602 35.79916176 -39.25 38.8125 C-33.52129234 42.66836092 -27.13645736 44.8524256 -20.6796875 47.21484375 C-10.32674357 51.04518825 -0.4656782 54.82626237 5 65 C8.69314596 73.81861468 9.01249909 81.4351079 6.0390625 90.48046875 C1.86476308 100.60236019 -5.32611151 107.29122635 -15.15185547 111.82446289 C-24.31735593 115.60741204 -33.2966662 116.45720456 -43.125 116.3125 C-44.22714844 116.31572266 -45.32929687 116.31894531 -46.46484375 116.32226562 C-63.79077425 116.20922575 -63.79077425 116.20922575 -67 113 C-67.42044171 106.18637115 -67.45969967 98.69258527 -66 92 C-63.25063877 90.62531938 -62.20545451 91.43230332 -59.3125 92.375 C-48.4679726 95.44099204 -36.56855668 96.62478704 -26 92 C-22.96642581 89.72318841 -21.45942346 87.16387276 -20.0625 83.625 C-19.97522082 79.95927461 -20.22871844 76.26175018 -22 73 C-24.19028335 71.83204135 -24.19028335 71.83204135 -27 71 C-28.17691406 70.56042969 -29.35382812 70.12085938 -30.56640625 69.66796875 C-31.53308228 69.31049561 -31.53308228 69.31049561 -32.51928711 68.94580078 C-35.3452191 67.89700824 -38.163211 66.82757584 -40.98144531 65.75830078 C-42.7812508 65.08217646 -44.58934186 64.4282023 -46.3984375 63.77734375 C-55.70160398 60.24979348 -63.12823739 55.22725574 -67.34375 45.95703125 C-70.39395597 36.8608813 -69.94645665 26.72746864 -66 18 C-60.33456395 8.17022634 -51.44326422 2.50497082 -40.625 -0.4375 C-27.5703456 -3.58758271 -12.99349701 -3.18174093 0 0 Z " fill="#FEFEFE" transform="translate(918,80)"/>
<path d="M0 0 C0.91289795 0.00386719 1.8257959 0.00773437 2.76635742 0.01171875 C9.18095058 0.0939791 15.33428079 0.61636873 21.5625 2.25 C22.55693769 5.23331306 22.58702065 6.45838759 22.22265625 9.48046875 C22.12919922 10.28291016 22.03574219 11.08535156 21.93945312 11.91210938 C21.83568359 12.74548828 21.73191406 13.57886719 21.625 14.4375 C21.47514648 15.7049707 21.47514648 15.7049707 21.32226562 16.99804688 C21.07492892 19.08274197 20.81948959 21.16647284 20.5625 23.25 C19.79808594 23.105625 19.03367187 22.96125 18.24609375 22.8125 C7.2542453 20.90777536 -5.22404427 18.75044691 -15.4375 24.25 C-18.54927553 26.96025611 -19.20570631 30.14499994 -19.5546875 34.2265625 C-19.34356219 37.87199282 -17.88039729 39.62835413 -15.4375 42.25 C-10.01600155 45.58032638 -3.98110637 47.56112244 2 49.625 C12.40060264 53.36077971 21.25831542 57.75006535 27.5625 67.25 C30.69566457 74.65851957 30.81502794 84.21853833 28.875 92.01171875 C27.93595148 94.2536971 26.87674843 96.2069783 25.5625 98.25 C25.13839844 98.94480469 24.71429687 99.63960938 24.27734375 100.35546875 C17.72126999 110.08913815 6.48706857 115.45783805 -4.75244141 117.84863281 C-10.10332542 118.64849218 -15.47627661 118.53577288 -20.875 118.5 C-22.03837891 118.50773437 -23.20175781 118.51546875 -24.40039062 118.5234375 C-31.31733303 118.50786757 -37.72221876 117.93289337 -44.4375 116.25 C-45.5589949 111.39107171 -45.23186525 107.39620539 -44.625 102.5 C-44.54185547 101.72011719 -44.45871094 100.94023437 -44.37304688 100.13671875 C-44.13801267 98.16380393 -43.79605768 96.20424419 -43.4375 94.25 C-40.68813877 92.87531938 -39.64295451 93.68230332 -36.75 94.625 C-25.57990732 97.8101644 -13.45188143 99.07602623 -3 93.375 C0.98799376 90.06788322 1.44405711 88.4936503 1.9375 83.3125 C2.06917698 80.30188542 1.55277871 79.23508208 -0.1328125 76.6484375 C-2.61088375 74.06956336 -4.36970448 73.07752539 -7.6875 71.8125 C-8.739375 71.4 -9.79125 70.9875 -10.875 70.5625 C-13.41176003 69.6279042 -15.95090831 68.7118965 -18.5 67.8125 C-32.78806689 62.72736915 -32.78806689 62.72736915 -38.4375 57.25 C-38.92476562 56.77820313 -39.41203125 56.30640625 -39.9140625 55.8203125 C-46.47358484 48.72375325 -47.0069708 41.19606268 -46.77734375 31.9375 C-45.91302845 22.55918226 -41.66142128 15.2699344 -34.4375 9.25 C-23.40818513 2.36980834 -12.95252413 -0.13378979 0 0 Z " fill="#FEFEFE" transform="translate(670.4375,77.75)"/>
<path d="M0 0 C1.07507812 -0.00128906 2.15015625 -0.00257812 3.2578125 -0.00390625 C4.38960937 -0.00003906 5.52140625 0.00382812 6.6875 0.0078125 C7.81929687 0.00394531 8.95109375 0.00007813 10.1171875 -0.00390625 C11.19226562 -0.00261719 12.26734375 -0.00132813 13.375 0 C14.86580078 0.00169189 14.86580078 0.00169189 16.38671875 0.00341797 C18.6875 0.1328125 18.6875 0.1328125 19.6875 1.1328125 C19.78442063 3.27174517 19.80936803 5.41394217 19.80775452 7.55506897 C19.80860894 8.23379309 19.80946337 8.9125172 19.81034368 9.61180872 C19.81200041 11.90277176 19.806474 14.19366276 19.80102539 16.48461914 C19.80074353 18.12021381 19.80090122 19.7558086 19.8014679 21.3914032 C19.80175593 25.84575836 19.79585824 30.30008684 19.78889394 34.75443578 C19.78266139 39.40427724 19.78205668 44.05411924 19.78086853 48.70396423 C19.77775492 57.51542952 19.76954113 66.32688247 19.75951904 75.13834232 C19.74835882 85.16719358 19.74284768 95.19604541 19.73782361 105.22490132 C19.72735854 125.8608788 19.70955814 146.49684444 19.6875 167.1328125 C11.1075 167.1328125 2.5275 167.1328125 -6.3125 167.1328125 C-6.33561687 145.50637316 -6.35347814 123.87993678 -6.36431217 102.25348759 C-6.36947558 92.21268863 -6.37651912 82.17189747 -6.38793945 72.13110352 C-6.39788493 63.38285948 -6.4043531 54.63462109 -6.40658849 45.88637155 C-6.40789583 41.25126251 -6.41098315 36.61616963 -6.41823006 31.98106575 C-6.42498813 27.62355771 -6.4271174 23.26607258 -6.42560768 18.9085598 C-6.42588411 17.30448406 -6.42789049 15.70040759 -6.43170547 14.09633636 C-6.43663941 11.9158852 -6.43549942 9.73552193 -6.43275452 7.55506897 C-6.43367631 6.33184968 -6.4345981 5.10863039 -6.43554783 3.84834385 C-6.22132431 -0.87933549 -4.22542614 0.00479539 0 0 Z " fill="#FEFEFE" transform="translate(1595.3125,26.8671875)"/>
<path d="M0 0 C0.5400109 4.12008315 0.72916129 7.8945049 0 12 C-2.41844937 14.97507661 -5.61586272 16.29471207 -9 18 C-11.01353242 19.18232884 -13.00539435 20.3969584 -14.99780273 21.61450195 C-17.98261123 23.43672807 -20.99190088 25.21654202 -24 27 C-22.88625 27.88945312 -22.88625 27.88945312 -21.75 28.796875 C-20.8425 29.52390625 -19.935 30.2509375 -19 31 C-17.9790625 31.81210937 -17.9790625 31.81210937 -16.9375 32.640625 C-9.34434696 38.94784083 -4.69792678 46.15754636 -3 56 C-3 58.97 -3 61.94 -3 65 C3.93 65 10.86 65 18 65 C18 52.13 18 39.26 18 26 C21.96 26 25.92 26 30 26 C30 38.87 30 51.74 30 65 C37.59 65 45.18 65 53 65 C53 52.13 53 39.26 53 26 C57.29 26 61.58 26 66 26 C66 42.5 66 59 66 76 C22.11 76 -21.78 76 -67 76 C-67 51.58 -67 27.16 -67 2 C-62.71 2 -58.42 2 -54 2 C-54 22.79 -54 43.58 -54 65 C-41.13 65 -28.26 65 -15 65 C-18.19813839 50.05687592 -18.19813839 50.05687592 -28 40 C-30.24031693 38.85489076 -32.51334304 37.77184754 -34.8125 36.75 C-35.97394531 36.22921875 -37.13539062 35.7084375 -38.33203125 35.171875 C-39.21246094 34.78515625 -40.09289063 34.3984375 -41 34 C-41.54261546 30.53051078 -41.72113125 27.45284667 -41 24 C-38.52296393 21.22615132 -35.48303734 19.77911205 -32.1875 18.125 C-30.35904367 17.1253778 -28.53226312 16.12268525 -26.70703125 15.1171875 C-25.76553223 14.61155273 -24.8240332 14.10591797 -23.85400391 13.58496094 C-19.22763267 11.0157221 -14.81204553 8.13010452 -10.375 5.25 C-8.80236102 4.2299183 -7.22707392 3.21390049 -5.6484375 2.203125 C-4.66109619 1.56358887 -4.66109619 1.56358887 -3.65380859 0.91113281 C-2 0 -2 0 0 0 Z " fill="#FEFEFE" transform="translate(1346,475)"/>
<path d="M0 0 C9.9 0 19.8 0 30 0 C31.58048529 1.58048529 31.12597951 3.17170572 31.12698364 5.36547852 C31.12980347 6.30779327 31.13262329 7.25010803 31.13552856 8.22097778 C31.13350433 9.26309418 31.1314801 10.30521057 31.12939453 11.37890625 C31.13114685 12.46984589 31.13289917 13.56078552 31.13470459 14.68478394 C31.13912563 18.31070521 31.13618422 21.93657818 31.1328125 25.5625 C31.13348547 28.06974293 31.13445543 30.57698581 31.13571167 33.08422852 C31.13718899 38.34684751 31.1351276 43.60945382 31.13037109 48.87207031 C31.12492851 54.96428202 31.12669118 61.05646026 31.1321975 67.14867115 C31.13727443 72.99901018 31.13674705 78.84933645 31.13381577 84.69967651 C31.13314624 87.19408167 31.13397579 89.68848768 31.13629532 92.18289185 C31.13882036 95.66231586 31.13498334 99.14167462 31.12939453 102.62109375 C31.13141876 103.66321014 31.13344299 104.70532654 31.13552856 105.77902222 C31.13129883 107.19249435 31.13129883 107.19249435 31.12698364 108.63452148 C31.12660662 109.45822739 31.12622959 110.28193329 31.12584114 111.13059998 C31 113 31 113 30 114 C20.1 114 10.2 114 0 114 C0 76.38 0 38.76 0 0 Z " fill="#FEFEFE" transform="translate(627,307)"/>
<path d="M0 0 C2.81529752 10.4903348 3.28786452 20.75250707 3.25 31.5625 C3.24677734 32.87041504 3.24355469 34.17833008 3.24023438 35.52587891 C3.07973283 51.92026717 3.07973283 51.92026717 1 54 C-2.49162965 54.28268837 -5.99831283 54.23195007 -9.5 54.25 C-10.469375 54.270625 -11.43875 54.29125 -12.4375 54.3125 C-20.24097407 54.35445416 -27.99801407 53.48007411 -34 48 C-34.845625 48.78375 -35.69125 49.5675 -36.5625 50.375 C-41.13036806 54.1317513 -45.69610126 55.26231738 -51.5625 54.9375 C-56.31484994 54.28649316 -58.65516625 52.34483375 -62 49 C-62.53625 49.268125 -63.0725 49.53625 -63.625 49.8125 C-64.40875 50.204375 -65.1925 50.59625 -66 51 C-66.8559375 51.515625 -67.711875 52.03125 -68.59375 52.5625 C-72.87602734 54.36969961 -76.29339385 54.33892597 -80.875 54.1875 C-82.050625 54.16719727 -82.050625 54.16719727 -83.25 54.14648438 C-85.16696782 54.11141789 -87.08357751 54.05762072 -89 54 C-88.97550781 55.06089844 -88.95101563 56.12179687 -88.92578125 57.21484375 C-89.04703225 63.39864481 -90.80812607 68.08577823 -94.0625 73.3125 C-101.383983 80.01087806 -109.25263372 80.42238043 -118.77734375 80.23828125 C-122 80 -122 80 -125 79 C-124.8864371 77.35333797 -124.75882619 75.70763918 -124.625 74.0625 C-124.55539062 73.14597656 -124.48578125 72.22945312 -124.4140625 71.28515625 C-124.20910156 70.15400391 -124.20910156 70.15400391 -124 69 C-122 68 -122 68 -119.8125 68.4375 C-115.25980249 69.3480395 -111.48903422 69.66179299 -107.1875 67.75 C-104.81167478 65.84933983 -104.09935736 64.79761226 -103 62 C-102.68102244 59.30100751 -102.68102244 59.30100751 -102.69702148 56.3293457 C-102.68037949 55.19169266 -102.66373749 54.05403961 -102.64659119 52.88191223 C-102.63817703 51.65888901 -102.62976288 50.43586578 -102.62109375 49.17578125 C-102.60409927 47.91863815 -102.5871048 46.66149506 -102.56959534 45.36625671 C-102.52545859 42.03103877 -102.48913794 38.69594089 -102.45739746 35.3605957 C-102.41162537 30.6491591 -102.35587962 25.93786855 -102.29469299 21.22660828 C-102.26261947 18.7182174 -102.23576635 16.20975363 -102.21446228 13.70124817 C-102.20097244 12.57305161 -102.1874826 11.44485504 -102.17358398 10.2824707 C-102.16407211 9.28415726 -102.15456024 8.28584381 -102.14476013 7.25727844 C-102 5 -102 5 -101 4 C-97.04 4 -93.08 4 -89 4 C-89 16.87 -89 29.74 -89 43 C-73.30104585 43.96540969 -73.30104585 43.96540969 -69 39 C-67.82178995 35.78630825 -67.80498791 32.53966136 -67.68359375 29.140625 C-67.62075195 27.46806641 -67.62075195 27.46806641 -67.55664062 25.76171875 C-67.51732422 24.60285156 -67.47800781 23.44398438 -67.4375 22.25 C-67.37272461 20.48849609 -67.37272461 20.48849609 -67.30664062 18.69140625 C-67.20065206 15.79438549 -67.09858362 12.89728065 -67 10 C-65.02090602 9.97313447 -63.04171029 9.95366625 -61.0625 9.9375 C-59.96035156 9.92589844 -58.85820313 9.91429687 -57.72265625 9.90234375 C-55 10 -55 10 -54 11 C-53.86578517 13.10930593 -53.79637506 15.22279256 -53.75390625 17.3359375 C-53.72103516 18.62757813 -53.68816406 19.91921875 -53.65429688 21.25 C-53.60690211 23.31277738 -53.56248993 25.37552843 -53.52319336 27.43847656 C-53.48344707 29.42531479 -53.43133993 31.41189361 -53.37890625 33.3984375 C-53.3538501 34.59130371 -53.32879395 35.78416992 -53.30297852 37.01318359 C-53.2169025 40.18153471 -53.2169025 40.18153471 -51 43 C-47.07788294 43.50842258 -44.89849481 43.63840421 -41.625 41.3125 C-38.66546185 37.10084955 -38.84413542 32.40937942 -38.68359375 27.38671875 C-38.64169922 26.13955078 -38.59980469 24.89238281 -38.55664062 23.60742188 C-38.51732422 22.31384766 -38.47800781 21.02027344 -38.4375 19.6875 C-38.37272461 17.71813477 -38.37272461 17.71813477 -38.30664062 15.70898438 C-38.20072832 12.47277518 -38.09987581 9.23640111 -38 6 C-34.04 6 -30.08 6 -26 6 C-25.970271 7.37720215 -25.970271 7.37720215 -25.93994141 8.78222656 C-25.86173045 12.19671825 -25.77503416 15.61077702 -25.68261719 19.02490234 C-25.64439334 20.50105536 -25.60952897 21.97729943 -25.578125 23.45361328 C-25.53233014 25.57878094 -25.47436163 27.70332542 -25.4140625 29.828125 C-25.3826416 31.1059082 -25.3512207 32.38369141 -25.31884766 33.70019531 C-25.02488248 36.74248726 -24.70224419 38.499947 -23 41 C-20.43106162 42.28446919 -18.23423663 42.32977144 -15.375 42.5625 C-14.37210938 42.64628906 -13.36921875 42.73007812 -12.3359375 42.81640625 C-11.56507812 42.87699219 -10.79421875 42.93757812 -10 43 C-10.39416443 22.4010847 -10.39416443 22.4010847 -13 2 C-11.58461283 1.66127487 -10.16762037 1.32925376 -8.75 1 C-7.96109375 0.814375 -7.1721875 0.62875 -6.359375 0.4375 C-4 0 -4 0 0 0 Z " fill="#FEFEFE" transform="translate(1765,497)"/>
<path d="M0 0 C1.16740723 -0.01546875 1.16740723 -0.01546875 2.35839844 -0.03125 C9.14851444 0.07022122 13.674118 1.54180491 20.625 3.4375 C20.625 15.6475 20.625 27.8575 20.625 40.4375 C31.02 39.9425 31.02 39.9425 41.625 39.4375 C40.635 37.1275 39.645 34.8175 38.625 32.4375 C37.48705192 24.67689912 38.41297306 17.13181481 42.625 10.4375 C48.08579104 4.26172872 53.08904131 0.83800559 61.4296875 0.1015625 C76.26953734 -0.2306999 76.26953734 -0.2306999 81.625 4.4375 C87.66214314 10.94108908 88.78339587 15.71772126 88.72265625 24.484375 C88.7212413 25.25557678 88.71982635 26.02677856 88.71836853 26.8213501 C88.71278534 29.27677338 88.70023595 31.73210442 88.6875 34.1875 C88.68248283 35.85546743 88.6779203 37.52343629 88.67382812 39.19140625 C88.66282141 43.27347287 88.64556836 47.35547081 88.625 51.4375 C76.42855314 51.5071988 64.23215414 51.56041201 52.03554821 51.59293652 C46.37136456 51.60855146 40.70731779 51.62971329 35.04321289 51.66381836 C29.57077513 51.69656085 24.09846853 51.71438435 18.62594032 51.72213173 C16.544487 51.72764859 14.46304035 51.7384213 12.3816433 51.75469017 C-14.80563193 51.95862519 -14.80563193 51.95862519 -23.0078125 44.05078125 C-28.63844123 37.40663935 -28.97318069 29.74431105 -28.375 21.4375 C-26.99213833 13.52093411 -22.87545418 7.9258433 -16.5859375 3.05078125 C-11.35987627 0.0837943 -5.86271375 0.06414849 0 0 Z M-13.1875 15.375 C-15.86621553 20.02750592 -15.88425989 25.19939823 -15.375 30.4375 C-13.81892346 34.63890665 -12.24450532 37.13998122 -8.375 39.4375 C-2.98983519 41.23255494 2.94853788 40.4375 8.625 40.4375 C8.625 31.1975 8.625 21.9575 8.625 12.4375 C0.49029606 9.72593202 -6.7176108 8.45891154 -13.1875 15.375 Z M53.8125 15.4375 C50.85541714 20.41785008 51.04645224 25.82076545 51.625 31.4375 C53.82075399 35.99165643 56.08543178 38.29724161 60.625 40.4375 C63.48172736 40.64734775 66.09701222 40.72399823 68.9375 40.625 C69.67806641 40.61146484 70.41863281 40.59792969 71.18164062 40.58398438 C72.99641075 40.54885979 74.81080288 40.49505972 76.625 40.4375 C76.70666849 37.43693916 76.76581551 34.4386461 76.8125 31.4375 C76.83763672 30.59832031 76.86277344 29.75914062 76.88867188 28.89453125 C76.95683997 23.03207481 76.10727011 18.77110676 73.625 13.4375 C70.7395905 10.87269155 69.02575532 10.48121876 65.1875 10.0625 C60.38466067 10.56806204 57.08761625 11.82357862 53.8125 15.4375 Z " fill="#FEFEFE" transform="translate(662.375,499.5625)"/>
<path d="M0 0 C9.9 0 19.8 0 30 0 C30 37.62 30 75.24 30 114 C20.1 114 10.2 114 0 114 C0 76.38 0 38.76 0 0 Z " fill="#FEFEFE" transform="translate(1381,307)"/>
<path d="M0 0 C1.34113865 4.42340466 1.57708835 7.61589275 0 12 C-4.84983214 16.57110616 -10.99038805 19.57721231 -16.80615234 22.73828125 C-19.42947691 24.24699941 -21.72762935 26.00520671 -24 28 C-22.91332031 28.70962891 -22.91332031 28.70962891 -21.8046875 29.43359375 C-12.48615265 35.80747159 -6.43469385 43.07834787 -3.4296875 54.08984375 C-2.80311587 58.33344248 -2.89598315 62.529877 -2.9375 66.8125 C-2.94201172 67.69615234 -2.94652344 68.57980469 -2.95117188 69.49023438 C-2.96290134 71.66018559 -2.98083505 73.83010172 -3 76 C-13.01448056 76.04646504 -23.0289352 76.08194098 -33.04350185 76.10362434 C-37.69432334 76.11403445 -42.34507075 76.12814272 -46.99584961 76.15087891 C-51.48920985 76.17270653 -55.98249909 76.18458946 -60.47590828 76.18975449 C-62.18499938 76.1934325 -63.89408686 76.2006145 -65.60314751 76.21146011 C-89.11813322 76.35466797 -89.11813322 76.35466797 -98 69 C-104.05375431 61.23877652 -103.9963165 52.45830504 -103 43 C-101.20595011 36.27650462 -97.71953751 32.07967924 -92.0625 28.15625 C-86.39708282 24.9801828 -81.76849933 24.663608 -75.375 24.6875 C-74.11623047 24.66333008 -74.11623047 24.66333008 -72.83203125 24.63867188 C-65.74482632 24.63326179 -61.26133432 26.01963609 -54 28 C-54 40.21 -54 52.42 -54 65 C-41.13 65 -28.26 65 -15 65 C-18.13329562 49.95602354 -18.13329562 49.95602354 -27.9140625 40.26171875 C-30.9068144 38.73621626 -33.92303753 37.3456354 -37 36 C-38.33602144 35.33873686 -39.66988544 34.67306573 -41 34 C-41.80420879 30.43032108 -41.98002562 27.54887106 -41 24 C-37.44026725 20.4909757 -33.17423289 18.2444097 -28.8125 15.875 C-27.11577148 14.89853516 -27.11577148 14.89853516 -25.38476562 13.90234375 C-23.09889078 12.58682603 -20.80468645 11.28567741 -18.50244141 9.99902344 C-13.75095985 7.32221241 -9.15795968 4.39330614 -4.5534668 1.47314453 C-2 0 -2 0 0 0 Z M-89 41 C-91.30405661 47.3277262 -91.43106293 52.76379509 -89 59 C-86.39573606 62.13847192 -84.86911375 63.71029542 -81 65 C-76.38 65 -71.76 65 -67 65 C-67 55.76 -67 46.52 -67 37 C-75.5265301 33.58938796 -82.69261811 33.65555532 -89 41 Z " fill="#FEFEFE" transform="translate(1644,475)"/>
<path d="M0 0 C8.25 0 16.5 0 25 0 C25 37.62 25 75.24 25 114 C16.75 114 8.5 114 0 114 C0 76.38 0 38.76 0 0 Z " fill="#FEFEFE" transform="translate(1155,80)"/>
<path d="M0 0 C-0.2165625 0.54785156 -0.433125 1.09570312 -0.65625 1.66015625 C-3.71314847 10.3638255 -5.27755234 21.12180487 -1.25 29.75 C2.38709906 35.00358753 5.78951077 36.79293738 12 38 C16.30898092 38.37632706 20.61467525 38.50661256 24.9375 38.625 C28.918125 38.74875 32.89875 38.8725 37 39 C37 26.13 37 13.26 37 0 C41.29 0 45.58 0 50 0 C50 16.5 50 33 50 50 C44.18375 50.061875 38.3675 50.12375 32.375 50.1875 C29.66869385 50.22846802 29.66869385 50.22846802 26.90771484 50.27026367 C14.92571386 50.37616744 1.9309955 50.35615336 -8.09375 42.875 C-13.85546487 37.20773948 -16.7529681 30.75680036 -17.16796875 22.765625 C-17.25274725 7.50549451 -17.25274725 7.50549451 -14 1 C-11.6015625 0.33203125 -11.6015625 0.33203125 -8.625 -0.1875 C-7.64789062 -0.36667969 -6.67078125 -0.54585938 -5.6640625 -0.73046875 C-3 -1 -3 -1 0 0 Z " fill="#FEFEFE" transform="translate(1148,501)"/>
<path d="M0 0 C3.96 0 7.92 0 12 0 C12 24.42 12 48.84 12 74 C-2.52 74 -17.04 74 -32 74 C-32 64 -32 64 -31 63 C-28.78144736 62.91216458 -26.56011504 62.89305391 -24.33984375 62.90234375 C-23.34314415 62.90446617 -23.34314415 62.90446617 -22.3263092 62.90663147 C-20.19666101 62.91224482 -18.06711661 62.92479946 -15.9375 62.9375 C-14.49674631 62.94251329 -13.05599097 62.94707649 -11.61523438 62.95117188 C-8.07678898 62.96221855 -4.53840461 62.97949208 -1 63 C-1.00222061 62.22547989 -1.00444122 61.45095978 -1.00672913 60.65296936 C-1.02673134 53.36878979 -1.04197377 46.08462345 -1.05181217 38.80042362 C-1.05704014 35.05516963 -1.06413622 31.30993824 -1.07543945 27.56469727 C-1.08627141 23.95318313 -1.09227749 20.34169079 -1.09487724 16.73016167 C-1.09673094 15.34939671 -1.10035049 13.968633 -1.10573006 12.58787727 C-1.11294447 10.66024048 -1.11340809 8.73258193 -1.11352539 6.80493164 C-1.115746 5.70572891 -1.11796661 4.60652618 -1.12025452 3.47401428 C-1 1 -1 1 0 0 Z " fill="#FEFEFE" transform="translate(1462,477)"/>
<path d="M0 0 C1.97909398 -0.02686553 3.95828971 -0.04633375 5.9375 -0.0625 C7.03964844 -0.07410156 8.14179687 -0.08570313 9.27734375 -0.09765625 C12 0 12 0 13 1 C13.10386816 2.6093579 13.13852454 4.22324533 13.14526367 5.8359375 C13.15164352 6.8679126 13.15802338 7.8998877 13.16459656 8.96313477 C13.16570938 10.08905029 13.1668222 11.21496582 13.16796875 12.375 C13.17296135 14.10544556 13.17296135 14.10544556 13.17805481 15.87084961 C13.18313193 18.32226156 13.18546289 20.77368046 13.18530273 23.22509766 C13.18747449 26.95617323 13.20558111 30.68694615 13.22460938 34.41796875 C13.22754617 36.79947816 13.22952905 39.18098897 13.23046875 41.5625 C13.23765427 42.67222168 13.24483978 43.78194336 13.25224304 44.92529297 C13.22625975 53.85368043 12.84652877 61.85424261 7 69 C0.82964192 74.90208164 -4.24665158 76.2798874 -12.6875 76.1875 C-13.99074219 76.18105469 -15.29398438 76.17460938 -16.63671875 76.16796875 C-20 76 -20 76 -23 75 C-23.07442057 71.13013042 -23.04702186 67.7264085 -22 64 C-21.13117188 64.10699219 -20.26234375 64.21398437 -19.3671875 64.32421875 C-12.27381096 65.09239644 -12.27381096 65.09239644 -5.3125 63.9375 C-1.82508352 61.01561051 -1.15641392 57.59939878 -0.7215271 53.15249634 C-0.70820343 52.17098602 -0.69487976 51.18947571 -0.68115234 50.17822266 C-0.66128265 49.05751373 -0.64141296 47.93680481 -0.62094116 46.78213501 C-0.60938995 45.58817108 -0.59783875 44.39420715 -0.5859375 43.1640625 C-0.56657135 41.92957367 -0.5472052 40.69508484 -0.5272522 39.42318726 C-0.46759903 35.49052788 -0.42112737 31.557839 -0.375 27.625 C-0.33787457 24.95439547 -0.29775475 22.28384636 -0.2578125 19.61328125 C-0.16190904 13.07562886 -0.07681971 6.53790298 0 0 Z " fill="#FEFEFE" transform="translate(1251,501)"/>
<path d="M0 0 C4.23771351 3.01348516 8.813962 6.98716983 10.4921875 12.05078125 C11.59399181 18.75566357 10.54871338 23.44238259 6.8125 29 C2.84201825 33.34862286 -0.90068202 35.010634 -6.59765625 35.91015625 C-12.2246099 36.10535977 -17.04811948 34.08153417 -21.5625 30.8125 C-25.28696182 26.82200519 -27.05776342 23.18935767 -27.28125 17.6953125 C-26.88262372 11.7757123 -25.03238136 7.74806603 -20.6953125 3.55859375 C-14.58081432 -1.78018451 -7.64760205 -2.3992477 0 0 Z " fill="#FEFEFE" transform="translate(1404.1875,256)"/>
<path d="M0 0 C4.75814358 2.66873921 8.00029965 6.12589896 9.75 11.375 C10.24914836 16.5874181 10.42229146 20.97870235 8.125 25.75 C3.16247336 31.23489787 -0.25808859 34.13918924 -7.6640625 35.2734375 C-13.11627502 35.48757273 -17.26709344 34.16817253 -21.33203125 30.4921875 C-26.15831454 25.16459984 -27.67764622 21.19533281 -27.59375 14.01171875 C-26.83154172 8.16523481 -23.65512057 4.47099405 -19.125 0.9375 C-12.92725656 -2.43083883 -6.48830233 -2.96713636 0 0 Z " fill="#FEFEFE" transform="translate(651.25,256.625)"/>
<path d="M0 0 C4.29 0 8.58 0 13 0 C13 24.42 13 48.84 13 74 C8.71 74 4.42 74 0 74 C0 49.58 0 25.16 0 0 Z " fill="#FEFEFE" transform="translate(1215,477)"/>
<path d="M0 0 C4.29 0 8.58 0 13 0 C13 24.42 13 48.84 13 74 C8.71 74 4.42 74 0 74 C0 49.58 0 25.16 0 0 Z " fill="#FEFEFE" transform="translate(1081,477)"/>
<path d="M0 0 C3.96 0 7.92 0 12 0 C12 24.42 12 48.84 12 74 C8.04 74 4.08 74 0 74 C-1.89122114 72.10877886 -1.12782618 68.80408428 -1.12939453 66.29296875 C-1.13114685 65.59217194 -1.13289917 64.89137512 -1.13470459 64.16934204 C-1.13912266 61.84203651 -1.13618529 59.51480636 -1.1328125 57.1875 C-1.13348555 55.57706691 -1.13445559 53.96663391 -1.13571167 52.35620117 C-1.13718858 48.97671545 -1.13503431 45.5972561 -1.13037109 42.21777344 C-1.1246738 37.87623495 -1.12795285 33.53475827 -1.13394356 29.19322205 C-1.13754936 25.86649099 -1.1364105 22.5397747 -1.13381577 19.21304321 C-1.13314655 17.61178582 -1.13397474 16.0105271 -1.13629532 14.40927124 C-1.13882216 12.17515489 -1.13498085 9.94114 -1.12939453 7.70703125 C-1.12859894 6.4331958 -1.12780334 5.15936035 -1.12698364 3.84692383 C-1 1 -1 1 0 0 Z " fill="#FEFEFE" transform="translate(1492,477)"/>
<path d="M0 0 C3.96 0 7.92 0 12 0 C12 24.42 12 48.84 12 74 C8.04 74 4.08 74 0 74 C0 49.58 0 25.16 0 0 Z " fill="#FEFEFE" transform="translate(767,477)"/>
<path d="M0 0 C3.94629779 2.07032753 6.82818004 4.40634738 9.01171875 8.26953125 C10.36195107 13.34605406 10.61843201 17.78876099 8.44921875 22.64453125 C5.86584829 26.99408355 2.85388837 29.52268376 -2.12890625 30.83203125 C-7.53269216 31.71428201 -11.15161431 31.05991602 -15.98828125 28.26953125 C-19.50255495 25.30192235 -21.95812182 22.80223275 -22.98828125 18.26953125 C-23.07723663 12.27616259 -22.0489591 7.86450881 -17.98828125 3.26953125 C-12.39071946 -0.90120106 -6.7789199 -2.49048727 0 0 Z " fill="#FEFEFE" transform="translate(1173.98828125,30.73046875)"/>
<path d="M0 0 C3.86583757 12.52667349 7.6467501 25.07813066 11.32595825 37.66085815 C11.73331956 39.05248113 12.14207013 40.4436982 12.55221558 41.83450317 C13.13129983 43.7999717 13.70504036 45.76692292 14.27734375 47.734375 C14.77609009 49.43932129 14.77609009 49.43932129 15.28491211 51.17871094 C16 54 16 54 16 57 C11.71 57 7.42 57 3 57 C0.58405493 50.82601884 -1.36267799 44.60255858 -3.171875 38.2265625 C-3.45855042 37.22160736 -3.74522583 36.21665222 -4.04058838 35.1812439 C-4.64068 33.07235107 -5.238939 30.96293598 -5.83544922 28.85302734 C-6.75368127 25.61200647 -7.68326894 22.37437615 -8.61328125 19.13671875 C-9.19600841 17.08353072 -9.77806384 15.03015189 -10.359375 12.9765625 C-10.63948425 12.00578766 -10.91959351 11.03501282 -11.20819092 10.03482056 C-11.58418427 8.69234756 -11.58418427 8.69234756 -11.96777344 7.32275391 C-12.19188904 6.53413971 -12.41600464 5.74552551 -12.64691162 4.93301392 C-13 3 -13 3 -12 1 C-7.95725364 0.22254878 -4.10418261 -0.04245706 0 0 Z " fill="#FEFEFE" transform="translate(1438,476)"/>
<path d="M0 0 C2.16551116 3.24826674 2.55156953 4.23094157 2 8 C0.375 10.3125 0.375 10.3125 -2 12 C-5.65852292 12.60975382 -7.30512879 12.44543026 -10.4375 10.4375 C-12 8 -12 8 -12.0625 4.4375 C-11 1 -11 1 -8.8125 -1.0625 C-5.12079408 -2.29306864 -3.45300514 -1.68813585 0 0 Z " fill="#FDFDFD" transform="translate(1410,559)"/>
<path d="M0 0 C2.5 0.5 2.5 0.5 4.875 2.0625 C6.5 4.5 6.5 4.5 6.5 8.0625 C5.5 11.5 5.5 11.5 3.75 13.5 C0.83305134 14.79642163 -0.51792673 14.57048784 -3.5 13.5 C-5.3125 12.3125 -5.3125 12.3125 -6.5 10.5 C-7.04624158 6.83237794 -6.97898298 5.1741242 -4.8125 2.125 C-2.5 0.5 -2.5 0.5 0 0 Z " fill="#FDFDFD" transform="translate(1740.5,480.5)"/>
<path d="M0 0 C2.5 0.5 2.5 0.5 4.875 2.0625 C6.5 4.5 6.5 4.5 6.5 8.0625 C5.5 11.5 5.5 11.5 3.75 13.5 C0.83305134 14.79642163 -0.51792673 14.57048784 -3.5 13.5 C-5.3125 12.3125 -5.3125 12.3125 -6.5 10.5 C-7.04624158 6.83237794 -6.97898298 5.1741242 -4.8125 2.125 C-2.5 0.5 -2.5 0.5 0 0 Z " fill="#FDFDFD" transform="translate(1724.5,480.5)"/>
<path d="M0 0 C2 1.5625 2 1.5625 3 4 C2.875 7.625 2.875 7.625 2 11 C-1.46923881 13.31282587 -2.92205575 13.42478586 -7 13 C-8.875 11.9375 -8.875 11.9375 -10 10 C-10.36528977 6.5906288 -10.6140629 4.11976176 -8.9375 1.0625 C-5.84506242 -0.63335287 -3.44485259 -0.43060657 0 0 Z " fill="#FEFEFE" transform="translate(1163,481)"/>
<path d="M0 0 C1.875 1.0625 1.875 1.0625 3 3 C3.63316583 8.90954774 3.63316583 8.90954774 1.875 11.9375 C-0.93512264 13.52990283 -2.82764724 13.45319325 -6 13 C-8.4375 11.4375 -8.4375 11.4375 -10 9 C-9.9375 5.375 -9.9375 5.375 -9 2 C-5.53076119 -0.31282587 -4.07794425 -0.42478586 0 0 Z " fill="#FEFEFE" transform="translate(1578,481)"/>
<path d="M0 0 C1.875 1.0625 1.875 1.0625 3 3 C3.63316583 8.90954774 3.63316583 8.90954774 1.875 11.9375 C-0.93512264 13.52990283 -2.82764724 13.45319325 -6 13 C-8.4375 11.4375 -8.4375 11.4375 -10 9 C-9.9375 5.375 -9.9375 5.375 -9 2 C-5.53076119 -0.31282587 -4.07794425 -0.42478586 0 0 Z " fill="#FCFCFC" transform="translate(1381,481)"/>
<path d="M0 0 C2.4375 1.5625 2.4375 1.5625 4 4 C3.9375 7.625 3.9375 7.625 3 11 C-0.46923881 13.31282587 -1.92205575 13.42478586 -6 13 C-7.875 11.9375 -7.875 11.9375 -9 10 C-9.63316583 4.09045226 -9.63316583 4.09045226 -7.875 1.0625 C-5.06487736 -0.52990283 -3.17235276 -0.45319325 0 0 Z " fill="#FEFEFE" transform="translate(871,481)"/>
<path d="M0 0 C1.875 1.0625 1.875 1.0625 3 3 C3.63316583 8.90954774 3.63316583 8.90954774 1.875 11.9375 C-0.93512264 13.52990283 -2.82764724 13.45319325 -6 13 C-8.4375 11.4375 -8.4375 11.4375 -10 9 C-9.9375 5.375 -9.9375 5.375 -9 2 C-5.53076119 -0.31282587 -4.07794425 -0.42478586 0 0 Z " fill="#FAF9F9" transform="translate(856,481)"/>
<path d="M0 0 C2.7912125 1.98322993 3.82597224 3.12986121 4.5 6.5 C3.82597224 9.87013879 2.7912125 11.01677007 0 13 C-3 13.5625 -3 13.5625 -6 13 C-8.4375 10.8125 -8.4375 10.8125 -10 8 C-9.93107581 5.10518392 -9.38861317 3.59314642 -7.8125 1.1875 C-5.06937448 -0.60972017 -3.20418874 -0.45774125 0 0 Z " fill="#FDFDFD" transform="translate(671,481)"/>
<path d="M0 0 C3.5625 0.3125 3.5625 0.3125 5.5 1.4375 C7.09240283 4.24762264 7.01569325 6.14014724 6.5625 9.3125 C4.9375 11.6875 4.9375 11.6875 2.5625 13.3125 C-0.5 13.8125 -0.5 13.8125 -3.4375 13.3125 C-5.375 11.75 -5.375 11.75 -6.4375 9.3125 C-5.98395669 0.54399606 -5.98395669 0.54399606 0 0 Z " fill="#FEFEFE" transform="translate(652.4375,480.6875)"/>
<path d="M0 0 C2 1.5625 2 1.5625 3 4 C2.875 7.625 2.875 7.625 2 11 C-1 13 -1 13 -4.5625 12.75 C-8 12 -8 12 -10 10 C-10.54587156 3.99541284 -10.54587156 3.99541284 -8.9375 1.0625 C-5.84506242 -0.63335287 -3.44485259 -0.43060657 0 0 Z " fill="#FCFCFC" transform="translate(1736,469)"/>
<path d="M0 0 C2.4375 1.625 2.4375 1.625 4 4 C3.93498241 7.18586196 3.51914046 9.18030454 1.8125 11.875 C-0.97669273 13.60622307 -2.79146522 13.52384241 -6 13 C-8.4375 10.8125 -8.4375 10.8125 -10 8 C-9.93107581 5.10518392 -9.38861317 3.59314642 -7.8125 1.1875 C-5.06937448 -0.60972017 -3.20418874 -0.45774125 0 0 Z " fill="#FDFDFD" transform="translate(1365,481)"/>
<path d="M0 0 C2.4375 2.1875 2.4375 2.1875 4 5 C3.93107581 7.89481608 3.38861317 9.40685358 1.8125 11.8125 C-0.96207491 13.63032494 -2.76291093 13.52850434 -6 13 C-8.4375 10.8125 -8.4375 10.8125 -10 8 C-9.93107581 5.10518392 -9.38861317 3.59314642 -7.8125 1.1875 C-5.03792509 -0.63032494 -3.23708907 -0.52850434 0 0 Z " fill="#FEFEFE" transform="translate(1562,481)"/>
<path d="M0 0 C2.4375 2.1875 2.4375 2.1875 4 5 C3.93107581 7.89481608 3.38861317 9.40685358 1.8125 11.8125 C-0.96207491 13.63032494 -2.76291093 13.52850434 -6 13 C-8.4375 10.8125 -8.4375 10.8125 -10 8 C-9.93107581 5.10518392 -9.38861317 3.59314642 -7.8125 1.1875 C-5.03792509 -0.63032494 -3.23708907 -0.52850434 0 0 Z " fill="#FEFEFE" transform="translate(1178,481)"/>
</svg>
